<svg xmlns="http://www.w3.org/2000/svg" width="335" height="80" fill="none"><path fill="#FAFAFA" d="M23.12 80c-5.02 0-9.28-.89-12.8-2.67a19.16 19.16 0 0 1-7.74-7.22A19.72 19.72 0 0 1 0 60.22c0-4.07 1.11-7.96 3.33-11.66a24.1 24.1 0 0 1 9.57-8.9c.8-.44 1.19-1 1.19-1.66 0-.6-.33-1.11-.97-1.56a25.6 25.6 0 0 1-7.53-8.55 22.5 22.5 0 0 1-2.58-10.22c.07-3.26.9-6.23 2.47-8.9a16.38 16.38 0 0 1 7.1-6.33C15.81.81 19.71 0 24.3 0c6.38 0 11.26 1.52 14.63 4.56a14.75 14.75 0 0 1 5.16 11.33c0 3.48-.93 7-2.8 10.55a27.84 27.84 0 0 1-7.95 9.12c-.58.44-.86.96-.86 1.55 0 .67.32 1.22.96 1.67 4.45 2.89 7.75 6.07 9.9 9.55A20.07 20.07 0 0 1 46.56 59c0 3.7-1.04 7.19-3.12 10.44a22.82 22.82 0 0 1-8.5 7.67A24.6 24.6 0 0 1 23.13 80ZM7.85 59c0 5.4 1.5 9.78 4.52 13.11 3 3.26 7.06 4.89 12.15 4.89 4.51 0 8.14-1.37 10.86-4.11 2.72-2.82 4.09-6.4 4.09-10.78 0-4.6-1.26-8.26-3.77-11-2.44-2.74-6.16-5.48-11.18-8.22L19.14 40a1.7 1.7 0 0 0-.75-.22c-.36 0-.65.1-.86.33-3.37 2.67-5.77 5.33-7.2 8C8.66 51 7.84 54.63 7.84 59Zm1.83-42.67c0 3.56.97 6.48 2.9 8.78a27.7 27.7 0 0 0 7.96 6.22l5.27 2.9c1 .51 1.83.77 2.47.77.86 0 1.54-.37 2.05-1.11a44.3 44.3 0 0 0 4.4-7 16.42 16.42 0 0 0 1.62-7.45c0-5.18-1.3-9.1-3.87-11.77-2.51-2.67-5.6-4-9.25-4-2.3 0-4.48.52-6.56 1.55a12.93 12.93 0 0 0-5.06 4.45 11.7 11.7 0 0 0-1.93 6.66Z"/><path fill="#FAFAFA" d="M45.73 78.89a2.2 2.2 0 0 1-1.18-.33 1.4 1.4 0 0 1-.43-1c0-.37.14-.67.43-.9.28-.29.6-.47.96-.55l2.9-.55c.36-.08.69-.26.97-.56.3-.37.43-.74.43-1.11V6.1c0-.44-.14-.81-.43-1.11a1.9 1.9 0 0 0-1.07-.56L45.84 4a1.9 1.9 0 0 1-1.08-.56 1.4 1.4 0 0 1-.43-1c0-.37.14-.66.43-.88.36-.3.75-.45 1.18-.45h15.92c.43 0 .79.15 1.07.45.36.22.54.51.54.88 0 .75-.46 1.23-1.4 1.45l-2.8.55c-.92.23-1.39.75-1.39 1.56v34.67c0 .52.18.96.54 1.33.36.3.75.44 1.18.44.57 0 1-.22 1.3-.66l16.77-26c.35-.6.96-1.48 1.82-2.67.86-1.26 1.51-2.33 1.94-3.22.5-.96.75-1.7.75-2.22 0-2.52-1.57-3.78-4.73-3.78h-.43c-.43 0-.82-.15-1.18-.45a1.4 1.4 0 0 1-.43-1c0-.37.14-.66.43-.88.36-.3.75-.45 1.18-.45h19.14c.43 0 .8.15 1.08.45.36.22.54.51.54.88s-.15.7-.43 1a2 2 0 0 1-1.19.56c-2.72.3-4.87 1.19-6.45 2.67a26.3 26.3 0 0 0-3.98 4.66c-1 1.63-1.68 2.7-2.04 3.23L74 29.44a5.29 5.29 0 0 0-.86 2.67c0 .45.14 1.11.43 2l18.17 40.45c.15.44.5.74 1.08.88l2.36.67c.94.3 1.4.78 1.4 1.45 0 .37-.18.7-.54 1a1.7 1.7 0 0 1-1.07.33h-15.7a2.2 2.2 0 0 1-1.18-.33 1.4 1.4 0 0 1-.43-1c0-.37.14-.7.43-1 .28-.3.6-.49.96-.56l3.23-.44a2.14 2.14 0 0 0 1.4-.9c.36-.51.4-1.1.1-1.77l-13.87-31a1.6 1.6 0 0 0-1.6-1.11c-.65 0-1.2.26-1.62.78l-7.85 10.66a4.82 4.82 0 0 0-.97 2.9v18.77c0 .37.14.74.43 1.11.29.3.6.48.97.56l3.44.66c.36.08.68.26.97.56.28.22.43.48.43.78 0 .37-.18.7-.54 1a1.7 1.7 0 0 1-1.08.33H45.73Z"/><path fill="#FAFAFA" d="M116.68 80c-4.66 0-8.89-1.85-12.69-5.56-3.73-3.7-6.67-8.66-8.82-14.88a61.15 61.15 0 0 1-3.22-20.12c0-7.33 1.07-14 3.22-20 2.23-6.07 5.2-10.81 8.93-14.22 3.8-3.48 8-5.22 12.58-5.22 4.59 0 8.75 1.74 12.47 5.22 3.8 3.48 6.78 8.26 8.93 14.34 2.22 6 3.33 12.63 3.33 19.88a62.2 62.2 0 0 1-3.22 20.45c-2.08 6.15-5.02 11.04-8.82 14.67-3.73 3.63-7.96 5.44-12.69 5.44Zm-16.35-38.89a68.37 68.37 0 0 0 3.88 17.56c1.93 5.1 4.23 9.07 6.88 11.89 2.72 2.81 5.48 4.22 8.28 4.22 2.5 0 4.84-1.22 6.99-3.67 2.15-2.44 3.83-5.89 5.05-10.33a54.2 54.2 0 0 0 1.94-15.11c0-2.82-.14-5.45-.43-7.9a64.02 64.02 0 0 0-3.87-16.55c-1.87-4.96-4.13-8.85-6.78-11.66-2.65-2.9-5.41-4.34-8.28-4.34-2.72 0-5.16 1.11-7.31 3.34-2.15 2.22-3.84 5.4-5.05 9.55a54.44 54.44 0 0 0-1.72 14.45c0 3.03.14 5.88.42 8.55Z"/><path fill="#FAFAFA" d="M138.16 78.89a2.2 2.2 0 0 1-1.18-.33 1.4 1.4 0 0 1-.43-1c0-.37.1-.67.32-.9.29-.29.61-.47.97-.55 2-.3 3.48-.89 4.4-1.78a6.02 6.02 0 0 0 1.73-3.66c.29-1.56.43-3.93.43-7.11V6.1c0-.44-.18-.81-.54-1.11a1.9 1.9 0 0 0-1.07-.56l-3.55-.55a2.39 2.39 0 0 1-1.08-.45 1.4 1.4 0 0 1-.43-1c0-.37.15-.66.43-.88.36-.3.76-.45 1.19-.45h14.94c.72 0 1.19.37 1.4 1.11l12.9 43.11c.15.45.4.67.76.67s.6-.19.75-.56l16.13-43.33c.22-.67.65-1 1.3-1h12.25c.43 0 .79.15 1.08.45.35.3.53.63.53 1 0 .44-.14.85-.43 1.22-.28.3-.6.48-.96.55l-1.62.23a1.9 1.9 0 0 0-1.07.55c-.22.22-.32.56-.32 1V74c0 .44.14.81.42 1.11.3.3.65.48 1.08.56l4.41.44c.93.15 1.4.6 1.4 1.33 0 .37-.18.7-.54 1-.29.3-.64.45-1.08.45h-17.85a2.2 2.2 0 0 1-1.18-.33 1.4 1.4 0 0 1-.43-1c0-.82.47-1.3 1.4-1.45l2.9-.55c.93-.15 1.4-.67 1.4-1.56V15.78c0-1.19-.29-1.78-.86-1.78-.14 0-.36.11-.65.33-.21.23-.39.56-.53 1l-17.75 44.78c-.28.74-.78 1.11-1.5 1.11h-.97c-.72 0-1.18-.37-1.4-1.1l-13.98-45c-.57-1.71-1.07-2.56-1.5-2.56-.58 0-.86.96-.86 2.88v52.67c0 2.45.14 4.19.43 5.22.36.97.93 1.6 1.72 1.9.79.29 2.25.58 4.4.88.44.08.76.3.97.67.3.3.43.63.43 1 0 .74-.53 1.1-1.6 1.1h-17.1Z"/><path fill="#FAFAFA" d="M224.24 80c-4.66 0-8.9-1.85-12.7-5.56-3.72-3.7-6.66-8.66-8.8-14.88a61.15 61.15 0 0 1-3.24-20.12c0-7.33 1.08-14 3.23-20 2.22-6.07 5.2-10.81 8.93-14.22 3.8-3.48 7.99-5.22 12.58-5.22s8.74 1.74 12.47 5.22c3.8 3.48 6.78 8.26 8.93 14.34 2.22 6 3.33 12.63 3.33 19.88a62.2 62.2 0 0 1-3.22 20.45c-2.08 6.15-5.02 11.04-8.82 14.67-3.73 3.63-7.96 5.44-12.7 5.44Zm-16.35-38.89a68.37 68.37 0 0 0 3.87 17.56c1.94 5.1 4.23 9.07 6.89 11.89 2.72 2.81 5.48 4.22 8.28 4.22 2.5 0 4.83-1.22 6.99-3.67 2.15-2.44 3.83-5.89 5.05-10.33a54.2 54.2 0 0 0 1.94-15.11c0-2.82-.15-5.45-.43-7.9a64.02 64.02 0 0 0-3.88-16.55c-1.86-4.96-4.12-8.85-6.77-11.66-2.65-2.9-5.41-4.34-8.28-4.34-2.73 0-5.16 1.11-7.31 3.34-2.15 2.22-3.84 5.4-5.06 9.55a54.44 54.44 0 0 0-1.72 14.45c0 3.03.15 5.88.43 8.55Z"/><path fill="#FAFAFA" d="M245.72 78.89a2.2 2.2 0 0 1-1.18-.33 1.4 1.4 0 0 1-.43-1c0-.37.1-.67.32-.9.29-.29.6-.47.97-.55l4.2-.89c.35-.07.64-.26.85-.55.29-.3.43-.63.43-1V6c0-.37-.14-.7-.43-1-.21-.3-.5-.48-.86-.56l-3.87-.55c-.93-.15-1.4-.63-1.4-1.45 0-.37.15-.66.43-.88.36-.3.75-.45 1.19-.45h19.03c8.67 0 15.23 1.78 19.68 5.33 4.51 3.49 6.77 8.63 6.77 15.45 0 6.6-2.3 11.55-6.88 14.89-4.52 3.33-10.79 5-18.82 5h-5.16c-.43 0-.82.18-1.18.55-.29.3-.43.67-.43 1.11v30.12c0 .37.1.74.32 1.1.29.3.6.49.97.56l4.73.9c.36.07.64.25.86.55.29.22.43.52.43.89s-.18.7-.54 1a1.7 1.7 0 0 1-1.07.33h-18.93Zm13.23-43.45c0 .45.14.86.43 1.23.36.3.79.44 1.29.44h4.62c5.95 0 10.25-1.26 12.9-3.78 2.73-2.52 4.1-6.37 4.1-11.55 0-5.41-1.48-9.63-4.42-12.67-2.94-3.11-7.2-4.67-12.8-4.67-.93 0-2.54.19-4.83.56-.86.15-1.3.67-1.3 1.56v28.88Z"/><path fill="#FAFAFA" d="M274.78 78.89a2.2 2.2 0 0 1-1.18-.33c-.29-.3-.43-.6-.43-.9 0-.66.5-1.07 1.5-1.22 1.3-.3 2.22-.77 2.8-1.44.64-.74 1.29-2.11 1.93-4.11L301.13 9c.07-.44.07-.81 0-1.11L299.5 4a3.64 3.64 0 0 1-.21-1c0-.6.14-1.04.43-1.33.36-.37.82-.56 1.4-.56h3.98c.35 0 .68.11.96.33.29.23.47.49.54.78l23.98 72.45c.07.22.22.44.43.66.22.15.47.26.75.34l1.94.55c.86.22 1.29.7 1.29 1.45 0 .3-.18.59-.54.89a1.7 1.7 0 0 1-1.07.33h-16.56a2.2 2.2 0 0 1-1.19-.33c-.28-.3-.43-.6-.43-.9 0-.66.47-1.1 1.4-1.33l3.12-.66c.57-.15 1-.45 1.29-.9a1.8 1.8 0 0 0 .32-1.55l-5.7-17.66c-.21-.75-.68-1.12-1.4-1.12h-23.76c-.72 0-1.18.37-1.4 1.12l-1.4 4.77c-1.14 4-1.72 7.11-1.72 9.34 0 2.14.36 3.7 1.08 4.66.72.97 2.22 1.67 4.51 2.11.94.23 1.4.67 1.4 1.34 0 .3-.18.55-.53.78a1.7 1.7 0 0 1-1.08.33h-16.56Zm16.67-31.45c-.07.15-.11.37-.11.67 0 .52.18.96.54 1.33.36.3.79.45 1.29.45h18.17c.65 0 1.15-.22 1.5-.67.44-.52.55-1.1.33-1.78l-9.25-29.22c-.43-1.4-.9-2.1-1.4-2.1-.57 0-1.07.7-1.5 2.1l-9.57 29.22Z"/></svg>