<svg xmlns="http://www.w3.org/2000/svg" fill="none" viewBox="20 160 1400 323"><g fill="#FAFAFA" filter="url(#a)"><path d="M116.62 483c-20.97 0-38.8-3.59-53.48-10.77-14.38-7.47-25.16-17.2-32.35-29.16A77.55 77.55 0 0 1 20 403.15c0-16.45 4.64-32.15 13.93-47.1 9.29-14.96 22.62-26.92 40-35.9 3.3-1.79 4.94-4.03 4.94-6.72 0-2.4-1.35-4.5-4.04-6.29-13.48-9.57-23.97-21.08-31.46-34.54-7.2-13.76-10.79-27.51-10.79-41.27.3-13.16 3.75-25.12 10.34-35.89 6.6-10.77 16.48-19.29 29.66-25.57 13.48-6.58 29.81-9.87 48.98-9.87 26.67 0 47.04 6.13 61.12 18.4 14.09 11.96 21.28 27.2 21.58 45.75 0 14.06-3.9 28.26-11.69 42.62-7.79 14.06-18.87 26.32-33.25 36.79-2.4 1.79-3.6 3.88-3.6 6.28 0 2.69 1.35 4.93 4.04 6.73 18.58 11.66 32.36 24.52 41.35 38.58 8.99 14.05 13.48 28.4 13.48 43.06 0 14.96-4.34 29.01-13.03 42.17-8.69 12.86-20.52 23.18-35.5 30.96C151.08 479.1 134.6 483 116.62 483Zm-63.81-84.79c0 21.84 6.29 39.48 18.87 52.94 12.58 13.16 29.51 19.74 50.78 19.74 18.88 0 34-5.53 45.4-16.6 11.38-11.37 17.07-25.87 17.07-43.52 0-18.54-5.24-33.34-15.73-44.4-10.18-11.07-25.76-22.14-46.74-33.2L100 321.5c-1.2-.6-2.24-.9-3.14-.9-1.5 0-2.7.45-3.6 1.35-14.08 10.76-24.12 21.53-30.1 32.3-6.9 11.66-10.34 26.32-10.34 43.96Zm7.64-172.26c0 14.35 4.04 26.17 12.13 35.44 8.09 9.27 19.17 17.64 33.26 25.12l22.02 11.66c4.2 2.1 7.64 3.14 10.33 3.14a9.9 9.9 0 0 0 8.54-4.48c8.1-10.47 14.23-19.9 18.43-28.27 4.5-8.67 6.74-18.69 6.74-30.05 0-20.94-5.4-36.79-16.18-47.56-10.49-10.76-23.37-16.15-38.65-16.15-9.59 0-18.72 2.1-27.41 6.28a53.5 53.5 0 0 0-21.12 17.95c-5.4 7.78-8.1 16.75-8.1 26.92Z"/><path d="M211.1 478.51c-1.8 0-3.44-.44-4.94-1.34a5.57 5.57 0 0 1-1.8-4.04c0-1.5.6-2.7 1.8-3.59a7.83 7.83 0 0 1 4.04-2.24l12.14-2.24a7.83 7.83 0 0 0 4.04-2.25 7.18 7.18 0 0 0 1.8-4.48V184.67c0-1.8-.6-3.29-1.8-4.48a8.05 8.05 0 0 0-4.5-2.25l-10.33-1.79a8.05 8.05 0 0 1-4.5-2.24 5.57 5.57 0 0 1-1.79-4.04c0-1.5.6-2.7 1.8-3.59a7.74 7.74 0 0 1 4.94-1.8h66.51c1.8 0 3.3.6 4.5 1.8 1.5.9 2.24 2.1 2.24 3.59 0 2.99-1.94 4.93-5.84 5.83l-11.68 2.24c-3.9.9-5.85 3-5.85 6.28V324.2c0 2.1.75 3.89 2.25 5.38a7.74 7.74 0 0 0 4.94 1.8c2.4 0 4.2-.9 5.4-2.7l70.1-104.97c1.5-2.39 4.05-5.98 7.64-10.76 3.6-5.09 6.3-9.43 8.1-13.01 2.1-3.9 3.14-6.88 3.14-8.98 0-10.16-6.6-15.25-19.77-15.25h-1.8c-1.8 0-3.45-.6-4.94-1.8a5.57 5.57 0 0 1-1.8-4.03c0-1.5.6-2.7 1.8-3.59a7.74 7.74 0 0 1 4.94-1.8h80c1.8 0 3.29.6 4.49 1.8 1.5.9 2.24 2.1 2.24 3.59 0 1.5-.6 2.84-1.8 4.04a8.46 8.46 0 0 1-4.94 2.24c-11.38 1.2-20.37 4.78-26.96 10.77a107.2 107.2 0 0 0-16.63 18.84 364.64 364.64 0 0 1-8.54 13l-40.44 60.12c-2.4 3.89-3.6 7.48-3.6 10.77 0 1.8.6 4.49 1.8 8.07l75.95 163.3c.6 1.8 2.1 2.99 4.5 3.59l9.88 2.69c3.9 1.2 5.84 3.14 5.84 5.83 0 1.5-.75 2.84-2.25 4.04-1.2.9-2.7 1.34-4.5 1.34h-65.6c-1.8 0-3.45-.44-4.95-1.34a5.57 5.57 0 0 1-1.8-4.04c0-1.5.6-2.84 1.8-4.04a7.84 7.84 0 0 1 4.05-2.24l13.48-1.8c2.7-.6 4.64-1.79 5.84-3.58 1.5-2.1 1.65-4.49.45-7.18l-57.97-125.16c-1.2-3-3.45-4.49-6.74-4.49a8.52 8.52 0 0 0-6.74 3.14l-32.81 43.07a19.02 19.02 0 0 0-4.05 11.66v75.82c0 1.5.6 2.99 1.8 4.48a7.83 7.83 0 0 0 4.05 2.25l14.38 2.69c1.5.3 2.84 1.04 4.04 2.24 1.2.9 1.8 1.94 1.8 3.14 0 1.5-.75 2.84-2.25 4.04-1.2.9-2.7 1.34-4.5 1.34h-70.1Z"/><path d="M507.62 483c-19.47 0-37.15-7.48-53.03-22.43-15.58-14.95-27.86-35-36.85-60.11-8.99-25.13-13.48-52.2-13.48-81.2 0-29.61 4.5-56.53 13.48-80.75 9.29-24.53 21.72-43.67 37.3-57.42 15.88-14.06 33.4-21.09 52.58-21.09s36.55 7.03 52.13 21.09c15.88 14.05 28.32 33.34 37.3 57.87 9.3 24.22 13.93 50.99 13.93 80.3 0 29.9-4.49 57.42-13.48 82.54-8.69 24.82-20.97 44.56-36.85 59.22C545.07 475.67 527.4 483 507.62 483Zm-68.3-157.01c2.69 26.61 8.08 50.24 16.17 70.88 8.09 20.63 17.68 36.63 28.76 48 11.39 11.36 22.92 17.05 34.6 17.05 10.5 0 20.23-4.94 29.22-14.8 8.99-9.88 16.03-23.79 21.12-41.73 5.4-17.94 8.09-38.28 8.09-61.01 0-11.37-.6-21.98-1.8-31.85-2.7-24.53-8.09-46.8-16.18-66.84-7.79-20.04-17.22-35.75-28.31-47.1-11.09-11.67-22.62-17.5-34.6-17.5-11.39 0-21.57 4.48-30.56 13.45-9 8.97-16.03 21.84-21.13 38.58-4.79 16.75-7.19 36.2-7.19 58.32 0 12.26.6 23.78 1.8 34.55Z"/><path d="M597.4 478.51c-1.8 0-3.45-.44-4.95-1.34a5.57 5.57 0 0 1-1.8-4.04c0-1.5.46-2.7 1.35-3.59a7.83 7.83 0 0 1 4.05-2.24c8.39-1.2 14.53-3.59 18.42-7.18 3.9-3.59 6.3-8.52 7.2-14.8 1.2-6.28 1.8-15.85 1.8-28.71V184.67c0-1.8-.76-3.29-2.25-4.48a8.05 8.05 0 0 0-4.5-2.25l-14.83-2.24c-1.8-.3-3.3-.9-4.5-1.8a5.57 5.57 0 0 1-1.8-4.03c0-1.5.6-2.7 1.8-3.59a7.74 7.74 0 0 1 4.95-1.8h62.47c3 0 4.94 1.5 5.84 4.5l53.93 174.05c.6 1.8 1.65 2.7 3.14 2.7 1.5 0 2.55-.75 3.15-2.25l67.41-174.96c.9-2.69 2.7-4.03 5.4-4.03h51.23c1.8 0 3.3.6 4.49 1.8 1.5 1.19 2.25 2.53 2.25 4.03 0 1.8-.6 3.44-1.8 4.93a7.84 7.84 0 0 1-4.05 2.25l-6.74.9c-1.8.3-3.3 1.04-4.5 2.24-.89.9-1.34 2.24-1.34 4.03v274.1c0 1.8.6 3.3 1.8 4.5a8.05 8.05 0 0 0 4.5 2.23l18.42 1.8c3.9.6 5.84 2.4 5.84 5.38 0 1.5-.75 2.84-2.25 4.04a6.1 6.1 0 0 1-4.49 1.8h-74.6c-1.8 0-3.45-.45-4.95-1.35a5.58 5.58 0 0 1-1.8-4.04c0-3.29 1.95-5.23 5.85-5.83l12.13-2.24c3.9-.6 5.85-2.7 5.85-6.29V223.7c0-4.78-1.2-7.17-3.6-7.17-.6 0-1.5.44-2.7 1.34-.9.9-1.64 2.24-2.24 4.04L726.83 402.7c-1.2 2.99-3.3 4.49-6.3 4.49h-4.04c-3 0-4.94-1.5-5.84-4.5l-58.43-181.68c-2.4-6.88-4.49-10.32-6.29-10.32-2.4 0-3.6 3.9-3.6 11.67V435c0 9.87.6 16.9 1.8 21.08 1.5 3.9 3.9 6.43 7.2 7.63 3.3 1.2 9.43 2.4 18.42 3.59 1.8.3 3.15 1.2 4.05 2.69a5.58 5.58 0 0 1 1.8 4.04c0 2.99-2.25 4.48-6.75 4.48H597.4Z"/><path d="M957.11 483c-19.47 0-37.15-7.48-53.03-22.43-15.58-14.95-27.86-35-36.85-60.11-8.99-25.13-13.48-52.2-13.48-81.2 0-29.61 4.5-56.53 13.48-80.75 9.29-24.53 21.72-43.67 37.3-57.42 15.88-14.06 33.4-21.09 52.58-21.09s36.55 7.03 52.13 21.09c15.88 14.05 28.32 33.34 37.3 57.87 9.29 24.22 13.94 50.99 13.94 80.3 0 29.9-4.5 57.42-13.49 82.54-8.68 24.82-20.97 44.56-36.85 59.22-15.58 14.65-33.25 21.98-53.03 21.98Zm-68.3-157.01c2.69 26.61 8.08 50.24 16.17 70.88 8.1 20.63 17.68 36.63 28.76 48 11.39 11.36 22.92 17.05 34.6 17.05 10.5 0 20.23-4.94 29.22-14.8 8.99-9.88 16.03-23.79 21.12-41.73 5.39-17.94 8.09-38.28 8.09-61.01 0-11.37-.6-21.98-1.8-31.85-2.69-24.53-8.09-46.8-16.18-66.84-7.78-20.04-17.22-35.75-28.3-47.1-11.1-11.67-22.63-17.5-34.61-17.5-11.39 0-21.57 4.48-30.56 13.45-8.99 8.97-16.03 21.84-21.12 38.58-4.8 16.75-7.2 36.2-7.2 58.32 0 12.26.6 23.78 1.8 34.55Z"/><path d="M1046.89 478.51a9.4 9.4 0 0 1-4.94-1.34 5.57 5.57 0 0 1-1.8-4.04c0-1.5.45-2.7 1.35-3.59a7.78 7.78 0 0 1 4.04-2.24l17.53-3.59a5.74 5.74 0 0 0 3.59-2.24 5.57 5.57 0 0 0 1.8-4.04v-273.2c0-1.5-.6-2.85-1.8-4.04a5.74 5.74 0 0 0-3.59-2.25l-16.18-2.24c-3.9-.6-5.84-2.54-5.84-5.83 0-1.5.6-2.7 1.79-3.59a7.76 7.76 0 0 1 4.95-1.8h79.54c36.25 0 63.67 7.18 82.24 21.54 18.88 14.06 28.32 34.84 28.32 62.36 0 26.61-9.59 46.65-28.77 60.11-18.87 13.46-45.09 20.19-78.64 20.19h-21.57c-1.8 0-3.45.75-4.95 2.24a6.1 6.1 0 0 0-1.79 4.49v121.57c0 1.5.45 3 1.34 4.49a7.85 7.85 0 0 0 4.05 2.24l19.77 3.59c1.5.3 2.7 1.05 3.6 2.24 1.2.9 1.8 2.1 1.8 3.6 0 1.49-.75 2.83-2.25 4.03a7.3 7.3 0 0 1-4.5 1.34h-79.09Zm55.28-175.4c0 1.8.6 3.44 1.79 4.93a8.4 8.4 0 0 0 5.4 1.8h19.32c24.87 0 42.84-5.09 53.93-15.26 11.38-10.16 17.08-25.72 17.08-46.65 0-21.84-6.15-38.88-18.43-51.14-12.28-12.56-30.11-18.85-53.48-18.85-3.89 0-10.63.75-20.22 2.25-3.6.6-5.39 2.69-5.39 6.28V303.1Z"/><path d="M1168.33 478.51a9.46 9.46 0 0 1-4.94-1.34c-1.2-1.2-1.8-2.4-1.8-3.6 0-2.68 2.1-4.33 6.29-4.93 5.4-1.2 9.29-3.14 11.69-5.83 2.7-2.99 5.39-8.52 8.09-16.6l90.78-249.87c.3-1.8.3-3.3 0-4.49l-6.74-15.7c-.6-1.8-.9-3.14-.9-4.04 0-2.39.6-4.19 1.8-5.38a7.89 7.89 0 0 1 5.84-2.24h16.63c1.49 0 2.84.44 4.04 1.34 1.2.9 1.95 1.95 2.25 3.14l100.21 292.5c.3.9.9 1.8 1.8 2.69a10 10 0 0 0 3.15 1.34l8.09 2.25c3.59.9 5.39 2.84 5.39 5.83 0 1.2-.75 2.4-2.25 3.59a7.28 7.28 0 0 1-4.49 1.34h-69.21c-1.8 0-3.44-.44-4.94-1.34-1.2-1.2-1.8-2.4-1.8-3.6 0-2.68 1.95-4.48 5.84-5.37l13.03-2.7c2.4-.6 4.2-1.79 5.4-3.58 1.5-2.1 1.94-4.2 1.35-6.29l-23.82-71.32c-.9-3-2.85-4.5-5.84-4.5h-99.32c-3 0-4.95 1.5-5.85 4.5l-5.84 19.29c-4.79 16.15-7.19 28.7-7.19 37.68 0 8.67 1.5 14.95 4.5 18.84 2.99 3.89 9.28 6.73 18.87 8.52 3.9.9 5.84 2.7 5.84 5.39 0 1.2-.75 2.24-2.24 3.14a7.3 7.3 0 0 1-4.5 1.34h-69.21Zm69.66-126.95c-.3.6-.45 1.5-.45 2.69 0 2.1.75 3.89 2.25 5.38a8.37 8.37 0 0 0 5.39 1.8h75.95c2.7 0 4.79-.9 6.29-2.7a6.95 6.95 0 0 0 1.35-7.17l-38.65-117.99c-1.8-5.68-3.74-8.52-5.84-8.52-2.4 0-4.49 2.84-6.29 8.52l-40 117.99Z"/></g><defs><filter id="a" width="1720" height="643" x="-140" y="0" color-interpolation-filters="sRGB" filterUnits="userSpaceOnUse"><feFlood flood-opacity="0" result="BackgroundImageFix"/><feColorMatrix in="SourceAlpha" result="hardAlpha" values="0 0 0 0 0 0 0 0 0 0 0 0 0 0 0 0 0 0 127 0"/><feOffset/><feGaussianBlur stdDeviation="80"/><feComposite in2="hardAlpha" operator="out"/><feColorMatrix values="0 0 0 0 0 0 0 0 0 0 0 0 0 0 0 0 0 0 0.12 0"/><feBlend in2="BackgroundImageFix" result="effect1_dropShadow_101_336"/><feBlend in="SourceGraphic" in2="effect1_dropShadow_101_336" result="shape"/></filter></defs></svg>