<svg width="335" height="125" viewBox="0 0 335 125" fill="none" xmlns="http://www.w3.org/2000/svg">
<path d="M2 17.5399L22.7055 3.85551L312.76 2L331.837 17.308M2 17.5399L331.837 17.308M2 17.5399L2.93058 28.9049H49.2272M331.837 17.308L333 25.1939L330.208 28.9049H269.953M254.366 28.9049H269.953M254.366 28.9049H244.595M254.366 28.9049L254.554 37.2548M269.953 28.9049L263.671 121.681H256.459L254.554 37.2548M244.595 28.9049L238.08 82.2509H244.595L254.554 37.2548M244.595 28.9049H87.3811M73.1897 28.9049L87.3811 82.4829H94.1279M73.1897 28.9049H68.5368M73.1897 28.9049H84.1241M94.1279 82.4829L87.3811 28.9049M94.1279 82.4829L84.1241 28.9049M87.3811 28.9049H84.1241M49.2272 28.9049L58.9983 124H66.2103M49.2272 28.9049H63.6512M66.2103 124L68.5368 28.9049M66.2103 124L63.6512 28.9049M68.5368 28.9049H63.6512" stroke="#212121" stroke-width="2"/>
</svg>
