<svg width="211" height="365" viewBox="0 0 211 365" fill="none" xmlns="http://www.w3.org/2000/svg">
<path d="M5.726 100.282L2.828 100.276L2 89.4946L52.922 89.5966M5.726 100.282L7.382 348.487L6.14 350.56M5.726 100.282L206.779 100.687M6.14 350.56L205.274 353.463M6.14 350.56V360.512L205.688 363L205.274 353.463M205.274 353.463C205.274 353.463 204.265 351.946 203.618 350.975C201.134 258.089 206.659 101.016 206.779 100.687M206.779 100.687L208.586 100.691L209 89.9092L158.492 89.8081M52.922 89.5966L98.048 2L158.492 89.8081M52.922 89.5966L158.492 89.8081" stroke="#212121" stroke-width="2"/>
</svg>
