<svg xmlns="http://www.w3.org/2000/svg" width="2048" height="2048" fill="none"><path fill="#000" fill-rule="evenodd" d="M971.75 109.3c-1.51 1.25-2.75 2.83-2.75 3.51 0 .68-1.36 1.51-3.02 1.84-1.66.34-3.26 1-3.56 1.48-.73 1.18-4.42 1.11-4.42-.08 0-.53-1.18.14-2.62 1.47-1.56 1.45-2.38 3.04-2.03 3.95.32.84.15 1.53-.38 1.53-1.43 0-1.18 3.76.28 4.25 1.33.45.35 4.18-3.06 11.75-1.89 4.19-6.19 8.67-6.19 6.45 0-.8-.45-1.45-1-1.45a1 1 0 0 0-1 1c0 .54-1.58 3.05-3.5 5.57-1.93 2.53-5.3 7.67-7.5 11.43s-5.12 8.18-6.5 9.8c-1.37 1.64-3.9 5.61-5.63 8.84-3.31 6.16-3.45 6.43-9.35 18.36a238.13 238.13 0 0 1-5.76 11c-4.8 8.2-6.9 13.2-6.22 14.81.38.93.76 2.89.83 4.35.1 2.03-.17 2.42-1.12 1.63-.93-.77-1.25-.48-1.25 1.15 0 1.2.41 1.92.91 1.61.54-.33.61.58.19 2.18-.55 2.04-1.37 2.75-3.17 2.76-1.43 0-2.32-.51-2.18-1.25.2-.98-.15-1-1.6-.1-2.28 1.42-8.7 12.86-7.22 12.86.59 0 1.03.79 1 1.75-.06 1.04-.3 1.25-.6.5-.27-.69-.87-1.25-1.32-1.25-2.36 0-17.62 26.2-16.41 28.16.28.46.13.84-.35.84-.8 0-4.47 7.27-4.29 8.5.04.3-.83 1.51-1.94 2.7-1.11 1.2-2.02 2.95-2.02 3.9 0 .96-.36 1.88-.79 2.07-1.25.53-16.1 29.1-16.76 32.24-.22 1.05-1.53 3.63-2.92 5.73-1.4 2.1-2.53 4.1-2.53 4.43 0 .34-.93 1.93-2.07 3.53-2.5 3.5-4.2 8.9-2.83 8.9.53 0 1.22-.67 1.54-1.5.31-.82 1-1.22 1.52-.9.53.33.22 1.13-.69 1.8-1.5 1.1-1.51 1.32-.06 2.53 1.87 1.55 2.07 3.66.44 4.67-.72.44-.89.27-.45-.44.96-1.54-.5-3.63-2.65-3.8-1.12-.09-1.75.57-1.75 1.81 0 1.07-.38 1.71-.84 1.43-.46-.28-2.71 3.18-5 7.7-5.83 11.46-10.25 19.44-13.68 24.7-4.63 7.09-4.8 7.39-8.09 13.6-1.7 3.25-3.4 7.12-3.75 8.6a30 30 0 0 1-2.9 6.5c-4.02 6.77-7.61 16.17-6.38 16.68.78.31.74.49-.11.54-1.7.1-1.59 3.56.15 5 .78.64 1.32 1.81 1.2 2.6-.38 2.6-1.35 2.61-2 .03-.84-3.35-2.42-3.25-3.14.2a20.55 20.55 0 0 1-1.62 4.64c-.85 1.55-.75 1.79.53 1.3.86-.33 1.88-.1 2.25.5.44.72.23.83-.6.32-.86-.53-1.11-.33-.77.6.27.76 1.06 1.26 1.75 1.1.72-.17 1.01.31.7 1.13-.3.78-.18 1.8.27 2.29 1.11 1.18-.7 5.66-1.97 4.87-.55-.34-.72-1.79-.36-3.21.5-1.99.35-2.4-.66-1.78-.98.6-1.14.35-.63-.99.6-1.54.47-1.62-.87-.5-1.13.93-1.25 1.5-.42 2.02.65.4.87 1.6.5 2.75-.48 1.53-.11 2.22 1.47 2.72 1.16.37 1.93 1.2 1.7 1.83l-2.8 7.85-2.37 6.69-5.53-.45a136.2 136.2 0 0 0-7.53-.44l-8.85-.06c-5.43-.06-6.69.2-6.06 1.25.6 1 .45 1.07-.65.26-.8-.58-2.79-.95-4.44-.81a503.84 503.84 0 0 1-29 1.72c-4.95.11-9.67.5-10.5.85-3.23 1.37-7.16 1.88-6.52.84.38-.63-.47-1.01-2.17-.97-2.44.06-2.55.18-.81.89 1.87.76 1.84.85-.5 1.37-5.86 1.3-8.05 1.32-9.07.09-1.19-1.44-4.26-.77-3.34.72.31.51-.93.92-2.76.9-1.83-.02-5.92.09-9.08.24-3.44.16-5.76-.14-5.76-.75-.01-.64-.3-.62-.75.07-.92 1.37-6.65 2.87-5.82 1.52.37-.6-2.7-.76-8.16-.43-4.82.28-10.9.5-13.51.49-2.61-.01-4.75.4-4.75.93 0 .6-.7.58-1.87-.04-1.03-.55-2.1-.77-2.37-.5s-2.65.01-5.28-.58c-4.82-1.07-12.6-1.36-17.73-.65-1.51.21-2.75-.06-2.75-.6s-.7-.4-1.56.3c-1.26 1.06-2.75 1.07-7.75.08-3.4-.68-7.09-1.39-8.19-1.58-3.1-.54-15.94-1.95-16.52-1.82l-3.05.76c-2.08.52-2.79.14-3.98-2.17-1.83-3.55-4.95-7.05-4.95-5.56 0 .62.46 1.42 1.02 1.76.56.35.8.99.52 1.43-.27.43.4 1.6 1.48 2.58 2.43 2.2 2.53 4.08.27 5.34-1.24.7-2.05.5-2.97-.7-.88-1.17-1.27-1.27-1.29-.34-.02 1.08-.28 1.07-1.38-.03-1.79-1.79-2.75-8.04-1.15-7.43.64.25 1.17-.14 1.17-.86 0-.73-.64-1.06-1.44-.76-.79.3-1.8-.05-2.25-.77a4.06 4.06 0 0 0-2.55-1.58 4.19 4.19 0 0 1-2.58-1.57c-.69-1.07-1.04-1.03-1.84.18-.88 1.36-1.5 6.13-1.08 8.4.1.49.33 4.43.52 8.75.36 7.97.07 8.58-3.73 7.96-1.68-.28-1.98 3.17-.35 4.07.92.52 1.41 1.37 1.1 1.88-.33.52.01.94.75.94 1.93 0 5.02 3.94 4.38 5.6-.3.77-.18 1.4.26 1.4.96 0 .81 3.66-.17 4.65-1.07 1.06-.81 2.55.31 1.85 1.45-.9 1.24 3.87-.24 5.34-.83.83-.9 1.48-.21 1.95.57.4 1.07 2.66 1.12 5.03.04 2.38.55 4.8 1.13 5.38.57.57.78 1.74.45 2.59-.35.9-.17 1.28.44.9.63-.39.84.3.55 1.84-.32 1.65-.02 2.48.9 2.49.95 0 1.02.23.21.75-.85.54-.75 1.9.37 5.23 1.55 4.58 6.6 11.34 7.69 10.26.32-.33.59.64.59 2.15 0 1.87 1.25 3.99 3.92 6.63 2.16 2.13 4.21 4.8 4.57 5.92.35 1.12 1.29 2.04 2.08 2.04.78 0 1.43.65 1.43 1.44 0 .8.52 1.76 1.15 2.15.77.48.88.28.35-.59-.56-.9-.42-1.07.43-.54 2.28 1.4-1.2 14.76-3.6 13.84-.88-.34-1.33.3-1.33 1.9 0 1.32-.56 3-1.25 3.75-.69.74-.8 1.1-.25.8 1.17-.63 3.67 1.75 2.77 2.64-1 1-2.43.69-1.77-.39.34-.55.19-1-.33-1-1.28 0-1.79 1.67-2.04 6.75-.2 3.94-.03 4.25 2.33 4.25 1.4 0 2.54.48 2.54 1.06 0 .59-.79.99-1.75.89-3.03-.31-3.53 0-2.32 1.46.8.97.84 1.62.12 2.06-.58.36-1.05 2.65-1.05 5.09 0 3.9.27 4.45 2.25 4.56 2.04.1 2.07.16.25.61-2.55.64-3.65 2.38-2.44 3.84 1.15 1.39.85 6.43-.38 6.43-.5 0-.63.7-.3 1.55.34.9.17 1.3-.4.94-.53-.33-.98-.13-.98.45 0 .58.52 1.06 1.15 1.06.66 0 .37.87-.66 2-1 1.11-1.52 2.3-1.16 2.66.36.36.15 1.26-.46 2-.9 1.08-.45 1.35 2.26 1.37 2.78.03 3.06.2 1.61 1.06-.97.56-2.17.76-2.68.45-1.35-.84-1.8.34-2.42 6.46-.49 4.73-.38 5.25.77 3.73.8-1.05 2-1.51 2.96-1.14 2.27.87 2.04 3.5-.37 4.12-2.76.72-2.53 2.22.25 1.61 1.34-.3 1.8-.16 1.13.34-.65.49-1.01 3.02-.85 6 .15 2.92-.31 6.3-1.07 7.75-.74 1.43-.95 2.59-.47 2.59s.56 1.24.17 2.75c-.38 1.51-.63 4.1-.55 5.75.17 3.7-.58 5.16-1.72 3.36-.63-1-.86-.75-.88.89 0 1.24.5 2.25 1.11 2.25.8 0 .77.43-.08 1.46-.67.8-.87 2-.45 2.68.54.88.97.68 1.52-.7.65-1.65.53.53-.5 9.56-.1.83-.52 2.06-.94 2.74-.55.87-.27 1.04.94.58 1.41-.54 1.6-.24 1.06 1.76a19.84 19.84 0 0 0-.66 3.67c0 .69-1.02 1.28-2.26 1.31l-2.25.07 2.25.9c1.65.66 2.28 1.78 2.37 4.19.33 8.74.75 12.27 2.99 25.14a77.76 77.76 0 0 1 1.07 9.76c.03 2.15.44 4.14.9 4.43.46.29.36 1.59-.24 2.9-.83 1.82-.72 3.08.46 5.46.85 1.7 1.2 3.09.77 3.09-.43 0-.74 6.7-.68 14.9.06 8.2.5 14.67.96 14.38.47-.28.38.36-.2 1.44a6.7 6.7 0 0 0-.65 3.87c.22 1.05.63 4.38.9 7.41.28 3.02.8 7.19 1.18 9.25.44 2.42.3 3.75-.39 3.75-.59 0-1 .85-.92 1.89.09 1.21.7 1.72 1.69 1.42.92-.29.63.33-.71 1.52-1.24 1.1-2.05 2.6-1.8 3.33.8 2.3 1.54 13.5 2.55 38.34 2.03 49.97 2.02 49.85 4.18 51.55 2.5 2 2.77 4.17 2.87 22.88.04 8.49.51 16.25 1.05 17.25.57 1.07.59 1.82.05 1.82-1.25 0-1.96 4.2-1.1 6.57.38 1.06.42 2.38.08 2.93-.35.55-.63 2.58-.63 4.5 0 4.24-1.55 5.14-3.24 1.89-1.21-2.36-1.23-2.34-1.25.86 0 1.93.5 3.26 1.24 3.26.94.02.96.2.07.77-.84.54-1.23 7.2-1.34 23.24-.3 41.48-.1 50.87 1.07 53.08.9 1.67.88 1.97-.09 1.38-.96-.6-1.1 1.71-.59 10.63 1.01 17.98 1.66 21.61 3.63 20.39.47-.29 1.14-.08 1.49.48.35.57-.33 1.02-1.55 1.02-1.83 0-1.98.24-.94 1.5.68.82 1.91 1.5 2.73 1.5.94 0 1.26.58.88 1.58-.34.87-.61 1.77-.61 2 0 .23-.44.42-.97.42s-.7-.68-.4-1.5c.33-.84.04-1.5-.65-1.5-.88 0-1.05 1.09-.6 3.75.36 2.06.9 8.02 1.2 13.25.3 5.22.78 10.62 1.07 12 .56 2.59 1.3 18.39 1.65 35.15.13 6.12.57 9.44 1.2 9.06.55-.33.39.16-.36 1.08-.8.98-1.2 3.14-.95 5.18.22 1.92.11 3.62-.24 3.76-.36.15-.9 2.82-1.22 5.93-.52 5.19-.39 5.7 1.6 6.25 1.79.49 1.91.76.7 1.54-.99.63-1.73.55-2.24-.25-.93-1.46-.92-1.49-1.43 5.3-.23 3.03-.68 7.46-1 9.85-.57 4.21-.51 4.33 1.77 3.66l2.37-.7-2.25 1.65c-2.72 2-3.08 4.79-.5 3.82 1.63-.62 1.64-.56.08 1.02-1.34 1.34-1.67 3.68-1.67 11.65 0 9.1.18 10.02 2 10.6l2.01.64-2 2.15c-1.43 1.53-2.1 3.78-2.27 7.72-.13 3.06.04 6.04.4 6.61.35.58.2 2.57-.33 4.43-1.4 4.85-1.22 5.5.9 3.33 1.03-1.06 1.68-2.27 1.44-2.69-.24-.41.23-1.43 1.06-2.25 1.7-1.7 3.06-2 2.12-.47-.35.56-.85 2.21-1.11 3.68-.66 3.63-1.19 4.3-3.4 4.3-1.55 0-1.9.67-1.79 3.5.07 1.92.4 3.5.72 3.5.33 0 .66 1.13.73 2.5.08 1.37-.22 2.5-.67 2.5-.45 0-.63 4.39-.4 9.75.24 5.36.5 13.8.59 18.75.09 4.95.6 9.56 1.12 10.25.65.84.58 1.25-.21 1.25-.78 0-1.08 1.48-.88 4.25.24 3.31.7 4.22 2.04 4.11 1.23-.09 1.62.48 1.38 2-.22 1.34-.96 2.03-1.98 1.85-.93-.17-1.63.37-1.63 1.25 0 .85.38 1.54.83 1.54.46 0 .5 2.5.08 5.55-.41 3.06-.5 8.57-.2 12.25.3 3.69.51 7.49.48 8.45-.07 1.94 1.83 2.33 3.45.71.72-.72.99-.08.86 2.09-.12 1.93.36 3.34 1.25 3.68 1.08.42.77 1.12-1.32 2.91-1.5 1.3-3.12 2.36-3.59 2.36-.46 0-.84.44-.84.97s.79.7 1.75.36c1.43-.49 1.38-.31-.23.94-1.95 1.52-1.95 1.57.5 3.69 2.28 1.97 2.3 2.1.37 1.57-1.82-.5-2.2-.05-2.72 3.1-.33 2.03-.36 4.07-.06 4.54.8 1.32 2.6-.19 2.02-1.7-.28-.73.08-1.81.8-2.41 1.02-.85 1.19-.52.79 1.58-.34 1.77-.14 2.43.58 1.98.6-.37 1.65.35 2.31 1.6 1.1 2.07 1.06 2.15-.45.91-1.25-1.03-1.66-1.07-1.66-.14 0 .75-.8 1.03-2 .72-2.25-.59-2.65 1.21-.97 4.36.6 1.11.64 1.93.11 1.93-1.72 0-2.14 4.77-.67 7.61 1.04 2 1.14 3.01.35 3.5-.61.38-.82 1.44-.47 2.35.37.96 1.13 1.36 1.81.94.8-.49.97-.19.54.94-.4 1.05-.13 1.66.74 1.66.9 0 1.18.72.83 2.07-.42 1.61-1.08 1.94-2.9 1.49-1.71-.43-2.37-.18-2.37.92 0 .84.87 1.52 1.94 1.52 1.07 0 2.26.52 2.65 1.16.41.66.28.88-.3.52-1.77-1.1-4.3 2.79-4.03 6.17.14 1.75.7 3.07 1.25 2.92.54-.15.85-.68.69-1.18-.17-.5.21-1.23.85-1.62.86-.53.87-1.25.05-2.78-1.4-2.63-.24-3.37 2.78-1.75 1.97 1.05 2.09 1.36.74 1.88-.9.34-1.6 1.64-1.59 2.9.03 2.14.12 2.17 1.4.48 1.26-1.67 1.35-1.61 1.22.75-.08 1.4-.51 2.55-.96 2.55-.44 0-.53.45-.19 1s-.2 1.03-1.2 1.07c-1.7.07-1.7.11.05.8 1.64.64 1.55.85-.82 1.93l-2.66 1.21 2.18 3.06c2.15 3.02 2.15 3.06.18 3.58-1.4.37-1.84 1.11-1.49 2.49.66 2.49 3.88 2 3.44-.53-.21-1.22.09-1.56.92-1.05.87.54 1.05.26.6-.9-.35-.91-.2-1.66.32-1.66 1.94 0 .5 4.92-1.8 6.15-1.81.97-2.21 1.82-1.77 3.8l.57 2.55-1.48-2.5c-.8-1.38-1.54-2.28-1.62-2-.08.28-.26 5-.4 10.5-.13 5.5-.6 10.82-1.01 11.82-1.58 3.71 1.65 32.43 3.8 33.84.55.36 1.13 1.84 1.28 3.29.24 2.21-.03 2.54-1.65 2.03-1.1-.35-1.94-.15-1.94.45 0 .59.7 1.07 1.56 1.07.86 0 1.3.42.98.93-1.01 1.65 1.25 2.14 2.78.61 1.3-1.31 1.55-1.31 2.05-.01.38.99-.08 1.47-1.4 1.47-1.08 0-1.97.45-1.97 1s-.34.95-.75.88c-2.06-.32-3.25.27-3.25 1.62 0 .82.62 1.5 1.38 1.5.76 0 1.62.9 1.91 2 .29 1.1.04 2-.56 2-.6 0 0 1.14 1.3 2.54 2.15 2.28 2.4 3.51 2.55 12.25.27 15.64 1.4 28.23 2.85 31.7 1.4 3.36.63 6.29-1.34 5.07-1.94-1.2-10.96-1.58-11.63-.49-.43.69-1.1.65-2.04-.13-.78-.65-2.51-.88-3.93-.53-2.13.54-2.37.94-1.51 2.55a9.26 9.26 0 0 1 1.02 3.6c0 1.33-.3 1.44-1.4.52-1.08-.89-1.53-.86-1.92.13-.4.99-.54 1-.6.04-.16-2.55-2.08-1.15-2.07 1.5.02 2.16.23 2.43 1 1.25.88-1.33 1.1-1.33 1.97 0 1.18 1.8.7 3.6-.86 3.25-.61-.14-1.12.2-1.12.75s.9 1 2 1 1.89-.56 1.75-1.25c-.14-.69.31-1.14 1-1 .69.14 1.14-.26 1-.87-.42-1.88 1.9-2.08 3.66-.32 1.25 1.24 1.98 1.37 3 .52 1.7-1.42 6.06.1 6.95 2.43.96 2.49.77 4.49-.42 4.49-.58 0-.78-.45-.45-.99.35-.57-.05-.73-.93-.39-.85.32-1.35.91-1.1 1.31.24.4-.95.69-2.66.65-2.57-.07-3.16.35-3.46 2.42a7.92 7.92 0 0 1-2.46 4.25c-1.15.96-1.58 1.75-.93 1.75.64 0 .91.42.6.93-.32.51.39 1.23 1.57 1.61 1.3.41 1.71.95 1.05 1.36-.7.42-.04 1.68 1.8 3.41 1.69 1.59 3.15 2.3 3.52 1.71.35-.56 1.3-1.02 2.14-1.02 1.33 0 1.32.2-.06 1.57a5.72 5.72 0 0 0-1.57 3.42c0 1.01-.51 2.01-1.13 2.22-.74.25-.54.98.56 2.08a7.01 7.01 0 0 1 1.8 3.95 7.59 7.59 0 0 0 1.07 3.51c.62.82.56 1.25-.18 1.25-.62 0-1.12.93-1.12 2.06 0 1.3.42 1.8 1.16 1.34.82-.51.94-.02.4 1.69-.42 1.33-1.16 6.01-1.65 10.41-.5 4.4-1.12 8.6-1.4 9.32-.6 1.56.88 4.57 3.54 7.23 1.05 1.05 1.67 2.51 1.39 3.25-.29.74.51 2.45 1.77 3.79 6.71 7.18 7.68 8.66 8.27 12.72.62 4.22 3.38 8.19 5.69 8.19.64 0 .87.29.51.65-2.35 2.35 12.3 3.65 21.82 1.93 4.26-.76 15.2-1.81 20.5-1.96 2.48-.07 4.96-.43 5.52-.79.56-.37 2.47-.56 4.25-.44 1.78.12 3.23-.1 3.23-.5 0-.41 1.46-.58 3.25-.4 1.79.19 3.25.43 3.25.55 0 .12 3.83.38 8.5.58l15.54.68c3.87.18 14.67-.57 24-1.65 17.91-2.07 50.13-2.93 52.17-1.39.66.5 1.63.65 2.16.32.53-.33 1.11-.13 1.3.43.19.56 2.36 1.19 4.83 1.4 2.48.21 5.3.71 6.26 1.1.96.39 3.3.42 5.17.07 1.88-.35 3.68-.21 4 .31.66 1.06 34.57 1.02 34.57-.05 0-.36.85-.43 1.89-.16 1.03.27 2.19 0 2.56-.6.48-.78 1.25-.78 2.73.02 1.5.8 1.88.8 1.38 0-.74-1.21-.34-1.26 12.19-1.46 4.54-.08 8.25-.42 8.25-.77 0-.35 1.46-.7 3.25-.78 10.7-.46 14.48-.81 15.46-1.41 1.47-.91 6.29-.45 6.29.6 0 .46.55.5 1.22.09 1.32-.82 7.95-1.55 14.28-1.58 13.73-.05 23.57.51 24.1 1.37.34.55 1.72.73 3.05.39 1.35-.34 2.98-.28 3.63.13.66.4 5.93.82 11.7.94 5.79.11 10.75.3 11.02.42.27.12 4.33.34 9 .49l15 .47c3.58.12 8.08-.06 10-.39 6.5-1.12 14-1.34 14-.42 0 .51.56.58 1.25.15.69-.43 4.25-.85 7.9-.94 3.67-.09 7.23-.52 7.93-.95.7-.43 2.43-.9 3.84-1.05 1.42-.15 6.41-.96 11.08-1.79 17.63-3.16 31.44-4.09 47.45-3.18 3.28.19 7.02-.14 8.33-.74 1.55-.7 2.6-.73 3.04-.09.84 1.23 14.24 1.31 13.49.09-.3-.49.32-.42 1.39.15 1.23.66 3.34.71 5.81.16 2.13-.48 4.31-.61 4.83-.29 1.44.89 5.88.94 8.41.09 1.25-.41 2.25-.34 2.25.17 0 .5 2.25.72 5 .49 3.06-.25 5-.01 5 .62 0 .57.42.78.93.46.51-.31 1.22-.11 1.57.46.35.57 1.08.76 1.61.43.54-.33 1.64-.05 2.46.63.81.67 1.75.95 2.09.62.33-.34 1.56-.1 2.72.53 3.89 2.09 33.86 2.82 35.08.85.21-.33 1.99-.53 3.96-.43 1.97.09 3.58-.14 3.58-.52 0-.37.79-.72 1.75-.76.96-.04 4.68-.38 8.25-.74 6.05-.62 35.88-1.08 37-.57.41.19 7.9.74 15 1.1.83.04 7.13.08 14 .07 6.88 0 14.53.14 17 .31 2.48.16 11.48.59 20 .94 8.53.35 18.43.84 22 1.08 3.58.24 11.9.68 18.5.98 6.6.29 15.83 1.02 20.5 1.61a849.96 849.96 0 0 0 32.5 3.3c1.65.15 3.23.39 3.5.55 1.3.73 6.69.61 8.25-.17 1.13-.57 1.75-.5 1.75.19 0 .74 3.8.87 12.25.42 13.46-.72 34.03-.77 42.98-.11 3.15.24 5.48.04 5.19-.44-.3-.48-.1-.87.44-.87.53 0 1.12.43 1.31.96.2.59 1.81.62 4.2.07 2.13-.48 4.48-.64 5.21-.36 4.45 1.7 12.34-5.28 10.23-9.05-.51-.91-.79-3.12-.62-4.89.23-2.44.85-3.31 2.49-3.54 1.24-.18 2.21-1.05 2.24-2l.16-6.44c.05-2.61.52-5 1.03-5.32.51-.31.6-1.1.21-1.75-.42-.7-.03-.64.95.16 2.39 1.94 4.44 1.01 2.36-1.06a6.17 6.17 0 0 1-1.63-3.71c0-1.14-.45-2.07-1-2.07s-1-.66-1-1.47c0-.97-.59-1.25-1.75-.84-.96.35-1.43.28-1.05-.15.39-.43.05-1.43-.75-2.23a6.28 6.28 0 0 1-1.45-3.88c0-1.34-.41-2.43-.91-2.43s-.92-3.71-.93-8.25c0-4.54-.25-9.29-.54-10.56-.59-2.6.85-7.19 2.26-7.19.51 0 .7.9.41 2-.64 2.43.07 2.53 2.62.35 1.45-1.25 1.72-2.2 1.07-3.9-.47-1.23-.64-2.46-.37-2.72.26-.27-.21-.75-1.05-1.07-.91-.35-1.44-.09-1.3.63.13.66-.43 1.21-1.26 1.21-.83 0-1.33-.67-1.12-1.5.21-.82.39-2.74.41-4.25.03-1.97.56-2.75 1.85-2.75 1.11 0 1.6-.52 1.27-1.38-.39-1.02.25-1.28 2.5-1.02 2.81.33 2.96.19 2.12-2.02-.5-1.31-.82-2.54-.72-2.74.11-.2-.26.13-.81.74-.55.6-1.61.89-2.37.64-.75-.26-1.7.08-2.11.74-.54.88-.91.76-1.37-.43-.37-.96-.22-1.38.37-1.02.55.34 1.3-.2 1.68-1.2a9 9 0 0 1 2.24-3.13c1.37-1.16 1.28-1.27-.69-.85-1.49.32-2.25.01-2.25-.92 0-.78-.45-1.41-1-1.41s-1-.63-1-1.39c0-.77-.71-1.67-1.58-2-2.2-.85-5.42-.76-5.43.14-.01.41-3.81.87-8.46 1.01-7.74.23-8.55.08-9.59-1.88a14.16 14.16 0 0 1-1.38-4.25 35.26 35.26 0 0 0-.97-4.63c-.47-1.65-.4-2.04.21-1.17.59.86.74-.56.42-4-.27-2.93-.94-5.62-1.49-5.97-.54-.35-.68-1.14-.3-1.75.38-.61.27-1.11-.24-1.11-.52 0-.88-3.04-.8-6.75.07-3.71-.38-8.07-1.02-9.68-.88-2.26-.86-3.22.08-4.17 1.47-1.46.81-7.68-.72-6.73-.6.37-.74.16-.34-.49.39-.63.22-2.05-.38-3.16-.78-1.46-.77-2.02.02-2.02 1.14 0 .46-14.39-.77-16.39-.33-.54-.74-4.16-.9-8.05-.17-3.88-.54-11.56-.85-17.06-.3-5.5-.54-10.99-.54-12.2 0-1.21-.47-2.49-1.03-2.84-.67-.41-.69-1.06-.08-1.8 1.26-1.54 1.77-6.84.79-8.41-.42-.69-.49-1.7-.15-2.25.34-.55.17-1-.37-1-.55 0-.97-1.24-.95-2.75.03-1.51-.07-3.2-.22-3.75-.15-.55.08-1.82.51-2.82.46-1.04.35-2.27-.27-2.88-.74-.74-.71-1.62.12-2.96.77-1.24.84-2.15.18-2.62-1.48-1.07-1.73-3.93-.53-6.17.75-1.39.72-3.37-.08-6.76-1.17-4.92-1.66-7.7-1.81-10.23-.06-1.06-.47-.92-1.55.5-1.7 2.25-1.97.73-.53-3.05.66-1.74.66-2.42 0-2.01-.55.34-1.01.03-1.01-.69-.01-.72-.31-2.39-.66-3.72-.48-1.79-.32-2.2.62-1.62.75.46 1.64.21 2.15-.59 1.19-1.88 1.13-4.14-.09-3.39-.56.35-.73-.05-.39-.94.38-.99.03-1.55-.96-1.55-1.29 0-1.38-.51-.53-2.94.56-1.62 1.67-3.47 2.45-4.12 1.44-1.2 2.06-5.44.67-4.6-.41.25-.85-2.65-.97-6.44-.14-4.23.17-6.9.8-6.9.57 0 .76-.45.42-1-1.12-1.81-1.4-5-.44-5 .55 0 .69-1.99.33-4.75-.74-5.66-.73-6.1.15-9 .43-1.4.27-2.25-.42-2.25-.62 0-1.12-.68-1.12-1.5s.35-1.5.79-1.5c.43 0 .78-.9.78-2s-.35-2-.78-2c-1.22 0-.94-1.88.82-5.6 1.24-2.6 1.42-4.52.8-8.15-.46-2.61-.74-5.43-.64-6.25.11-.82.4-5.32.65-10s1.01-13.22 1.67-19c.67-5.78 1.31-12.13 1.42-14.12.12-1.99.52-4.12.91-4.75.38-.62.11-1.14-.61-1.15-.95-.01-.9-.28.19-.98 1.11-.71 1.15-.97.18-.98-.8-.01-1.18-.9-.98-2.27.2-1.28.94-2.12 1.72-1.95 1.06.23.99-.29-.3-2.25-1.51-2.32-1.38-2.97.57-2.69.38.05.44-.9.13-2.13a69.14 69.14 0 0 1-1.06-6.11c-.39-3.1-.22-3.72.87-3.06 1.15.69 1.15.56.04-.81-1.72-2.13-1.11-6.36.85-5.93 1.19.26 1.23.07.23-.95-1.68-1.71-1.58-2.87.26-2.87 1.36 0 1.36-.39 0-3.62-1.8-4.33-1.89-5.46-.38-5.13.61.14 1.35-.38 1.63-1.14.3-.85.06-1.12-.63-.69-.73.45-1.13-.21-1.13-1.86 0-1.41.46-2.56 1.01-2.56.82 0 .82-7.87 0-10-.89-2.31.78-17.05 2.12-18.66.61-.74.62-1.38.01-1.75-.93-.58-.73-6.8.36-11.36.3-1.25.09-3.13-.47-4.17-.69-1.3-.68-2.01.04-2.25 1.09-.36 1.26-4.24.74-16.47-.17-3.93-.02-6.97.34-6.75.35.22.91-.3 1.23-1.15.34-.88.18-1.28-.39-.93-.54.33-.99.16-.99-.39s.43-1.27.96-1.6c.56-.34.62-1.52.15-2.81-2.02-5.49-2.18-7.71-.56-7.71 1.45 0 1.45-.14.01-1.58-1.6-1.61-1.19-3.93.51-2.88.51.32.93.14.93-.4 0-.53-.51-1.14-1.14-1.35-.8-.27-.73-1.03.25-2.62 1.18-1.89 1.18-2.36.01-3.09-.76-.47-1.07-1.36-.69-1.97.38-.61.21-1.11-.37-1.11s-1.06-.44-1.06-.97.6-.74 1.33-.46c1.2.46 1.42-6.26.61-18.58-.06-.83.01-1.95.14-2.5.13-.54-.13-1.84-.58-2.89-.47-1.07-.38-3.08.2-4.62.57-1.49.66-3.37.22-4.17-1.48-2.64-1.85-6.81-.6-6.83.7 0 .57-.41-.32-.98-.82-.53-1.05-.98-.5-.99.55 0 1.07-1.02 1.15-2.26.08-1.24.36-3.15.62-4.25s.03-2.56-.52-3.25c-.66-.83-.65-1.25.02-1.25.63 0 .74-1.23.29-3.25a27.23 27.23 0 0 1-.62-5.92c.07-1.47-.14-2.51-.46-2.32-.32.2-.63-1.18-.68-3.07-.06-1.89.32-3.44.83-3.44.55 0 .51-.81-.1-1.94-.72-1.35-.71-2.14.02-2.59.62-.38.69-1.12.17-1.81-.48-.64-.97-9.23-1.07-19.09-.14-12.37-.58-18.4-1.43-19.44-.97-1.21-.96-1.36.08-.74.94.57 1.2.14.97-1.55a11.3 11.3 0 0 0-1.1-3.59c-.43-.69-.34-1.25.2-1.25 1.22 0 .06-10.68-1.43-13.1-.25-.4.03-.89.62-1.08.75-.26.75-1.18 0-3.16a12.75 12.75 0 0 1-.41-5.98c.36-1.75.59-5.2.5-7.68l-.62-19.46c-.27-8.23-.72-15.6-1.02-16.38-.3-.78-.06-2 .52-2.7.65-.78.7-1.5.12-1.87-.58-.35-.59-2.12-.04-4.58.49-2.2.68-5.91.42-8.25-.26-2.35-.71-9.21-1-15.26-.3-6.05-.75-13.7-1.02-17l-1.09-13.25c-.32-3.99-.97-7.25-1.44-7.25s-.77-2.81-.66-6.25c.17-5.96-.94-18.33-1.78-19.68-.97-1.58-2.61-28.76-2.92-48.57-.1-6.6-.52-12.53-.92-13.17-.4-.65-.79-5.04-.87-9.75-.08-4.72-.49-8.58-.92-8.58-.42 0-.41-1.24.02-2.76a9.39 9.39 0 0 0-.04-5c-.45-1.23-.5-2.24-.11-2.24.4 0 .63-5.74.51-12.75-.11-7.01-.26-12.75-.33-12.75-.17 0-.8-19.24-.95-29-.07-4.4.05-8.9.27-9.98.22-1.09.01-3.74-.47-5.9-.61-2.68-.41-6.41.63-11.94 1.07-5.64 1.21-8.4.47-9.29-.67-.81-.71-1.91-.11-3.08.51-1 1.17-3.72 1.47-6.06.44-3.5.25-4.26-1.11-4.28-1.53-.03-1.53-.13.02-1.31 1.23-.94 1.62-2.54 1.44-5.97-.14-2.58.12-4.69.56-4.69.45 0 .82-.48.82-1.06 0-.58-.37-.83-.83-.54-.46.28-.84-.14-.84-.94 0-.8.83-1.46 1.84-1.46 1.01 0 1.83-.42 1.83-.94 0-1.43-1.76-2.21-2.34-1.04-.28.57-.37.46-.21-.25.17-.7.81-1.16 1.43-1.02 1.39.31 1.42-.84.09-4.33-.82-2.15-.68-3.08.67-4.58 1.58-1.74 1.59-1.96.03-3.1-1.44-1.07-1.48-1.58-.34-3.77.73-1.39 1.12-4.22.88-6.29-.32-2.76-.09-3.68.89-3.47 1.05.23 1.31-2.49 1.24-13.21-.04-7.42-.58-14.75-1.2-16.28-1.18-2.96-.32-5.5 2.96-8.67.88-.85 2.19-3.57 2.93-6.05.73-2.48 1.74-5.04 2.24-5.7.49-.67.62-1.67.28-2.22-.35-.56.25-1.56 1.31-2.23 1.07-.66 1.75-1.72 1.51-2.34-.24-.63.45-3.11 1.53-5.53 1.08-2.41 1.74-4.75 1.47-5.19-.27-.43.02-.79.63-.79.62 0 .86-.42.54-.93-.32-.52.86-1.08 2.61-1.25 3.07-.3 5.43-2.8 2.68-2.84-2.59-.02-4.28-1.73-3.13-3.15.59-.73 1.39-2.82 1.78-4.65.39-1.82 1.34-3.56 2.11-3.85.78-.3 1.41-1.2 1.41-2s.45-1.17 1-.83c.55.34 1 .12 1-.5s.4-.87.89-.57c1.59.99 3.5-2.26 2.23-3.79-.86-1.04-.64-1.98.95-4 1.14-1.45 1.59-2.64 1-2.64-.59 0-1.07-.45-1.07-1s.55-.89 1.23-.75c1.62.33 2.23-4 .8-5.72-.79-.94-.81-1.55-.06-2.01.58-.36.8-1.08.49-1.59-.32-.51-.12-.93.45-.93.57 0 .76-.71.42-1.58-.38-1 .54-2.62 2.56-4.47 2.71-2.47 2.99-3.16 1.98-4.79a4.75 4.75 0 0 1-.45-3.78c1.26-3.2 1.57-13.52.47-15.58-.57-1.07-1.67-1.72-2.43-1.42-.77.3-1.66.1-1.99-.42-.32-.53-1.49-.96-2.59-.96-1.1 0-1.75.4-1.45.88.3.49-1.72 1.86-4.48 3.05-3.33 1.43-4.77 2.56-4.29 3.36.5.84.23.81-.87-.08-1.3-1.06-1.69-1.06-2.11 0-.39.96-.54.93-.6-.15-.06-1.15-.34-1.1-1.33.23a6.1 6.1 0 0 1-3.75 1.94c-1.37.15-2.83.72-3.23 1.27-.43.58-.75.31-.75-.62-.02-1.27-1.09-1.61-5.02-1.61-2.75 0-5 .36-5 .8 0 1.27 2.26 2.42 5 2.54 5.21.24 6 .42 6 1.36 0 .53-.75.68-1.66.33-.92-.35-1.41-.23-1.1.28.33.53-1.56.77-4.47.56-2.82-.2-4.51-.69-3.82-1.1.9-.57.81-.92-.35-1.37-.94-.36-1.48-.11-1.34.62.13.66-1 1.35-2.51 1.53-2.04.23-2.75-.12-2.75-1.38 0-1.46.23-1.5 1.69-.31 1.02.82 1.41.9.97.17-.42-.71.15-1.66 1.4-2.33 1.16-.62 1.93-1.32 1.7-1.54-.23-.23-4.65-.65-9.84-.94-5.18-.29-13.92-.96-19.42-1.48-14.97-1.43-42.88-1.24-77 .53-3.85.2-11.05.32-16 .26-4.95-.06-15.75-.05-24 0-14.26.12-24.61.09-29-.07-1.1-.04-8.52.29-16.5.74-7.97.44-23.72.9-35 1-11.27.1-22.58.53-25.12.95-2.54.42-6.82.84-9.5.92-4.57.15-4.88 0-4.91-2.34-.02-1.38.28-2.73.67-3 1.04-.76 1.47-2.5.62-2.5-1.04 0-5.66-8.83-5.1-9.75.25-.41-.02-.75-.6-.75s-.97-.34-.86-.75c.11-.41-1.17-3.45-2.84-6.75a68.4 68.4 0 0 1-4.35-11c-.72-2.75-1.69-5.43-2.16-5.95-.47-.52-.85-2.21-.85-3.75s-.48-2.8-1.06-2.8c-.58 0-.85-.34-.59-.76s-.22-1.66-1.06-2.75c-1.5-1.94-1.52-1.93-.97.4.41 1.72.26 2.1-.51 1.32-.6-.6-1.23-2.95-1.4-5.24-.21-2.82-1.13-4.96-2.86-6.7-1.4-1.4-2.55-2.96-2.55-3.46 0-.51-.56-.6-1.25-.2-.69.39-.93.36-.54-.08.88-.97-1.61-5.93-4.33-8.65-1.11-1.11-2.17-2.78-2.35-3.7-.18-.93-1.94-4.83-3.92-8.68-1.98-3.85-3.6-7.93-3.6-9.08-.01-1.14-1.13-3.13-2.51-4.42-1.37-1.3-2.5-2.94-2.5-3.67s-.5-1.33-1.11-1.33c-.61 0-.84-.68-.53-1.5.32-.82.13-1.5-.43-1.5-.55 0-1.82-1.92-2.83-4.26-1-2.35-2.56-4.88-3.46-5.63a4.88 4.88 0 0 1-1.64-3.23c0-1.03-.45-1.88-1-1.88s-1-.7-1-1.55c0-1.45-10.51-18.34-12.11-19.46-.4-.28-1.94-2.92-3.42-5.87-1.49-2.95-3.55-5.59-4.58-5.86a2.62 2.62 0 0 1-1.89-2.37c0-2-6.91-12.89-8.18-12.89-.42 0-.52-.63-.22-1.4.29-.76-.37-2.03-1.47-2.8-2.07-1.45-7.53-9.09-10.12-14.16-.81-1.58-2.59-3.29-3.95-3.8-1.85-.71-2.15-1.17-1.16-1.78.73-.45.94-.99.46-1.19-.47-.2-2.1-2.28-3.61-4.62a1237.6 1237.6 0 0 0-5.25-8.05c-1.37-2.1-2.5-4.27-2.5-4.84 0-.57-2.61-4.83-5.79-9.45a260 260 0 0 1-8.56-13.18c-1.62-2.81-3.21-4.5-3.86-4.1-.63.39-.82.22-.44-.38.93-1.51-.31-4.25-1.93-4.25-.85 0-1.12-.62-.73-1.65.39-1-.08-2.16-1.22-3-1.02-.74-1.56-1.35-1.2-1.35.35 0-.71-3.02-2.36-6.7a389.68 389.68 0 0 1-5.61-13.26 324 324 0 0 0-8.83-19.04 494.4 494.4 0 0 1-9.45-20c-1.77-4.13-3.85-8-4.62-8.61-.77-.61-1.4-1.54-1.4-2.07 0-.53-1.52-4.53-3.37-8.9a8553.6 8553.6 0 0 1-7.15-16.88c-6.77-16.04-9.69-21.01-12.48-21.28-1.42-.14-3.69.74-5.25 2.04Zm-16.54 71.72c-2.32 4.83-4.21 9.28-4.21 9.89 0 .6-.45 1.09-1 1.09s-1 .47-1 1.05c0 .57-.9 2.9-2 5.19-1.1 2.27-2 4.61-2 5.2-.01.58-.64 2.27-1.41 3.74a27.9 27.9 0 0 0-2.08 5.76c-.37 1.7-1.2 3.66-1.84 4.37-1.8 1.97-4.67 7.68-4.67 9.27 0 .78-.41 1.42-.92 1.42s-1.46 1.69-2.11 3.75a32.58 32.58 0 0 1-2.7 6.15c-.83 1.32-3.64 6.6-6.24 11.74-2.6 5.13-5.05 9-5.46 8.6-.4-.4-.6-.29-.43.26.4 1.32-4.94 12.09-6.74 13.58A4.34 4.34 0 0 0 909 275c0 .96-.6 2.26-1.35 2.87-.74.62-2.16 2.94-3.16 5.16-1.09 2.4-2.11 3.58-2.53 2.91-.42-.68-1.12.07-1.75 1.88-.57 1.66-.78 3.27-.46 3.6.32.32.17.58-.33.58s-1 1.23-1.08 2.72c-.09 1.5-.65 2.88-1.25 3.08-.6.2-1.09 1-1.09 1.75 0 2.14-4.73 11.98-6.43 13.4-.84.69-1.81 2.9-2.17 4.9-.37 2-.97 4.1-1.35 4.65-.38.55-2.22 4.6-4.08 9-1.86 4.4-3.96 8.36-4.68 8.8-.7.44-1.29 1.66-1.29 2.7 0 2.1-1.77 6.65-3.49 9-.6.82-1.7 3.3-2.44 5.5-.75 2.2-1.85 4.32-2.46 4.71-.61.4-1.15 1.07-1.2 1.5-.21 2.13-1.8 6.93-2.62 7.98-.51.66-1.47 1.07-2.11.91-.65-.15-.88-.1-.52.12.36.21.45 2.2.2 4.43-.33 2.76-1.32 4.77-3.13 6.33-2.4 2.06-2.52 2.47-1.2 4.1 1.32 1.61 1.3 1.73-.28 1.14-.96-.36-1.75-.2-1.75.37 0 .57-.56.69-1.25.28-.99-.6-1-.44-.03.75.92 1.14.94 2.37.09 5.15-.62 2.01-1.5 3.42-1.97 3.13-.46-.28-1.3.74-1.87 2.29-.57 1.55-1.32 3.49-1.66 4.31-.35.82-.71 1.73-.81 2-.92 2.67-1.86 3.9-2.63 3.42-.5-.31-.86-.2-.78.26a6.84 6.84 0 0 1-1.95 6.18 11.55 11.55 0 0 0-2.52 4.54c-.38 1.47-1.09 2.43-1.58 2.12-.5-.3-1.05.7-1.22 2.21-.2 1.65-.93 2.77-1.82 2.77-.83 0-1.56.9-1.64 2-.17 2.6-3.3 9.65-7.15 16.16-1.68 2.84-2.79 5.43-2.47 5.75.33.32-.16.59-1.07.59-.92 0-1.67.67-1.67 1.49s-.68 2.28-1.5 3.25c-.84.97-1.47 2.16-1.42 2.65.05.49-.3 1.16-.78 1.5-.48.34-3.23 4.18-6.1 8.54-3.8 5.74-4.9 8.14-4 8.7.69.42 1.5.36 1.8-.14.32-.5 3.51-.85 7.1-.78 3.6.07 7.05-.18 7.66-.56.6-.38 1.39-.22 1.74.35.35.57 1.05.78 1.55.47 1.62-1 7.95-1.29 7.95-.36 0 .49.48.89 1.06.89.58 0 .85-.34.6-.75-.26-.41 2.19-.75 5.44-.75 3.24 0 5.9.34 5.9.75 0 1.17 2.79.88 3.2-.33.24-.74 1.26-.67 3.25.24 2.13.97 3 1.01 3.27.16.26-.75 1.32-.88 3.1-.37 1.48.42 4.22.55 6.08.28 2.25-.33 3.16-.14 2.72.57-.45.74.27.8 2.36.2 1.66-.47 3.02-.51 3.02-.08 0 .8 29.47.45 41-.49 3.58-.29 14.94-.59 25.25-.66 10.31-.08 18.75-.4 18.75-.7 0-.32 3.38-.6 7.5-.63 4.13-.03 7.5.26 7.5.65 0 .4 5.58.64 12.4.56 6.83-.08 12.2.19 11.95.6-.26.41 0 .75.6.75.57 0 1.05-.34 1.05-.76 0-1.12 16.82-1.35 17.51-.23.34.55 3.62.71 7.79.38 3.96-.32 9.21-.11 11.68.46 2.46.57 4.71.72 5 .32.28-.4 3.64-.74 7.45-.77 3.81-.03 6.06.25 5 .62-1.05.37 4.16.48 11.58.25 15.73-.5 25.57-.43 28.88.21a7.4 7.4 0 0 0 4.18-.52c1.08-.57 2.04-.6 2.37-.05.31.5 1.68.8 3.04.64 1.36-.15 2.2.16 1.88.68-.48.78 11.61.54 13.64-.27.28-.1.95-.1 1.5.04.55.13 3.45.17 6.45.08 5.39-.14 7.72-.94 5.3-1.8a2.03 2.03 0 0 1-1.25-1.79c0-.73-1.12-2.67-2.5-4.3-1.37-1.64-2.5-3.37-2.5-3.84 0-1.15-4.9-10.44-6.51-12.35-.69-.82-2.98-4.81-5.09-8.86-2.1-4.05-4.4-7.59-5.11-7.86a2.18 2.18 0 0 1-1.29-1.89c0-.76-.79-1.4-1.75-1.4-1.37-.02-1.45-.2-.39-.88 1.06-.68.56-1.72-2.25-4.7-1.98-2.1-3.62-4.52-3.64-5.37-.04-2-2.48-5.2-3.32-4.36-.36.36-.65-.1-.65-1.04 0-.92-1.14-2.2-2.53-2.84-1.4-.63-2.43-1.86-2.3-2.73.48-3.18-1.4-7.6-4.35-10.23-1.67-1.49-2.84-3.3-2.6-4 .24-.72-1-2.66-2.75-4.32-1.76-1.66-3.51-4.04-3.9-5.28-.39-1.25-1.13-2.01-1.64-1.7-.77.48-1.35-.91-.76-1.79.09-.14-.45-1.38-1.21-2.75-.76-1.38-1.28-3-1.16-3.61.12-.61-1.31-2.78-3.17-4.82-2.15-2.35-3.23-4.4-2.92-5.56.3-1.17-.27-2.24-1.57-2.94-2.31-1.23-5.63-7.47-4.74-8.9.32-.52-.36-1.19-1.51-1.49-1.15-.3-1.82-.99-1.48-1.53.33-.54.08-1.15-.56-1.37-.64-.21-1.32-1.4-1.51-2.66a7.91 7.91 0 0 0-1.84-3.77c-.83-.82-1.5-2.14-1.5-2.92 0-.79-.62-1.43-1.39-1.43-.76 0-1.33-.56-1.26-1.25.18-1.74-6.83-15.08-8.77-16.68-.87-.72-1.58-1.94-1.58-2.7 0-.75-.44-1.37-.99-1.37-.54 0-1.49-2.02-2.11-4.5-.66-2.62-1.72-4.5-2.52-4.5-.76 0-1.38-.67-1.38-1.49 0-1.37-1.57-3.7-4.75-7.05-.69-.72-1.25-1.6-1.25-1.95 0-.34.56-.34 1.25 0 .69.36.23-.26-1.02-1.36s-2.15-2.4-2-2.89c.15-.48-1.05-2.55-2.67-4.59-1.62-2.04-3.06-4.46-3.19-5.38-.33-2.23-4.51-10.29-5.34-10.29-.36 0-1.27-1.57-2.03-3.5-.75-1.93-1.74-3.5-2.19-3.5-.44 0-.81-.9-.81-2s-.38-2-.84-2c-.46 0-1.43-1.8-2.16-4-.73-2.2-1.62-4-2-4-.37 0-1.51-2.46-2.53-5.47-1.03-3-2.09-5.25-2.36-4.97-.28.28-3.33-5.2-6.79-12.15-3.45-6.95-7.42-13.78-8.8-15.16-1.39-1.39-2.52-3.03-2.52-3.65 0-.61-1.13-2.33-2.5-3.82-1.38-1.48-2.5-3.09-2.5-3.58 0-.48-1.34-3.31-2.98-6.29a76 76 0 0 1-4.59-10.17c-.88-2.62-1.98-4.52-2.45-4.23-.47.3-.66-.54-.43-1.84.27-1.47-.27-3-1.41-4.05a4.3 4.3 0 0 1-1.38-4.15c.27-1.43 0-2.47-.64-2.47-.62 0-1.12-.63-1.12-1.4 0-.76-.58-1.6-1.29-1.88-.84-.32-2.77 2.6-5.5 8.3ZM895.5 227c-.34.55-.17 1 .38 1s1.28-.45 1.62-1c.34-.55.17-1-.38-1s-1.28.45-1.62 1Zm-2.83 3.67c-.37.36-.67 1.54-.67 2.62 0 1.62.25 1.74 1.5.71.83-.69 1.5-1.87 1.5-2.62 0-1.46-1.22-1.83-2.33-.71Zm-4.42 13.89c-1.7 1.84-1.59 2.96.15 1.52 1.08-.89 1.5-.87 1.82.08.28.86.62.9 1.09.15 1.1-1.78-1.6-3.33-3.06-1.75Zm-30.27 55.4c.6 1.12 1.52 2.04 2.05 2.04 1.64 0 1.07-1.45-1.09-2.8-1.9-1.2-1.98-1.13-.96.75Zm-21.73 39.76c-.69.25-1.25.82-1.25 1.27 0 1.05 2.38.75 2.83-.35.46-1.12-.1-1.45-1.58-.92ZM818 376.5c0 .82.18 1.5.4 1.5.2 0 .64-.68.96-1.5.32-.82.14-1.5-.4-1.5-.52 0-.96.68-.96 1.5Zm-7.25 12.26c-3 .66-1.92 1.92 1.25 1.45 1.65-.24 3-.56 3-.72 0-.64-2.63-1.1-4.25-.73Zm-2.28 6.2c.46.74.21 1.63-.6 2.14-1.08.69-1 .87.38.88 1.96.02 2.38-2.48.6-3.58-.76-.46-.89-.27-.38.56Zm-4.83 6.54c-.32.82-.14 1.5.4 1.5.52 0 .96-.68.96-1.5s-.18-1.5-.4-1.5c-.2 0-.64.68-.96 1.5Zm25.78 2.89c-.83.89-1.61 4.61-.98 4.61.07 0 .84-.85 1.72-1.88 1.79-2.08 1.07-4.69-.74-2.73ZM799.5 410c.34.55.82 1 1.06 1 .24 0 .44-.45.44-1s-.48-1-1.06-1c-.58 0-.78.45-.44 1Zm-16 38c.34.55.82 1 1.06 1 .24 0 .44-.45.44-1s-.48-1-1.06-1c-.58 0-.78.45-.44 1Zm25.5 9.97c0 .53.67.7 1.5.4.83-.32 1.5-.76 1.5-.98 0-.21-.67-.39-1.5-.39s-1.5.44-1.5.97Zm-9 2.03a1 1 0 0 0 1 1 1 1 0 0 0 1-1 1 1 0 0 0-1-1 1 1 0 0 0-1 1Zm-1.74 3.49c-.68.77-2.87 4.37-4.87 8-3.55 6.47-3.92 9.03-.95 6.56 2.02-1.67 6.76-10.25 5.25-9.5-.65.33-.48 0 .39-.73 1.63-1.36 3.24-5.85 2.08-5.78-.37.02-1.22.67-1.9 1.44Zm8.34 2.11c-.36.93-.42 1.91-.15 2.19.28.27.8-.26 1.15-1.19.36-.93.42-1.91.15-2.19-.28-.27-.8.26-1.15 1.19Zm-5.53 6.03c-2.36 3-2.64 4.94-.82 5.63.7.27 2.03-1.04 3.01-2.96.97-1.89 1.23-3.1.58-2.7-.8.5-.97.2-.54-.94.92-2.38.15-2.05-2.23.97Zm363.59 1.92c.3.8.96 1.45 1.45 1.45 1.44 0 1.02-1.74-.56-2.34-.97-.37-1.26-.08-.89.9ZM1169 476c0 .55.68 1 1.5 1 .83 0 1.5-.45 1.5-1s-.67-1-1.5-1c-.82 0-1.5.45-1.5 1Zm198.75-.25c-2.61.2-4.75.81-4.75 1.37 0 .58-.91.73-2.12.34-1.4-.44-1.9-.3-1.47.4.7 1.13 10.83.9 13.76-.32.92-.38 2.66-.17 3.86.48 1.41.75 2.53.82 3.15.2.62-.62-.04-1.2-1.86-1.64-4.73-1.13-5.65-1.2-10.57-.83Zm17.75 1.43c-1.65 1.12-2.1 1.7-1 1.3 1.1-.4 2.56-.74 3.25-.77.69-.02 1.25-.64 1.25-1.38 0-1.6.19-1.65-3.5.85Zm7.31-.5c.72.3 1.59.26 1.92-.08.33-.33-.26-.56-1.31-.52-1.17.05-1.4.28-.61.6Zm-39.06 1c-.96.26-1.75.9-1.75 1.43 0 .6.65.61 1.75.02a8.22 8.22 0 0 1 2.58-.95c.46 0 1.1-.28 1.42-.6.65-.64-1.31-.6-4 .1Zm70.25.15c0 .45-1.35.63-3 .38-1.65-.24-3-.05-3 .43 0 .74 2.92.92 7.81.48.72-.07 1.03-.57.69-1.12-.75-1.2-2.5-1.33-2.5-.17Zm-163 1.13c0 1.07 2.63 2.08 3.4 1.3 1.12-1.11.61-1.83-1.4-1.99-1.1-.08-2 .23-2 .69Zm24.53-.01c-.37.6-1.09.82-1.6.5-.51-.3-.93-.1-.93.5 0 1.29 1.02 1.32 2.97.09.81-.51 1.19-1.21.85-1.55-.34-.34-.92-.14-1.29.46Zm-71.46 1.63c.65.78 2.13 1.4 3.3 1.39 2.1-.03 2.1-.05.13-1.21-3.09-1.82-4.88-1.92-3.43-.18Zm7.37 0c-1.84 1.5-1.84 1.55-.06.98a3.85 3.85 0 0 1 3.25.55c1 .83 1.37.83 1.37.01 0-.62-.56-1.15-1.25-1.19-.69-.04-.35-.46.75-.93 1.98-.85 1.98-.86-.06-.93a7.15 7.15 0 0 0-4 1.51Zm9.56-.08c-.77.93-.06 1.23 2.97 1.23 4.29 0 4.63-1.2.55-1.97-1.38-.26-2.96.07-3.52.74Zm21.03-.54c-.81.51-1.21 1.2-.89 1.51.32.32 1.14-.1 1.84-.95 1.44-1.73 1.17-1.9-.95-.56ZM555 481c0 .55.48 1 1.06 1 .58 0 .78-.45.44-1s-.82-1-1.06-1c-.24 0-.44.45-.44 1Zm648 0a1 1 0 0 0 1 1 1 1 0 0 0 1-1 1 1 0 0 0-1-1 1 1 0 0 0-1 1Zm45 0a1 1 0 0 0 1 1 1 1 0 0 0 1-1 1 1 0 0 0-1-1 1 1 0 0 0-1 1Zm-70.47.96c-.33.52-1.25.7-2.06.39-.81-.31-1.47-.07-1.47.54 0 1.67 3.7 1.33 4.36-.39.64-1.67.09-2.03-.83-.54Zm257.8 1.34c0 .71 1.04 1.3 2.31 1.3 1.26 0 2.52-.59 2.8-1.3.34-.88-.42-1.3-2.3-1.3-1.64 0-2.81.54-2.81 1.3Zm-65.69 1.2c-.25.65-1.85 1.1-3.55 1-1.7-.1-3.09.22-3.09.71 0 .5 2.28.7 5.06.49 5.82-.47 8.48-2.17 4.56-2.92-1.44-.28-2.72.03-2.98.71Zm16.86-.5c2.76 1.19 4.5 1.19 4.5 0 0-.55-1.46-.97-3.25-.93-2.72.06-2.93.21-1.25.93Zm19.5 0c0 .55.48 1 1.06 1 .58 0 .78-.45.44-1s-.82-1-1.06-1c-.24 0-.44.45-.44 1Zm15.54-.06c-.43.7 1.3 1.06 5.07 1.06 3.15 0 5.41-.31 5.03-.69-1.18-1.18-9.42-1.48-10.1-.37ZM1331 487c-1.21.78-1.07.97.75.99 1.24 0 2.25-.44 2.25-.99 0-1.25-1.06-1.25-3 0Zm18-.6c0 .94 2.99 1.42 3.53.56.32-.53-.34-.96-1.47-.96s-2.06.18-2.06.4Zm-770 1.54c0 .52.45 1.22 1 1.56.55.34 1-.08 1-.94s-.45-1.56-1-1.56-1 .42-1 .94Zm612.33.46c0 .78.6 1.18 1.33.9.73-.28 1.08-.91.78-1.4-.85-1.37-2.11-1.07-2.11.5Zm12.48-.72c.72.3 1.59.26 1.92-.08.33-.33-.26-.56-1.31-.52-1.17.05-1.4.28-.61.6Zm24.19.04c-3.46.62-4.53 1.9-2.12 2.54 1.23.32 2.67-.21 3.72-1.37.94-1.04 1.53-1.83 1.31-1.75-.23.07-1.53.33-2.91.58Zm31-.33c0 .22.7.66 1.55 1 .89.33 1.29.17.94-.4-.58-.95-2.49-1.4-2.49-.6Zm43 .61c.83.53 1.95.97 2.5.97s.33-.44-.5-.97a5.98 5.98 0 0 0-2.5-.97c-.55 0-.32.44.5.97Zm-717.13 1.75c-1.24 1.59-1.2 1.62.38.38 1.67-1.3 2.2-2.13 1.37-2.13-.2 0-1 .79-1.75 1.75Zm588.88-1.06c-.96.25-1.75.83-1.75 1.29 0 .46.9.6 2 .31s2-.92 2-1.4c0-.5-.11-.84-.25-.77-.14.06-1.04.32-2 .57Zm35.25.31c0 .55 1.01 1 2.25.99 1.82-.02 1.96-.2.75-.99-1.94-1.25-3-1.25-3 0Zm24 .1c0 .5.9.9 2 .9s2-.17 2-.38-.9-.62-2-.91c-1.1-.29-2-.11-2 .38Zm6.34.16c-.62 1 7.36.37 8.4-.66.39-.4-1.23-.6-3.58-.45-2.36.14-4.53.64-4.82 1.1Zm10.29-.05c.27.44 1.14.79 1.93.79s1.44-.35 1.44-.79c0-.43-.87-.78-1.93-.78s-1.7.35-1.44.78Zm16.18.47c.72.3 1.59.26 1.92-.08.33-.33-.26-.56-1.31-.52-1.17.05-1.4.28-.61.6ZM618 491.4c0 .22.7.66 1.55 1 .9.33 1.3.17.94-.4-.58-.95-2.49-1.4-2.49-.6Zm812.67 3.33c-2.15.33-2.68.83-2.19 2.1.49 1.29.36 1.4-.54.5-1.41-1.39-3.77-.7-6.23 1.84-1.96 2.01-3.71 2.41-3.71.84 0-1.43-1.62-1.24-3.24.38-1.57 1.57-13.95 2.74-15.95 1.5-1.05-.64-1.03-1.04.1-2.09.76-.7 1.13-.82.81-.25-.36.65 1.2 1.02 4.25 1 2.68-.02 4.58-.45 4.27-.96-.31-.5.18-.63 1.1-.28.91.35 1.66.25 1.66-.22 0-.46-.9-1.08-2-1.37-1.1-.29-1.76-.14-1.47.34.61.98-5.65.61-7.34-.44-.62-.37-2.11.31-3.33 1.53-1.58 1.58-2.03 1.74-1.56.53.42-1.1.13-1.67-.83-1.67-.81 0-1.36.5-1.22 1.11.14.62-.79 1.3-2.06 1.5-1.27.22-2.1.06-1.85-.36.26-.41-.58-.81-1.87-.89-2.31-.14-3.99 1.99-2.93 3.7.52.84-2.31 1.78-5.54 1.84-.82.02-3.07.27-5 .56-18.66 2.8-25.14 3.55-27.38 3.15-1.44-.26-2.62-.1-2.62.35 0 .46-1.01.83-2.25.83l-23.75.07c-26.42.08-32.29-.23-32.78-1.7-.21-.64-1.05-1.16-1.86-1.16s-1.2.44-.87.99c.35.56-.05.73-.94.4-.85-.34-1.55-.09-1.55.54 0 .8-.55.85-1.87.14-1.03-.55-2.13-.74-2.45-.42-.32.33-1.76.3-3.19-.06-1.93-.49-2.46-1.12-2.03-2.46.51-1.6-.02-1.78-4.69-1.58-9.43.4-9.25.37-8.1 1.52 1.34 1.34 6.33 1.96 6.33.8 0-.48 1.18-.87 2.62-.87 2.07 0 2.39.28 1.52 1.33-.68.82-2.91 1.25-5.87 1.13-6.31-.25-6.27-.24-6.27-1.9 0-.8-.43-1.7-.96-2.03-1.25-.78-6.14 3.5-5.39 4.71.77 1.25-6.94.56-7.84-.7-.38-.54-.16-1.65.5-2.47.65-.82-.21-.51-1.92.69-2.75 1.93-3.32 2-5 .74-2.23-1.7-5.39-1.95-5.39-.44 0 .58-.42.8-.93.48-.51-.31-1.21-.12-1.56.44-.38.62.87 1.05 3.18 1.09 2.94.05 3.35.25 1.81.87-1.1.43-2.9.5-4 .15s-4.7-.54-8-.42c-3.3.13-7.24-.17-8.75-.67-1.77-.58-2.75-.54-2.75.11 0 .56-.5.7-1.11.32-.61-.38-3.39-.63-6.17-.57-2.78.06-5.65-.39-6.38-1-.99-.81-1.34-.8-1.34.07 0 .8-1.77 1.09-5.51.88-4.21-.23-5.64-.71-6.07-2.06-.35-1.1-1.54-1.74-3.24-1.72-2.57.03-2.6.1-.74 1.5 1.07.8 2.31 1.47 2.75 1.47.45 0 .81.34.81.75 0 .42-3.15.87-7 1.01-4.2.15-7-.15-7-.75 0-.56-.67-1.01-1.5-1.01-.82 0-1.5.68-1.5 1.5s-.87 1.5-1.94 1.5c-1.07 0-2.22.45-2.56 1-.93 1.5-8.55 1.28-8.25-.25.14-.69.7-1.59 1.25-2 1.38-1.04-2.66-.4-4.43.7-1.18.74-1.1 1.03.5 1.65 1.53.6 1.29.77-1.19.83-5.37.12-9.18-1.05-9.68-2.96-.32-1.25-.04-1.65.91-1.29.77.3 1.39.92 1.39 1.4 0 .47.71.59 1.57.26 1.92-.74.8-1.88-2.67-2.7-3.25-.75-4.13.06-2.79 2.56.94 1.76.73 1.9-2.29 1.62-2.33-.22-3.22-.77-3-1.82.26-1.2.07-1.25-.95-.25a5.01 5.01 0 0 1-3.04 1.25c-1.46 0-1.62-.43-.87-2.39.81-2.14.59-2.45-2.15-3-5.14-1.03-5.97-.79-5.63 1.64.25 1.73.9 2.2 2.82 2.02 2.22-.21 2.27-.14.5.62-1.1.47-2.37.64-2.82.38-.46-.26-6.19-.46-12.75-.44-8.24.02-11.93-.31-11.93-1.1 0-.8-.34-.79-1.2.07-1.44 1.44-5.44 1.59-6.28.24-.37-.6-1.5-.62-2.99-.05-1.44.55-3.67.54-5.6-.01-1.77-.5-3.65-.65-4.19-.32-.54.33-8.91.78-18.61 1-9.7.22-18.22.61-18.93.86-.72.25-1.03.02-.7-.52.36-.59-.99-.82-3.45-.58-2.26.22-3.8 0-3.49-.52.89-1.43-.27-1.04-1.99.67-.86.87-1.57 1.1-1.57.53 0-.71-.82-.74-2.56-.08-3.42 1.3-3.76 1.25-3.08-.52.68-1.77-2.45-2.06-5.36-.5-1.32.7-2.09.66-2.59-.15-.44-.7-.28-.89.4-.47.62.39 1.66-.15 2.3-1.2 1.08-1.72 1.43-1.76 4.1-.43 3.09 1.55 4.93.99 3.02-.92-1.3-1.3-20.56-2.26-26.93-1.33-2.95.43-4.38 1.19-4.82 2.55-.34 1.07-1.02 1.95-1.52 1.95-.54 0-.55-.95-.02-2.34.86-2.28.73-2.34-5.03-2.55-4.29-.16-5.91.14-5.92 1.09-.02 1.01-.21 1-.9-.08-1.08-1.71-3.42-.43-2.69 1.48.3.77-.01 1.4-.68 1.41-.77.01-.67.38.28.99.94.6 1.05.98.28.99-.66 0-1.7-.89-2.28-1.99-.8-1.48-.76-2 .13-2 .66 0 .9-.3.55-.66-1.2-1.19-11.77-1.51-13.11-.4-.96.8-1.64.68-2.58-.45-.82-.98-2.03-1.3-3.38-.87-3.1.99-5.77 1.07-8.78.27-1.48-.39-2.94-.44-3.26-.12-.73.73-10.54.6-11.29-.15-.3-.3-1.34-.12-2.3.4-.98.52-5.53 1.04-10.13 1.15-5.35.13-9.07.72-10.35 1.64-1.57 1.13-1.62 1.3-.25.84 1.14-.38 1.75-.08 1.75.88 0 2.1-1.77 1.81-3.23-.53-1.06-1.7-2.33-2-8.51-2-5.9 0-7.26.29-7.26 1.56 0 .86-.46 1.27-1.02.93-.56-.35-.75-1.05-.44-1.56.91-1.47-2.84-1.02-4.98.6-2.2 1.67-1.35 1.96 1.4.49 1.36-.72 1.99-.6 2.39.45.38.99.03 1.27-1.15.91-.94-.28-.58.17.8 1.01 2.47 1.52 2.44 1.54-2.3 1.57-3.59.03-4.63-.28-4.09-1.21.4-.69-.17-.46-1.27.5-2.1 1.85-6.9 2.46-5.84.75.34-.55-.05-1-.86-1-.8 0-1.65.53-1.87 1.18-.21.64-.9.86-1.53.47-2.43-1.5-.14-3.55 3.45-3.09 1.94.25 3.82.64 4.18.86.37.23 1.14-.6 1.72-1.84.82-1.73.76-2.25-.26-2.25-.73 0-1.33.6-1.33 1.35 0 1.04-.4 1.09-1.82.2-1.44-.9-2.83-.66-6.75 1.15-2.71 1.25-5.27 2.21-5.68 2.13-.41-.09-.75.27-.75.8s-2.04.93-4.53.88c-3.79-.08-4.44-.37-3.98-1.8.35-1.1 0-1.7-.98-1.7-.83 0-1.51.82-1.51 1.83 0 1-.48 1.83-1.06 1.83-.58 0-.78-.45-.44-1s.13-1-.48-1c-.76 0-.78-.57-.08-1.89.85-1.58.61-1.96-1.48-2.36-1.88-.36-2.42-.08-2.22 1.14.18 1.12-.64 1.71-2.7 1.95l-2.98.34 2.47-2.06c2.33-1.94 2.36-2.06.42-2.09a5.13 5.13 0 0 0-3.25 1.17c-.93.93-1.47.93-2.4 0-.66-.66-1.63-1.2-2.17-1.2-.53 0-.67.3-.3.66.36.36.2 1.2-.36 1.88-.72.87-.57 1.4.5 1.81.84.32 1.53.15 1.53-.38s.52-.97 1.17-.97c.64 0 .87.3.5.66-.36.36-.15 1.26.46 2 1.44 1.73-1.17 1.9-2.89.18-.87-.87-1.5-.87-2.58.03-1.7 1.41-7.38 1.17-7.36-.32.06-4.48-.23-4.79-3.9-4.1-2.7.5-3.4.37-2.84-.54.49-.8.33-.96-.45-.48-.93.58-.9 1.1.1 2.32 1.13 1.38 1.04 1.45-.71.59-2.6-1.3-10.5-1.75-10.5-.62 0 .49.56 1.49 1.25 2.23.84.9.87 1.13.07.68-.65-.36-1.47-.2-1.82.37-.73 1.18-2.5.39-2.5-1.12 0-.55.45-.72 1-.38.55.34 1 .17 1-.38 0-2-2.17-2.28-3.64-.47-.83 1.02-1.28 1.38-1 .81.3-.62-1.28-1.1-3.93-1.22-3.2-.14-4.43.19-4.43 1.19 0 .89-.71 1.2-2 .86-1.35-.35-2-.03-2 1 0 1.9-5.2 3.83-7.1 2.62-.77-.48-1.17-.92-.9-.97 3.4-.63 4.27-.88 4.77-1.38.33-.33.08-1.11-.55-1.74-1.62-1.62-7.22-1.44-8.27.26-.72 1.16-1.13 1.06-2.34-.58-1.34-1.82-1.53-1.85-2.13-.3-.92 2.38.16 3.7 2.52 3.09 1.1-.29 2-.05 2 .52 0 1.44-3.46 1.82-10 1.1a95.32 95.32 0 0 0-12.25-.28c-5.3.25-6.75.02-6.75-1.1 0-.77.45-1.69 1-2.03 1.28-.8 1.3-3.5.03-3.5-.53 0-.68.75-.32 1.67.48 1.26.23 1.52-1 1.05-2.1-.8-3.23.95-1.77 2.7.84 1.02.72 1.5-.5 1.96-2.4.92-2.71.77-2.05-.95.33-.87-.07-2.25-.9-3.08-1.32-1.33-1.5-1.12-1.52 1.83-.03 3.14-.12 3.21-1.5 1.38-1.23-1.63-1.47-1.68-1.47-.31 0 2.25-2.03 3.3-3.11 1.63-.75-1.17-1.03-1.17-1.79.02a2.17 2.17 0 0 1-2.5.78c-.88-.34-1.6-.18-1.6.35 0 1.27-4.73 1.26-5.17 0-.2-.6-1.88-.46-4.33.35-4.15 1.38-12.88 1.05-11.96-.44.29-.47-.73-.2-2.26.6-3.69 1.92-5.28 1.84-5.3-.29 0-1.12-.28-1.34-.75-.61-.8 1.25-8.33 3.6-9.09 2.83-.26-.26.13-.47.86-.47s1.04-.29.7-.64c-.36-.36-1.35-.07-2.2.64-2.1 1.74-2.99.63-1.05-1.31 2.06-2.06 1.96-3.26-.29-3.26-1.33 0-1.81.7-1.75 2.53.08 2.12-.32 2.5-2.34 2.27-1.33-.15-2.77.28-3.18.94-.5.83-4.25 1.23-11.72 1.27-6.03.03-10.76.4-10.51.81.25.41-.24.75-1.1.75-.86 0-1.62-.45-1.68-1l-.25-1.92c-.07-.5-.54-1.29-1.04-1.75-.53-.48-.6-.3-.2.42.4.69.25 1.25-.33 1.25-.58 0-1.06.48-1.06 1.06 0 .58.52.74 1.15.35.65-.4.89-.28.55.27-.69 1.1-3.61 1.1-5.4 0a1.35 1.35 0 0 0-1.86.41c-.49.8-.95.73-1.57-.23-.73-1.14-1.01-1.14-1.76.02-.94 1.46-3.52.6-2.61-.88.3-.47.07-1.15-.5-1.5-.55-.34-1.3.11-1.64 1.02-.39 1-1.36 1.45-2.5 1.15-1.02-.26-1.86-.05-1.86.48s-.53.64-1.19.24c-.65-.4-3.53-.63-6.4-.5-2.86.14-5.48-.2-5.82-.75-.34-.54-1.95-.82-3.58-.62-1.68.22-3.58-.23-4.37-1.02-.77-.77-1.75-1.09-2.18-.7-.43.38-.5-.09-.15-1.05.35-.96.53-1.75.4-1.75-.12 0-1.63-.4-3.35-.9-2.85-.82-3.09-.7-2.73 1.25.22 1.18.13 1.59-.2.9-.74-1.55-2.52-1.66-2.18-.13.14.62-.25 1.32-.87 1.54-.7.27-.98-.6-.73-2.37.38-2.7.35-2.71-.78-.54-.65 1.24-1.58 2.25-2.08 2.25s-.7-.35-.43-.77c.26-.42-.62-1.28-1.95-1.9-1.35-.64-2.41-.73-2.41-.2 0 .51.67 1.2 1.5 1.5 2.87 1.11 1.55 2.64-1.75 2.04-6.6-1.2-9.13-1.79-10.04-2.35-.51-.32-2.62-.7-4.7-.86l-3.75-.28.96 4.16c1.65 7.15 1.74 7.32 2.9 5.63.75-1.1.84-.87.34.9-.42 1.49-.3 2.15.33 1.76.96-.6 2.7 3.75 2.38 5.91-.1.58 1.07 2.52 2.58 4.33l2.75 3.28 6.75-.9c3.71-.5 6.75-.6 6.75-.21 0 .77 8.62.32 9.99-.53.48-.3 1.14-.1 1.48.44.33.54 1.83.75 3.32.47 1.49-.28 4.96-.01 7.71.6 2.75.6 5.9 1.18 7 1.29 1.1.1 2.34.64 2.75 1.19.47.63 1.12.44 1.74-.5.83-1.28.98-1.24 1 .29 0 1.46.8 1.76 4.26 1.65 5.53-.18 17.05.75 22.75 1.83 3.81.73 21.05.79 50 .18 3.58-.08 17.02-.05 29.88.05 15.29.13 23.6-.16 24.02-.84.36-.57 2.02-1 3.7-.95 3.34.1 19-2.1 21.4-3 .83-.3 3.06-.72 4.96-.92 1.9-.2 3.7-.74 4-1.2.3-.48 2.56-.94 5.04-1.04 13.52-.54 20.82-.96 23.5-1.33 1.65-.24 3.34.07 3.75.68.53.77 1.01.7 1.63-.26.63-.98 2-1.17 4.9-.68 5.52.93 17.33.96 19.5.05.98-.41 3.09-.49 4.68-.17 1.6.32 3.04.19 3.22-.3.18-.49 2.22-.53 4.6-.09 2.34.43 4.48.43 4.75 0 .28-.44 1.8-.43 3.4.03 1.6.46 3.21.54 3.57.18.36-.35 9.96-.73 21.33-.83 13.97-.13 23.43-.7 29.17-1.78 4.67-.88 10.52-1.83 13-2.12a46.6 46.6 0 0 0 6.5-1.16c1.1-.36 3.01-.53 4.25-.38 1.24.14 2.25-.14 2.25-.62s1.55-.87 3.43-.87c1.9 0 3.22.36 2.95.8-.28.44-.05.8.5.8s1.3-.48 1.66-1.07c.37-.59 2.55-.95 4.85-.81 2.3.14 4.7-.06 5.33-.45.63-.39 1.39-.3 1.69.18.3.49 1.63.67 2.95.42 1.33-.25 3.4.06 4.6.7 1.6.86 2.52.88 3.51.05.88-.73 1.57-.77 1.97-.12.34.55 2.51 1 4.84 1 8.03 0 13.97 1.01 15.84 2.7 1.03.94 1.88 1.36 1.88.93 0-.42.67-.22 1.5.47.82.68 2.39 1 3.5.71 1.1-.29 1.75-.12 1.44.38-.31.5-.19.93.25.96 7.86.54 10.32 1 13.01 2.39 1.76.9 4.12 1.83 5.25 2.05 1.13.22 2.58.72 3.23 1.12 1.2.74 6.72 2.01 12.71 2.93 1.86.28 3.74.73 4.18 1 .44.27 1.07.04 1.42-.52.38-.62 3.14-.78 7.07-.41 3.54.32 6.44.21 6.44-.26s2.12-.99 4.71-1.15c2.6-.17 5.29-.78 5.99-1.37.7-.58 2.82-.87 4.72-.65 1.89.22 3.25.1 3.01-.29-.23-.38 1.21-.69 3.2-.69 2 0 3.97-.56 4.39-1.24.47-.75 1.74-.99 3.29-.6 1.39.35 2.67.19 2.86-.36.65-1.97 39.1-4.19 41.95-2.42.42.25 4.5.68 9.07.95a321 321 0 0 1 22.81 1.97c6.76.87 30 1.1 30 .3 0-.39 4.61-.76 10.25-.82 9.93-.13 15.72-.44 16.75-.9 1.64-.75 5.28-1.27 11-1.57 3.58-.19 6.73-.42 7-.53.28-.1 8.83-.35 19-.54 20.19-.38 35.79-1.17 37.75-1.9.69-.26 1.25-.09 1.25.39 0 .47 1.13.8 2.5.71 1.37-.07 2.5-.53 2.5-1 0-.48 1.14-.66 2.52-.4 1.39.27 2.75.13 3.03-.32.27-.44 3.3-.67 6.72-.5 4.01.2 7.26-.22 9.11-1.15 1.58-.8 3.93-1.25 5.22-1 1.29.24 2.13.1 1.87-.31-.25-.42 3.92-.64 9.28-.5 5.36.15 9.75.37 9.75.48 0 .43 32.69.54 33.12.11.25-.25 4.77-.56 10.06-.7 11.45-.3 12.32-.56 12.32-3.74 0-1.34.56-2.67 1.25-2.95.92-.37.89-.52-.12-.58-1.11-.07-1.13-.37-.13-1.58 1.18-1.42 1.11-2.51-.48-7-.52-1.46-.44-1.63.27-.62 1.14 1.6 3.21.67 3.21-1.44 0-1.72-.1-1.73-3.67-.38l-2.8 1.07 2.41-2.56c1.32-1.42 1.85-2.57 1.18-2.57-.68 0-.96-.45-.62-1 .99-1.6 2.31-1.16 3 1 .86 2.7 1.89 2.51 3.58-.66 1.11-2.08 1.15-2.76.17-3.09-1.3-.43-1.71-3.45-.63-4.54.35-.34 1.4.33 2.34 1.49 1.4 1.73 1.71 1.81 1.71.45 0-.9-.38-1.65-.84-1.65-.45 0-.83-.42-.83-.94s.91-.77 2.03-.56c1.11.22 1.76-.03 1.44-.55-.32-.52.11-.95.97-.95s1.56-.45 1.56-1c0-1-2-1.07-7.33-.28Zm-824.34 2.77c-.93.99-.65 1.26 1.27 1.26 1.34 0 2.72-.46 3.07-1.03.39-.63.14-.72-.63-.25-.7.43-1.55.33-1.9-.23-.41-.66-1.05-.57-1.81.25Zm6.25 1.16c-.58 1.52 2.13 1.82 4.26.47.99-.62.66-.98-1.2-1.34-1.58-.3-2.74.03-3.06.87Zm767.16.95c-.96.95.35 3.4 1.81 3.4.73 0 1.26-.9 1.18-2-.15-1.92-1.74-2.66-2.99-1.4Zm-10.99 1.15c-.96.22-1.75 1.09-1.75 1.93 0 1 .56 1.32 1.63.91a3.19 3.19 0 0 1 2.88.42c.91.75 1.43.6 1.87-.55.33-.87 1.06-1.3 1.61-.96.56.34 1.01.17 1.01-.38 0-1.58-1.78-2.27-2.25-.88-.31.92-.81.97-1.84.19-.77-.59-2.2-.9-3.16-.68ZM1362 502c0 1.25 1.06 1.25 3 0 1.21-.78 1.07-.97-.75-.99-1.24 0-2.25.44-2.25.99Zm15 0a1 1 0 0 0 1 1 1 1 0 0 0 1-1 1 1 0 0 0-1-1 1 1 0 0 0-1 1Zm48 0c0 .55.68 1 1.5 1 .83 0 1.5-.45 1.5-1s-.67-1-1.5-1c-.82 0-1.5.45-1.5 1Zm-385 3.1c0 .97 2.69 1.88 3.4 1.16 1.13-1.13.6-1.83-1.4-1.83-1.1 0-2 .3-2 .68Zm146.92-.85c-.75 2.46-.52 3.53.68 3.07 1.59-.6 1.92-3.32.4-3.32-.55 0-1.03.11-1.08.25Zm49.58.75c-.34.55-.14 1 .44 1 .58 0 1.06-.45 1.06-1s-.2-1-.44-1-.72.45-1.06 1Zm-287.25 1.43c-2.29 1.06-3.12 3.57-1.2 3.57.6 0 .74-.53.35-1.17-.5-.8-.18-.96.99-.51.94.36 1.46.25 1.15-.26-.31-.5.23-1.07 1.2-1.26.97-.19 1.31-.59.76-.88-.55-.3-2.01-.07-3.25.5Zm119.75-.37c0 .58.45.78 1 .44s1-.82 1-1.06c0-.24-.45-.44-1-.44s-1 .48-1 1.06Zm45.5-.06c-.34.55-.14 1 .44 1 .58 0 1.06-.45 1.06-1s-.2-1-.44-1-.72.45-1.06 1Zm103 0c.34.55 1.07 1 1.62 1s.72-.45.38-1c-.34-.55-1.07-1-1.62-1s-.72.45-.38 1Zm82.5.06c0 .58.47.77 1.04.41.58-.35 1.82-.04 2.75.7 1.54 1.2 1.57 1.16.34-.42-1.51-1.93-4.13-2.36-4.13-.7Zm38.51-.07c-.72 1.17 2.66 2.24 3.72 1.18.54-.54.06-1.12-1.16-1.44-1.14-.3-2.29-.18-2.56.26Zm-511.12 1.2c1 .56 2.18.63 2.65.16.48-.47-.33-.92-1.8-1-2.29-.14-2.4-.02-.85.85ZM858 507c0 .55.48 1 1.06 1 .58 0 .78-.45.44-1s-.82-1-1.06-1c-.24 0-.44.45-.44 1Zm86.27 1.07c-.08 1.06.28 1.93.8 1.93 1.13 0 1.25-2.69.14-3.37-.44-.27-.86.38-.94 1.44Zm276.73-1.19c0 .49 1.08 1.1 2.41 1.35 1.72.33 2.26.08 1.89-.89-.56-1.47-4.3-1.87-4.3-.46Zm31.5.12c-.34.55.08 1 .94 1s1.56-.45 1.56-1-.42-1-.94-1-1.22.45-1.56 1Zm22.07-.1c-.31.49.52.82 1.84.74 1.32-.07 2.19-.48 1.94-.89-.64-1.04-3.11-.94-3.78.14Zm-410.57.93c0 .46.67.84 1.5.84s1.5-.38 1.5-.84c0-.45-.67-.83-1.5-.83s-1.5.38-1.5.83Zm67.64.67c-.4 1.04.07 1.5 1.51 1.5 1.75 0 1.89-.25.85-1.5a6.49 6.49 0 0 0-1.51-1.5c-.15 0-.53.68-.85 1.5Zm63.36-1.1c0 .2.67.65 1.5.96.83.32 1.5.14 1.5-.4 0-.52-.67-.96-1.5-.96s-1.5.18-1.5.4Zm8.08 1.18c.05 1.17.28 1.4.6.6.29-.71.26-1.58-.08-1.9-.33-.34-.56.25-.52 1.3Zm-243.38.76c-.87 2.25.62 3.3 4.55 3.23 3.87-.07 5.2-2.07 1.39-2.07-1.18 0-2.5-.56-2.94-1.25-1.04-1.63-2.36-1.6-3 .1Zm26.8-.34c-.34.55-.14 1 .44 1 .58 0 1.06-.45 1.06-1s-.2-1-.44-1-.72.45-1.06 1Zm154 0c-.34.55-.17 1 .38 1s1.28-.45 1.62-1c.34-.55.17-1-.38-1s-1.28.45-1.62 1Zm12-.01c-.34.56.06.73.95.4 1.73-.67 2.05-1.39.6-1.39-.5 0-1.2.44-1.54.99Zm8.77-.3c.97.26 2.32.24 3-.03.68-.28-.12-.49-1.77-.47-1.65.02-2.2.25-1.23.5Zm7.73.31a1 1 0 0 0 1 1 1 1 0 0 0 1-1 1 1 0 0 0-1-1 1 1 0 0 0-1 1Zm10 0c0 .55.67 1 1.5 1s1.5-.45 1.5-1-.67-1-1.5-1-1.5.45-1.5 1Zm12.81-.32c.72.3 1.59.26 1.92-.08.33-.33-.26-.56-1.31-.52-1.17.05-1.4.28-.6.6Zm-181.78 1.87c-.02 1.7.67 2.1 4.06 2.3 4.12.24 4.72-1.14.92-2.14-1.1-.29-1.76-.11-1.45.38.3.5.1.91-.45.91-.56 0-1.47-.79-2.03-1.75-.93-1.6-1.02-1.57-1.05.3Zm17.78-.87c.72.3 1.59.26 1.92-.08.33-.33-.26-.56-1.31-.52-1.17.05-1.4.28-.6.6ZM845 511c0 .55.48 1 1.06 1 .58 0 .78-.45.44-1s-.82-1-1.06-1c-.24 0-.44.45-.44 1Zm46.67-.33a2.75 2.75 0 0 0-.67 1.7c0 .62.47.56 1.18-.15.65-.65.95-1.42.67-1.7-.28-.29-.82-.22-1.18.15ZM842 512a1 1 0 0 0 1 1 1 1 0 0 0 1-1 1 1 0 0 0-1-1 1 1 0 0 0-1 1Zm-280 1.5c0 .83.38 1.5.83 1.5.46 0 .84-.67.84-1.5s-.38-1.5-.84-1.5c-.46 0-.83.67-.83 1.5Zm26-.5c-1.28.83-1.25.97.25.99.96 0 1.75.46 1.75 1.01s.67 1 1.5 1c2 0 1.93-2.62-.08-3.4-1.93-.73-1.61-.77-3.42.4Zm135.64.5c.32.83.96 1.5 1.44 1.5.47 0 .6-.67.28-1.5-.32-.83-.96-1.5-1.44-1.5-.47 0-.6.67-.28 1.5Zm5.06.17c.28.73.64 1.33.8 1.33.16 0 .52-.6.8-1.33.28-.74-.08-1.34-.8-1.34-.72 0-1.08.6-.8 1.34ZM706 514c0 .55.48 1 1.06 1 .58 0 .78-.45.44-1s-.82-1-1.06-1c-.24 0-.44.45-.44 1Zm12 .06c0 .58-.56.74-1.25.35-.91-.51-.96-.39-.17.48 1.21 1.31 4.72.41 3.85-1-.76-1.23-2.43-1.12-2.43.17Zm75-.67c0 .22.67.65 1.5.97.83.32 1.5.14 1.5-.4 0-.52-.67-.96-1.5-.96s-1.5.18-1.5.4Zm627.5.61c.34.55.82 1 1.06 1 .24 0 .44-.45.44-1s-.48-1-1.06-1c-.58 0-.78.45-.44 1ZM569 515c1.26.82 1.2.97-.36.99-1.28 0-1.66.5-1.25 1.6.34.86.62 2.1.63 2.74 0 .67.42.53.98-.33.83-1.28.97-1.25.99.25 0 .96-.47 1.75-1.05 1.75-.58 0-.78.46-.43 1.02.35.56 1 .78 1.45.5.46-.28 1.12.24 1.47 1.16.35.91.12 1.98-.5 2.37-.68.41-.86 1.6-.45 2.9.39 1.21.96 1.95 1.27 1.63.31-.3 1.16-.07 1.9.54 1.92 1.6 3.02-1.81 1.42-4.39-.86-1.37-.92-2.2-.2-2.65.73-.45.66-1.44-.23-3.14-.7-1.37-1.12-3-.91-3.62.4-1.18-3.42-4.33-5.2-4.3-.57 0-.36.45.47.98Zm103.02.96c-.84 1.58-.66 2.16.98 3.04 1.12.6 1.95.73 1.86.3-.33-1.5 1.35-4.29 2.25-3.73.49.3.89.07.89-.51 0-.58-.67-1.06-1.5-1.06s-1.5.7-1.5 1.56c0 .86-.46 1.28-1.02.93s-.75-1.05-.44-1.56c.32-.51.34-.93.05-.93-.28 0-1 .88-1.57 1.96ZM709 515a1 1 0 0 0 1 1 1 1 0 0 0 1-1 1 1 0 0 0-1-1 1 1 0 0 0-1 1Zm-92.76 1.16c-.68.68-1.24 1.57-1.24 1.97 0 .88 4.8.48 5.5-.47.28-.36.2-.44-.15-.18-.36.27-1.15-.2-1.76-1.03-.89-1.21-1.37-1.27-2.35-.29Zm14.63-.63c-.06.26-.18.88-.25 1.39-.26 1.91-1.62 2.33-1.65.5-.04-1.63-.25-1.54-1.42.58-1.69 3.04-1.5 3.28 1.86 2.43 3.25-.81 5.26-3.96 3.07-4.8-.81-.31-1.54-.36-1.6-.1Zm31.57 1.13c-.83 1.33-1.43 1.42-3.17.48-2.32-1.24-3.61-.31-2.37 1.7.47.76 2.2 1.09 4.47.84 4.55-.5 5.44-1.3 3.55-3.18-1.27-1.28-1.58-1.26-2.48.16Zm3.8.34c1.45 2.33 2.76 2.6 2.76.58 0-.78.56-1.64 1.25-1.92.69-.27-.22-.54-2-.58-3.02-.07-3.17.07-2.02 1.92Zm-19.67-.11c-.3.48.23 1.5 1.2 2.25 1.53 1.2 1.59 1.17.49-.23-.68-.88-.95-1.89-.59-2.25.37-.36.39-.66.06-.66-.34 0-.86.4-1.16.89Zm4.43.17c0 .58.45.78 1 .44s1-.82 1-1.06c0-.24-.45-.44-1-.44s-1 .48-1 1.06Zm-28.36 1.44c.32.83.96 1.5 1.44 1.5.47 0 .6-.67.28-1.5-.32-.83-.96-1.5-1.44-1.5-.47 0-.6.67-.28 1.5Zm13.36.44c0 .52.45 1.22.99 1.55.56.35.73-.05.4-.94-.67-1.73-1.39-2.05-1.39-.6Zm783.46 1c.32.5.12 1.2-.44 1.55-1.54.95-1.22 2.52.39 1.9.85-.32 1.57.2 1.79 1.29.33 1.55.47 1.49 1-.43.4-1.48.24-2.02-.46-1.59-.67.42-.85.07-.47-.91.35-.93-.01-1.82-.88-2.16-.82-.31-1.24-.15-.93.35ZM568.33 540.5c0 .72.6 1.08 1.34.8.73-.28 1.33-.64 1.33-.8 0-.16-.6-.52-1.33-.8-.74-.28-1.34.08-1.34.8Zm856.09 12.83c.32 1 .58 2.25.58 2.75s.45.92 1 .92c1.45 0 1.23-1.34-.58-3.56-1.45-1.78-1.53-1.78-1-.1Zm-6.98 1.2c1.81 1.37 1.66 1.47-2.17 1.47-2.35 0-4.32-.53-4.61-1.25-.3-.75-.53-.56-.58.48-.08 1.78-3.97 3.33-6.29 2.5-.71-.25-2.14-.02-3.19.52-1.59.82-1.81.67-1.38-.97.32-1.23 0-1.95-.86-1.95-.75 0-1.36.5-1.36 1.12 0 1.88-4.28 1.58-7.86-.53-2.76-1.63-3.27-1.7-2.78-.42.53 1.36-.48 1.55-7.46 1.4-5.86-.12-8.21-.55-8.6-1.56-.45-1.19-.71-1.18-1.67.04-.67.86-3.66 1.66-7.36 1.96-3.43.29-6.62.76-7.1 1.05-.47.3-3.74.8-7.26 1.11-3.53.32-7.67.72-9.21.88-1.95.21-2.64-.08-2.3-.99.31-.8-.04-1.08-.94-.73-.8.3-1.2.95-.89 1.45.3.49-.63.89-2.07.89s-2.37-.4-2.06-.9c.58-.94-1.63-2.1-3.99-2.1-.82 0-1.15.61-.81 1.5.32.83.08 1.5-.53 1.5s-1.11-.5-1.11-1.12c0-.75-.52-.7-1.58.18-1.3 1.09-1.73 1.07-2.48-.12-.65-1.02-.91-1.07-.92-.18-.02 1.29-5.12.92-7.44-.52-1.69-1.07-3.65-1.16-3.03-.15.31.5-.1.91-.91.91s-1.64-.51-1.85-1.14c-.28-.82-.96-.77-2.45.16-1.14.71-2.7 1.06-3.46.76a9.3 9.3 0 0 0-2.27-.57c-.49-.02-1.23-.6-1.66-1.29-.45-.73-2.38-1.15-4.61-1.01-5.27.33-5.3.32-10.05-.23-2.94-.33-4.57-.04-5.41.97-.97 1.17-1.37 1.2-2.04.15-.63-.98-1.03-1-1.6-.13-.42.65-2.11 1.33-3.75 1.5-2.22.25-2.92-.06-2.73-1.17.23-1.26.07-1.25-1 .09-1.32 1.66-6.76 3.18-6.76 1.89 0-.41-.9-.98-2-1.27-1.1-.29-2-.09-2 .45s-.9.69-2 .34c-1.34-.42-2.21-.11-2.61.93-.33.86-1.48 1.57-2.56 1.57-1.07 0-1.7-.4-1.4-.89.3-.48-.33-1.11-1.41-1.4-1.07-.28-1.85-.05-1.74.5.12.56-.78 1.18-1.99 1.4l-3 .5c-2.27.37-4.33-.23-3.79-1.11.66-1.07-1.78-.83-4.83.49-2.93 1.26-12.06.96-11.24-.38.3-.48-.37-1.12-1.5-1.42-1.69-.44-1.84-.28-.85.91.98 1.18.9 1.33-.44.82-.9-.35-1.64-1.04-1.64-1.53s-.7-.89-1.56-.89c-.93 0-1.27.47-.83 1.17.48.79.17.96-.95.53-.91-.35-1.66-.15-1.66.44 0 .69-1 .81-2.75.34-1.51-.4-3.31-.75-4-.77-.69-.03-1.25-.64-1.25-1.38 0-1.56-1.61-1.77-2.5-.33-.88 1.42-3.54 1.23-6.84-.5-1.96-1.02-3.39-1.18-4.62-.52-1.01.54-3.03.6-4.66.15-1.58-.44-5.57-.9-8.87-1.03-3.81-.14-6.63-.8-7.75-1.82-1.61-1.46-1.76-1.45-1.76.06 0 1.63-3.12 1.87-4.64.35-1.09-1.08-4.55-.8-3.86.31.34.55.03 1.04-.69 1.08l-4.31.34c-1.65.14-3.52-.14-4.16-.63-.7-.53-1.42-.47-1.81.16-.98 1.6-2.82 1.25-2.19-.4.37-.97.08-1.26-.88-.9-.8.31-1.23.91-.97 1.34.27.43-2.09 1.08-5.25 1.44-3.16.36-7.65.9-9.99 1.22-2.8.38-4.25.2-4.25-.54 0-.6-.66-1.11-1.47-1.11-.94 0-1.24.58-.85 1.62.53 1.37-.02 1.56-3.52 1.22-2.28-.21-4.26-.04-4.4.38-.14.43-2.52.97-5.28 1.2-2.76.24-5.68.57-6.5.75-.81.18-1.39-.17-1.28-.77.12-.67-.8-.91-2.34-.62-1.86.36-2.18.72-1.2 1.34 1 .63.83.86-.66.9-1.1.03-4.43.25-7.4.47-2.97.23-6.19 0-7.15-.52-1.23-.66-1.9-.54-2.27.42-.32.84-1.59 1.2-3.35.95a61.99 61.99 0 0 0-6.56-.43c-2.05-.02-3.99-.46-4.31-.98-.32-.51-1.66-.67-2.97-.34-1.31.33-4.09.03-6.19-.67-2.09-.7-5.01-1.2-6.48-1.09-1.48.1-2.97-.27-3.32-.84-.35-.56-1.05-.77-1.56-.45-.5.3-.67-.09-.36-.89.68-1.77-1.17-3.13-2.14-1.56-.49.8-.94.73-1.55-.23-.66-1.04-.86-.92-.87.51-.02 1.59-.53 1.78-3.27 1.23-1.79-.35-3.36-.97-3.5-1.37-.14-.4-2.28-.64-4.77-.54-2.49.1-4.28-.2-3.98-.68.29-.48.12-1.13-.38-1.43-.5-.32-1.18.12-1.5.97-.39 1-1.88 1.53-4.35 1.53-11.62-.03-19.27.53-19.28 1.42-.01.55-.46.33-1-.5-.85-1.29-1.12-1.3-1.9-.08-.56.87-3.02 1.55-6.26 1.73-9.88.56-10.83.71-10.85 1.78 0 .59-.4.46-.87-.29-.6-.94-1.07-1.02-1.54-.25-.38.61-2.15 1.11-3.93 1.11-1.78 0-3.68.44-4.22.98-.54.54-3.66 1.22-6.95 1.52-8.49.77-9.84 1-11.3 1.9-.7.43-2.36.52-3.67.19-1.3-.33-2.66-.15-3 .4-.34.56-1.1 1.01-1.68 1.01-.63 0-.5-.68.3-1.67 1.2-1.46 1.02-1.45-1.37.11-1.51.98-2.76 1.4-2.76.92-.01-.47-.41-.24-.9.52a1.53 1.53 0 0 1-2.73-1.38c.75-1.95-4.74-1.27-6.86.86-.97.96-2.41 1.5-3.21 1.2-.8-.3-1.92-.56-2.5-.56-.62 0-.54-.6.21-1.5.8-.96.86-1.5.17-1.5-.59 0-1.43.62-1.87 1.37-.44.75-1.88 1.7-3.2 2.11-1.95.6-2.29.45-1.8-.83.34-.87.18-1.85-.34-2.18-.53-.32-.96.11-.96.97 0 1.47-1.53 2.01-5 1.77-.83-.05-3.98-.19-7-.3-3.02-.11-6.06-.64-6.75-1.18-.84-.65-1.25-.6-1.25.15 0 1.53-3.71 1.42-4.34-.13-.4-.97-.7-.98-1.36-.05-1.01 1.42-17.35 2.43-21.24 1.32-1.74-.5-3.02-.29-3.89.64-.7.76-1.75 1.1-2.3.76-.97-.6-15.94-.55-22.62.08-2.26.2-3.25-.12-3.25-1.1 0-1.95-1.26-1.75-3.2.52-1.35 1.58-2.58 1.84-6.97 1.45a51.1 51.1 0 0 1-6.58-.9c-.69-.22-1.25.08-1.25.67 0 .59-.67.82-1.5.5-.83-.32-1.5-.16-1.5.34 0 .51-1.44.74-3.2.52-1.77-.22-3.7 0-4.3.5-.69.57-2.1.4-3.73-.45-1.45-.75-2.92-1.06-3.28-.7-.36.36-.96.67-1.32.68-.37.02-1.68.6-2.92 1.3-2.08 1.14-2.68.87-2.37-1.1.07-.4-.66-.33-1.63.2-2.65 1.43-8.38 3.09-7.88 2.28.24-.4-1.09-.74-2.95-.78-2.69-.06-3.15.19-2.27 1.25.82 1 .73 1.32-.38 1.32-.8 0-1.92-1.01-2.47-2.25l-1-2.25-.72 2.25c-.8 2.5-3.58 3.1-3.58.75 0-1.8-.48-1.85-3.21-.39-1.67.9-2.26.8-2.99-.5-1.05-1.88-3.37-2.12-4.4-.46-.43.72-.27.89.43.45.73-.45.94-.17.58.78-.69 1.79-3.41 1-3.41-.99 0-1.86-1.91-1.78-2.64.11-.68 1.77-3.48 2.05-3.11.3.14-.64-.54-1.35-1.5-1.56-1.16-.26-1.76.23-1.78 1.44-.03 1.73-.1 1.73-1.36.07-1.63-2.14-3.03-2.3-2.25-.25.43 1.13-.17 1.5-2.45 1.5-3.12 0-3.22-1.94-.1-2.07 1.36-.06 1.3-.22-.3-.85-1.38-.54-2.4-.28-3.23.82-.67.88-1.23 1.09-1.25.47-.02-.63-.9-1.36-1.95-1.64-1.46-.38-1.79-.1-1.36 1.13.47 1.34.32 1.4-.77.39-1.61-1.5-3.33-1.67-2.45-.25.34.55-.26 1-1.33 1-1.08 0-2.22-.68-2.53-1.5-.67-1.73-2.45-1.6-4.51.32-1.18 1.1-1.58 1.1-2.35 0-.73-1.03-1.04-1.05-1.44-.07-.28.69-.95 1.25-1.48 1.25-.54 0-.7-.56-.35-1.25s0-.46-.8.5c-1.78 2.18-4.88 2.37-4.07.25.5-1.32.25-1.32-2.28 0-3.22 1.67-7.36 1.99-7.36.56 0-.52.9-.77 1.98-.56 1.09.2 2.2.01 2.48-.43.28-.45-2.64-.88-6.48-.96-5.51-.12-6.98.16-6.98 1.31 0 .8-.4 1.72-.91 2.02-1.43.89-4.26-.57-3.74-1.92.76-1.97-16.03-1.99-18-.02-.83.84-1.88 1.29-2.34 1-.46-.28-2.63-.58-4.83-.66-2.8-.11-3.85-.55-3.5-1.45.3-.76-.25-1.25-1.34-1.22-1.01.04-4.6-.21-7.98-.56-5.29-.55-6.23-.4-6.82 1.13-.64 1.67-.72 1.67-1.66.01-1.26-2.26-5.88-2.36-5.88-.13 0 1.33-.27 1.4-1.5.38-1.15-.96-1.83-.97-2.91-.07-.98.81-1.61.84-2.07.1a1.27 1.27 0 0 0-1.74-.4c-.61.38-.8.22-.44-.36.37-.62-.7-1.25-2.6-1.53-1.78-.27-3.53-.03-3.88.52-.35.55-1.14.69-1.75.3-.61-.37-1.11-.28-1.11.2 0 .5-2.03.81-4.5.7-3.7-.14-4.3.07-3.38 1.18.76.92.78 1.36.06 1.36-.58 0-1.38-.52-1.77-1.15-.5-.81-1.08-.66-1.94.52-.96 1.3-1.77 1.47-3.74.72-1.39-.53-2.87-.65-3.29-.28-.42.38-.46.16-.08-.5.37-.64.23-1.45-.31-1.78-.55-.34-1.3.6-1.67 2.09-.49 1.94-.2 3.03 1 3.92 1.25.91 1.35 1.35.4 1.71-1.12.43-1.36 2.63-.9 8.3.07.96.6 1.29 1.37.85.69-.4.93-.36.53.07-.39.44-.22 1.7.37 2.81.91 1.7.82 1.92-.59 1.38-1.04-.4-1.42-.24-1 .43.85 1.38 1.45 5.8 1.93 14.16.33 5.62.13 6.75-1.17 6.75-1.12 0-1.28.36-.57 1.25.55.69.95 2.94.88 5-.07 2.06.32 3.94.87 4.17.56.24.34.94-.5 1.58-1.17.9-1.22 1.27-.2 1.67 1.05.43 1.05.82 0 2.12-.85 1.04-.89 1.35-.12.88.82-.48 1.16.24 1.1 2.31-.05 1.66-.37 3.02-.73 3.02-.35 0-.67 3.49-.7 7.75-.13 16.19-1.2 24.62-3.31 26.24-2 1.53-2.48 6.02-.61 5.7.9-.17 1.1 2.2.7 8.37-.07 1.13-.5 1.83-.96 1.55-.86-.53-.71 10.22.2 14.14.36 1.57.06 2.25-.99 2.25-.82 0-1.2.48-.84 1.06.36.59-.18 2-1.2 3.15-1.8 2.04-1.8 2.06.22 1 1.9-1 2.08-.77 2.29 2.86.13 2.16-.2 3.93-.72 3.93s-.7.9-.42 2.01c.43 1.62.17 1.88-1.25 1.34-1.07-.42-1.54-.3-1.18.3.34.54.88 5 1.22 9.92.34 4.91 1 11.85 1.49 15.43.48 3.58 1.18 12.58 1.55 20 .57 11.4.96 13.73 2.51 15 1.8 1.46 3.47 11.15 2.15 12.47-1.14 1.13-.83 4.46.45 4.95.75.29 1.05 1.21.7 2.13-.5 1.3-.8 1.35-1.47.28-1.17-1.84-1.08 9.02.15 17.49.96 6.69 2.32 24 2.23 28.42-.03 1.24.36 2 .86 1.69 1.22-.76 2.86 3.81 1.82 5.1-.97 1.21-.76 3.37.53 5.43 1.33 2.13 1.43 8.04.13 8.05-.7.01-.74.28-.1.75 1.32.97 1.68 2.64 2 9.24.14 3.02.54 9.77.89 15s.84 13.68 1.09 18.8c.25 5.1.7 9.68 1 10.16.29.48.15 1.02-.32 1.2-.46.19-1.13 1.83-1.49 3.64-.35 1.82-.25 3.06.23 2.76.48-.3 1.07.8 1.32 2.45.24 1.64.05 2.99-.43 2.99-.47 0-.34.97.29 2.15 1 1.88.91 2.08-.76 1.64-1.68-.43-1.93.14-2.13 4.87-.15 3.56.32 6.19 1.38 7.8 1.71 2.62.97 5.9-.76 3.4-.6-.87-.72 2.45-.31 9.14.42 7 1.09 10.85 2 11.55 1.12.88 1.1 1.21-.11 2-1.2.78-1.3 2.2-.55 7.95.74 5.71.95 6.26 1.15 3 .14-2.2.2-4.67.16-5.5-.05-.83.52-.16 1.27 1.47.94 2.04 1.07 3.73.45 5.38a8.07 8.07 0 0 0-.25 4.52c.83 2.63 1.07 9.63.33 9.63-.3 0-1.18-.56-1.95-1.25-1.12-1-1.1-.84.05.75a21.8 21.8 0 0 0 2.95 3.25c1.32 1.1 1.28 1.42-.31 2.65-1.15.89-1.42 1.65-.75 2.06 1.58.98 1.28 2.56-.36 1.93-1.58-.6-1.51.58.27 4.92 1.54 3.77 1.45 4.18-.54 2.56-1.48-1.21-1.6-1.15-1 .46.38 1.01.69 2.02.69 2.25 0 .23.84.42 1.86.42 1.45 0 1.76.56 1.38 2.52-.45 2.34-.58 2.4-1.78.76-.71-.98-1.57-1.51-1.9-1.18-.32.33.34 1.78 1.48 3.22a14.56 14.56 0 0 1 2.52 4.9c1.13 5.69 1.22 8.78.24 8.78-.71 0-.72.4-.03 1.25.56.69.94 3.84.84 7-.1 3.16.14 5.75.53 5.75.38 0 .59 2.36.46 5.25-.14 2.89.18 5.81.7 6.5.63.84.53 1.25-.3 1.25-.84 0-.93.4-.28 1.25.53.69.92 5.52.86 10.75-.05 5.22.2 10.96.56 12.75.41 2.08.26 3.25-.44 3.25-.8 0-.8.31 0 1.1.7.7.8 2.14.27 3.99-.47 1.65-.43 3.12.09 3.45.5.31.75 2 .55 3.76-.2 1.76.03 4.21.5 5.45.52 1.39.46 2.25-.15 2.25-.57 0-.74 1.18-.39 2.75l1.07 4.75c.41 1.82.35 1.84-.64.25-1.54-2.45-3.36-2.29-2.04.18 2.66 4.96 2.99 6.98 1.4 8.56-1.28 1.29-1.33 1.84-.27 3.11.93 1.14.98 1.74.15 2.25-.74.46-.81 1.22-.2 2.18 1.3 2.07 1.2 5.24-.14 4.41-.76-.47-.75-.02.05 1.47.63 1.18 1.14 4.5 1.12 7.37a414 414 0 0 0 .33 14.45c.2 5.08.05 9.05-.32 8.82-.37-.23-1.31-.02-2.09.46-1.2.74-1.17 1.14.18 2.68 2.1 2.39 3.28 6.31 1.9 6.31-.59 0-1.07-.45-1.07-1s-.48-1-1.07-1c-1.29 0-.21 3.86 1.57 5.64 1.54 1.54 1.1 6.36-.68 7.51-1.08.7-1.07 1.01.08 1.75.76.49 1.12 1.6.79 2.47-.33.86-.23 1.8.23 2.08.9.56 2.11 5.55 1.35 5.55-.25 0-1.3-1.01-2.33-2.25l-1.87-2.25-.04 3.75c-.03 3.61 1.31 5.09 2.26 2.5.37-1 .73-1 1.79 0 1.1 1.03 1.07 1.25-.13 1.27-1.2.01-1.2.16-.1.87 1.06.67.85 1.23-1 2.59-1.56 1.14-1.93 1.89-1.1 2.21a2.1 2.1 0 0 1 1.25 1.81c0 .73.56 1.57 1.25 1.86.9.37.75.84-.51 1.64-1.62 1.02-1.63 1.25-.18 2.71.88.87 1.38 2.42 1.11 3.44-.26 1.02-.12 1.85.32 1.85s1.06.7 1.4 1.55c.33.89.16 1.29-.4.94-1.34-.82-1.25-.33.56 3.32 1.14 2.28 1.28 3.63.54 5.02-.56 1.05-.76 2.17-.44 2.48.31.32.72 3.35.9 6.75.19 3.39.56 6.38.83 6.65.27.27.06 1.63-.47 3.01-.64 1.7-.6 2.95.14 3.84.79.95.78 1.88-.02 3.38-1.4 2.62-1.86 2.59-3.09-.19-.95-2.14-.97-2.13-.37.25.34 1.38.68 3.29.74 4.25.07.96.92 2.01 1.9 2.32 1.38.43 1.64 1.19 1.14 3.25-.36 1.47-1.09 2.96-1.61 3.3-.58.38-.52.9.15 1.31.61.38 1.11 1.79 1.11 3.13 0 1.34.4 2.44.88 2.44.49 0 1.12.9 1.41 2 .29 1.1.12 1.75-.38 1.44-.5-.31-.91-.12-.91.42 0 .53.56 1.2 1.25 1.48 1 .4 1 .69.01 1.38-.87.63-.98 1.79-.35 3.98.6 2.09.52 3.47-.25 4.24-.86.86-.82 1.34.13 1.93.7.43.99 1.54.64 2.45-.35.92-1.08 1.4-1.61 1.07-.6-.37-.77.7-.45 2.73.32 2 .05 3.67-.67 4.19-.76.55-.37.68 1.05.37 1.44-.31 2.25-.02 2.25.82 0 .81-.75 1.12-1.93.81-1.61-.42-1.84-.11-1.35 1.84a18.8 18.8 0 0 0 2.43 5c1.58 2.27 1.63 2.72.34 3.21-.82.32-1.49.14-1.49-.39s-.34-.97-.75-.97-.75 1.09-.75 2.42c0 1.84.3 2.16 1.27 1.35.7-.58 1.51-.82 1.8-.53.9.9-.73 5.76-1.93 5.78-.7.01-.62.34.2.87.75.46 1.42 2.03 1.5 3.48.1 1.45.5 2.63.9 2.63.42 0 .74 1.46.72 3.25a92.4 92.4 0 0 0 .32 7.5c.2 2.34-.05 4.25-.57 4.25-.53 0-.4.68.29 1.5 1 1.21.98 1.5-.13 1.52-1.12.01-1.1.18.07.92 1.19.75 1.2 1.18.12 2.48-1.08 1.31-1.07 1.58.07 1.6 1.08.01 1.05.22-.13.98-.83.53-1.1.98-.63.98.48.01.35.66-.3 1.43-.78.94-.83 1.62-.14 2.04.56.35.93 2.68.83 5.18-.11 2.5-.37 4.05-.56 3.46-.47-1.39-3.2-1.43-3.2-.05 0 .57.9 2.01 2 3.19 1.1 1.18 2 3.1 2 4.26 0 1.16.54 2.65 1.2 3.31.93.93.9 1.2-.12 1.2-.86 0-1.15.85-.85 2.45.28 1.46-.05 2.65-.83 2.95-.78.3-1.1-.03-.78-.85.28-.74.04-1.65-.55-2.01-1.35-.83-1.4 3.4-.07 5.46.83 1.28.97 1.25.99-.25 0-.96.66-1.75 1.45-1.75.79 0 1.4.79 1.36 1.75-.03.96.3 2.61.74 3.66.52 1.25.44 1.7-.25 1.27-.62-.38-1.04.37-1.04 1.86 0 1.37.41 2.75.92 3.06.5.31.64 1.43.3 2.48-.33 1.06-.17 1.92.36 1.92s1 1.01 1.06 2.25c.14 3.17.9 11.96 1.18 13.75.52 3.2-.1 11.29-.82 10.58a2.76 2.76 0 0 1-.75-1.66c0-.51-.45-.91-1-.9-1.28.02-.71 12.12.63 13.48.65.66.77.43.35-.67-.35-.92-.12-2.64.51-3.82.88-1.63 1.46-1.88 2.48-1.04 1.43 1.19.88 5.37-.58 4.46-.49-.3-.45.61.09 2.01.91 2.4.63 2.98-1.27 2.66-.44-.07-.23.89.46 2.14.69 1.24 1.12 2.71.94 3.26-.17.55-.5 2.07-.75 3.38-.39 2.08-.13 2.31 2.1 1.88 1.47-.28 2.57-.01 2.62.63l.31 4.61c.24 3.46-.97 6.37-2.3 5.55-.38-.23-1.26.5-1.96 1.62s-.83 1.76-.28 1.42c1.12-.69 5.16 4.48 5.13 6.56 0 1.03-.24.99-.98-.15-1.13-1.75-1.12-1.79-1.55 3.83-.18 2.38-.96 5.31-1.73 6.5-2.47 3.81-1.09 11.41 1.87 10.27 1.13-.43 1.16-.17.15 1.45-.68 1.08-1.8 1.76-2.49 1.49-.74-.28-1.25.33-1.25 1.49 0 3.01.33 3.47 2.5 3.47 2.35 0 4.5 1.22 4.5 2.56 0 .52-.67.94-1.5.94s-1.5-.5-1.5-1.12c0-.83-.36-.83-1.36.01-.75.62-1.29 2.14-1.2 3.37a6.18 6.18 0 0 1-.82 3.57c-.7.92-.56 1.59.44 2.21.99.61 1.61.39 1.99-.67.48-1.37.73-1.34 2 .22.86 1.07.95 1.49.21 1.05-.84-.5-1.05-.25-.64.8.32.85.95 1.33 1.38 1.06.43-.27 1.04.16 1.34.95.4 1.02.08 1.26-1.06.83-1.07-.41-1.37-.23-.89.55 1.33 2.15 1.5 5.17.3 5.21-.65.02-.29.58.81 1.25 1.1.66 2.04 1.77 2.1 2.46.24 2.95.47 3.33 1.65 2.73.69-.34.58-.02-.25.72-2.12 1.89-4.2 5.8-3.1 5.8.52 0 1.11-.53 1.33-1.18.69-2.07 3.47-.1 4 2.84.3 1.56.38 4.64.18 6.84-.19 2.2-.56 7.38-.81 11.5-.26 4.12-.73 9.86-1.04 12.75-.6 5.6.1 6.23 4.85 4.36 1.04-.41 3.52-.47 5.5-.12 1.97.34 4.38.15 5.34-.43 1.23-.73 2.29-.71 3.57.1 1.93 1.2 6.87.71 8.89-.88.66-.52 1.65-.67 2.2-.33.56.34 3.02.66 5.47.71 3.35.07 4.33.43 3.93 1.46-.29.76-.03 1.38.58 1.38s1-.56.86-1.25c-.34-1.71 6.26-1.34 7.37.41.68 1.08.86 1.05.88-.16.02-1.13.23-1.19.83-.25.6.95 1.31.77 2.94-.75 1.18-1.1 2.64-2 3.25-2 .6 0 .8-.49.43-1.08-.82-1.33 5.8 1.97 6.67 3.33.35.53 1.61.65 2.8.27 1.68-.53 1.93-1 1.08-2.01-1.78-2.16.48-2.68 4.93-1.15 3.46 1.19 4.07 1.2 4.07.02 0-1.65.13-1.66 3.5-.38 1.74.66 2.4.66 2 0-.35-.57.5-1 1.94-1 1.4 0 2.45.51 2.31 1.12-.14.62.33 1.34 1.03 1.6s1.16-.14 1-.88c-.36-1.71 7.32-2.39 10.12-.89 1.32.7 2.19.72 2.6.05.41-.67 1.3-.64 2.64.08 1.6.85 2.44.71 3.94-.65 1.18-1.07 1.92-1.28 1.92-.55 0 .85 1.23.99 4.25.49a72.4 72.4 0 0 1 8.9-.79c2.57-.04 4.5-.33 4.31-.64-.2-.32 3.69-.5 8.63-.41 4.93.1 9.19-.17 9.45-.59.26-.42 1.7-.43 3.22-.03 1.5.41 4.76.35 7.24-.12 2.48-.47 5.63-.54 7-.16 1.38.38 3.4.6 4.5.48 1.69-.17 1.76-.03.5.91-1.18.87-.97.96 1 .4 1.38-.4 4.3-.6 6.5-.45 6.8.46 40.88.21 43.13-.32 1.18-.27 3.88-.05 6 .49 2.13.54 13.54 1.15 25.37 1.35 43.77.76 67.34 1.54 68.4 2.27.6.41 5.83.64 11.6.5s11.4-.21 12.5-.16c1.1.05 3.24.1 4.75.11 1.51.01 2.75.31 2.75.66 0 .34 2.81.71 6.25.8 17.9.5 33.36 1.13 34.25 1.4.55.17 2.48-.04 4.29-.47 2.22-.52 3.79-.36 4.83.5.93.78 1.8.9 2.21.31.86-1.22 7.17-1.84 7.17-.7 0 .47 1.13.95 2.5 1.06 1.43.12 2.51-.32 2.52-1.03.01-.77.29-.86.75-.24.9 1.23 3.23 1.77 3.23.75 0-.41 1.84-.88 4.08-1.03 3.05-.21 3.91.04 3.42 1-.35.7 0 .49.79-.47 1.76-2.15 5.04-2.27 6.72-.24.92 1.11 1.6 1.23 2.56.43.93-.77 1.88-.77 3.37.03 1.5.8 2.06.8 2.06 0 0-.69.84-.84 2.22-.4 1.22.39 10.54.79 20.7.9 12.23.13 18.59.56 18.83 1.28.3.9 4.91.93 13.18.07.31-.03.8.03 1.07.14 2.15.84 4.95.85 7.4.02 2.05-.69 3.31-.63 4.32.21 1.06.87 1.62.89 2.13.05.46-.74 1.22-.81 2.18-.2 2.14 1.35 10.26 1.24 9.41-.14-.5-.8-.12-.8 1.37 0 2.76 1.48 6.19 1.39 6.21-.15.01-.78.29-.87.75-.24 1.02 1.4 20.23 1.94 20.23.56 0-.59 1.35-1.07 3-1.07s3 .45 3 1c0 1.49 2.11 1.21 4.05-.55 1.55-1.39 1.87-1.39 3.28.03 1.43 1.42 1.68 1.38 2.69-.52 1.06-1.99 1.26-2.01 3.61-.47 2.33 1.53 2.47 1.52 2.18-.14-.27-1.52.59-1.79 6.19-1.97 3.58-.11 9.56-.44 13.31-.72 5.33-.41 6.93-.21 7.36.91.3.79.99 1.43 1.54 1.43s.75-.68.43-1.5c-.82-2.13 3.18-1.96 5.7.25 1.1.96 1.67 1.18 1.27.49-.41-.69-.05-1.94.79-2.78 1.35-1.35 1.92-1.36 5.06-.04 3.08 1.28 3.54 1.29 3.54.03 0-.8.66-1.45 1.47-1.45.81 0 1.33.56 1.16 1.25-.16.69-.11.91.12.5.23-.41 1.05-.75 1.83-.75s1.42-.45 1.42-1 .68-1 1.5-1c.83 0 1.5.35 1.5.79 0 .43.9.85 2 .93 1.1.09 2-.21 2-.66 0-1.15 5.25-1.04 6.71.14 1.39 1.13 7.29.09 7.29-1.28 0-.51.48-.92 1.06-.92.58 0 .74.52.35 1.16-.46.74-.28.88.52.38 1.9-1.17 10.35-1.46 12.29-.42 1.14.61 2.4.51 3.68-.29 1.52-.95 2.26-.94 3.43.03.96.8 1.71.88 2.11.23.35-.55 1.28-.75 2.09-.44.8.31 1.18 1.01.84 1.56-.4.65.77.8 3.25.41 2.14-.32 6.69-.6 10.13-.6 3.44-.01 9.06-.09 12.5-.16 3.44-.08 7.04-.09 8-.01 2.86.22 5.88.19 12.75-.12 3.58-.17 7.49.03 8.69.44 1.21.4 8.07.84 15.25.97s13.06.52 13.06.86c0 .35 2.59.45 5.75.23 3.26-.23 7.05.13 8.75.84 3.9 1.61 9.47 1.91 9.61.52.06-.6.2-3.69.32-6.87.13-3.87.76-6.34 1.89-7.46.92-.93 1.68-1.22 1.68-.64s.61 1.05 1.36 1.05c1.93 0 1.47-24.95-.5-27.38-.95-1.17-.98-1.45-.11-.92 2.14 1.28 1.38-1.44-.91-3.3-1.49-1.21-1.8-1.98-1-2.47.72-.44 1.17-.03 1.18 1.09.01 1.54.16 1.58.98.31 1.77-2.73 1.19-7.14-1.01-7.71-1.11-.29-2.28-1.6-2.61-2.91-.33-1.31-.95-2.38-1.38-2.38-.43 0-.76-1.91-.74-4.25.03-2.34-.28-5.67-.67-7.41-.4-1.8-.29-3.41.28-3.76.64-.39.65-1.75.03-3.84-1.04-3.56-.22-11.06 1.12-10.23.46.29 1.09.12 1.4-.38.31-.5-.31-1.13-1.37-1.41-1.4-.36-1.77-1.08-1.36-2.65.56-2.15 3.04-2.33 2.56-.19-.14.61.2 1.12.75 1.12s1-.48 1-1.06c0-.58.45-.78 1-.44 1.79 1.1.99-.93-1.57-4-1.53-1.84-2.22-2.26-1.79-1.09.49 1.33.34 1.7-.47 1.19-1.56-.96-1.5-3.6.08-3.62.91-.01.88-.24-.12-.88-.92-.58-1.48-3.58-1.73-9.23-.41-9.38.31-14.96 1.65-12.79.49.79.35 1.99-.32 2.89-.64.84-.77 1.2-.29.79.48-.41 1.44-.27 2.13.3 2.48 2.06 2.43-.9-.06-3.87-1.38-1.64-2.51-3.9-2.51-5.02 0-1.13-.47-2.34-1.04-2.7-.57-.35-.81-1.39-.54-2.3.28-.92.59-4.68.7-8.37.11-3.68.46-6.67.79-6.63 2.04.23 3.09-.37 3.09-1.78 0-1.09-.54-1.4-1.67-.96-.92.35-1.98.14-2.35-.46-.89-1.44-.01-5.97 1.16-5.97.49 0 .6 1.24.24 2.75l-.66 2.75 2.14-2.4c2.66-2.99 2.69-4.3.14-6.6-2.05-1.85-2.8-4.11-1-3 1.92 1.18.98-.44-1.67-2.9-2.26-2.09-2.47-2.72-1.38-4.04.71-.86.95-1.56.52-1.56-.43 0 .04-.9 1.04-2.01.99-1.1 1.51-2.3 1.15-2.66-.36-.37-.66-.19-.66.4 0 .58-.66 1.31-1.46 1.62-1.2.46-1.36-.22-.89-3.65.31-2.31 1.08-4.85 1.71-5.64.92-1.16.8-1.31-.62-.77-1.47.55-1.73.15-1.53-2.39.12-1.68.58-3.27 1.01-3.54.43-.26.78-2.28.78-4.48 0-2.77-.35-3.78-1.15-3.29-.71.44-.89.28-.46-.41.39-.63.22-2.05-.38-3.16-.73-1.36-.74-2.02-.04-2.02 1.42 0 .85-2.23-.97-3.75-1.32-1.1-1.29-1.38.28-2.32 1.52-.91 1.69-2.01 1.18-7.7-.33-3.65-.82-7-1.09-7.44-.27-.43-.03-.79.52-.79 1 0 .85-15.48-.36-37-.29-5.22-.52-10.93-.51-12.68.02-1.74-.44-3.46-1.01-3.81-.57-.36-.71-1.18-.31-1.83.82-1.32 1.26-11.72.55-13-.25-.45-.49-7.98-.53-16.75-.04-8.76-.47-15.93-.96-15.93-.48 0-.56-.52-.16-1.16.49-.79.03-.98-1.44-.59-1.46.38-2.16.1-2.16-.84 0-.78.34-1.41.75-1.41.41-.01.77-1.8.8-4 .03-2.2.51-4.46 1.08-5.03 1.29-1.29 1.2 1.87-.1 3.99-.56.9-.45 1.57.3 1.82.65.21.93.8.62 1.3-.31.51-.14.92.39.92 1.24 0 1.35-15.77.11-16.53a2.13 2.13 0 0 1-.95-1.59c0-.55.45-.72 1-.38.55.34 1-.08 1-.94 0-1.86-2.64-2.1-3.28-.31-.24.69-.77.95-1.16.59-.4-.37-.27-1.52.29-2.56.64-1.2.67-2.42.07-3.33-1.53-2.34-.75-15.95.91-15.95.81 0 1.15-.61.82-1.47-.31-.81.2-1.95 1.14-2.52 1.37-.83 1.17-.92-.98-.43-2.58.58-2.68.45-2.63-3.47.03-2.25.45-3.84.94-3.54.48.3.88 1.42.88 2.49 0 1.07.44 1.94.98 1.94 1.1 0 1.73-2.79 1.82-8 .05-3.14-.04-3.26-.87-1.17-1.56 3.93-3.41 1.96-3.64-3.87-.18-4.62.13-5.65 2.22-7.33 2.27-1.82 2.32-2.05.71-3.37-.95-.77-1.16-1.12-.47-.78.79.4 1.25-.08 1.25-1.31 0-1.08-.65-2.21-1.45-2.51-.92-.36-1.26-.08-.94.76.28.73-.23 1.6-1.12 1.94-1.29.5-1.56.07-1.31-2.12.25-2.12.8-2.69 2.46-2.52 1.56.16 2.27-.44 2.61-2.22.25-1.34.08-2.2-.39-1.91-.47.29-.86 1.2-.86 2.03 0 .82-.46 1.21-1.02.87-.55-.35-.76-1.04-.44-1.55.31-.5-.13-.65-.99-.32-1.03.4-1.55.02-1.55-1.13 0-1.23.57-1.57 2-1.2 2.37.62 2.59-.56.49-2.65-.85-.86-1.09-1.77-.56-2.1.52-.32 1.36.16 1.87 1.06.77 1.39 1 1.23 1.42-.98.36-1.86-.16-3.29-1.8-4.92-2.4-2.4-3.13-8.69-1.02-8.72.77-.01.76-.23-.03-.75-.77-.49-.9-2.3-.41-5.48.41-2.69.33-4.75-.18-4.75-.49 0-.67-.37-.39-.81.27-.45.61-2.92.74-5.49.13-2.56.46-4.45.72-4.19.26.26 1.1-.42 1.86-1.51 1.05-1.5 1.12-2.42.3-3.74-.96-1.52-1.02-1.46-.49.49.41 1.51.18 2.25-.7 2.24-.99 0-1.34-2.36-1.41-9.46-.06-5.2.3-9.21.78-8.91.48.3.59-.73.23-2.29-.97-4.25-1.49-31.33-.6-31.33.43 0 1.27.49 1.87 1.09 1.43 1.43 2.44-.28 1.26-2.14-.7-1.1-.92-1.13-.93-.13-.02 1.1-.24 1.1-1.31 0-1.8-1.86-1.88-5.9-.17-8.53a9.27 9.27 0 0 0 1.4-4.51l-.07-2.28-.95 2.39c-.53 1.32-1.13 2.22-1.33 2-.2-.21-.13-4.74.15-10.06.38-6.95.86-9.54 1.73-9.21.66.26 1.2-.23 1.2-1.08 0-.85-.44-1.54-.97-1.54-.54 0-.71-1.53-.39-3.5.31-1.93.19-3.5-.26-3.5-.46 0-.61-2.59-.35-5.75.27-3.16.51-6.43.53-7.25.02-.83.49-2.06 1.03-2.75.55-.69.58-1.25.08-1.25-.5 0-.98-.94-1.07-2.09-.11-1.39.3-1.91 1.21-1.56 1.13.44 1.11-.08-.09-2.96-.8-1.91-1.15-3.97-.77-4.58.37-.6.64-2.43.59-4.06-.08-2.73.02-2.81 1.27-1.1.86 1.17 1.02 2.25.42 2.97-1.11 1.34-.08 4.61 1.21 3.81 1.56-.96.97-7.35-.86-9.23-1.73-1.77-2.75-5.63-1.25-4.7.42.26.98-.63 1.24-1.98s-.03-2.65-.63-2.9c-.61-.26-.37-.5.52-.54 2.44-.12 3.07-3.8.75-4.4-1.23-.32-1.88-1.39-1.88-3.09 0-1.42.34-2.59.75-2.59s.7-1.46.64-3.25c-.06-1.79.39-3.58 1-3.99.78-.5.73-.73-.14-.75-.69 0-1.25-.71-1.25-1.57 0-.89.48-1.26 1.11-.87.61.38 1.47.1 1.91-.6.94-1.53.13-4.18-1.06-3.45-.45.28-1.08.09-1.41-.43-.32-.53-.12-1.24.45-1.59.57-.35.76-1.08.43-1.61-.33-.54-.09-1.6.53-2.35.63-.75.74-1.6.25-1.9-1.55-.97-1.32-8.87.32-10.67 1.25-1.39 1.29-1.88.19-2.79-.88-.73-1.21-2.86-.99-6.39.18-2.9.51-14.7.73-26.19.27-14.33.76-21.12 1.55-21.6.83-.52.76-.87-.24-1.26-2.16-.83-2.06-14.79.11-16.46 1.37-1.05 1.4-1.39.22-2.16-2.52-1.66-3.37-22.12-.92-22.12.42 0 .5-.67.18-1.5-.31-.82-.97-1.24-1.46-.93-.5.3-.92-.27-.94-1.26-.02-1-.22-4.7-.44-8.22-.23-3.53.01-7.22.54-8.2.52-.97.59-1.99.16-2.25-.43-.27-.61-2.3-.4-4.5.3-3.17.72-3.9 2.03-3.49 1.53.48 1.53.42 0-.86-1.3-1.08-1.5-2.24-.92-5.41.41-2.22.4-4.96-.01-6.08-1.16-3.12-.59-8.84.84-8.55 1.87.38 1.49-3.85-.47-5.28-1.37-1-1.47-1.55-.51-2.7 1.31-1.59.69-9.57-.88-11.22-1.32-1.4-1.1-5.3.35-5.97 1-.46 1-.7 0-1.16-1.48-.7-1.7-6.42-.25-6.42.55 0 .96-1.24.9-2.75l-.1-2.75-.8 2.5c-.69 2.14-.81 2.2-.9.45-.05-1.13.39-2.54.99-3.14.7-.7.73-1.3.09-1.7-1.25-.77-.26-8.85 1.22-9.86.72-.5.76-1 .1-1.5a3.76 3.76 0 0 1-1.19-2.25 351 351 0 0 0-1.72-9.5c-1.81-9.5-1.93-11.83-.59-11 .55.34 1 .14 1-.44 0-.58-.45-1.06-1-1.06s-1-.67-1-1.5.51-1.5 1.12-1.5c.79 0 .81-.38.09-1.25-1.06-1.29-.53-6.43.75-7.22.39-.25.24-2.74-.33-5.55-.86-4.2-.79-5.27.41-6.03 1.15-.72 1.17-.92.1-.94-.9 0-1.11-.6-.62-1.76.4-.96.71-4.56.7-8-.02-5.13.27-6.26 1.63-6.32 1.38-.06 1.35-.2-.2-.8-1.3-.51-1.95-1.95-2.16-4.82-.25-3.34.08-4.3 1.85-5.23 1.19-.63 1.39-.92.44-.66-2.18.62-3.29-1.1-1.84-2.84.67-.82.79-2.26.3-3.7-.44-1.31-.33-6.44.23-11.4.89-7.76 1.28-8.97 2.78-8.68 1.23.24 1.75-.3 1.75-1.8 0-1.72-.41-2-2.12-1.46-1.43.45-1.91.31-1.45-.43.38-.61 1.34-1.11 2.13-1.11 1.72 0 1.94-4.1.3-5.74-.84-.84-.69-1.57.59-2.85 1.29-1.3 1.64-3.02 1.38-6.97-.18-2.89-.03-5.07.34-4.84.37.23.7-3.39.73-8.03.04-4.66.16-8.82.28-9.27.35-1.28-1.35-5.74-2.46-6.45-.57-.37-.67-1.45-.23-2.5 1.16-2.77 1.72-6.31 1.82-11.6.05-2.61.44-4.75.86-4.75s.53-.63.23-1.4c-.78-2.03 1.22-2.87 3.7-1.55 1.71.92 2.03.88 1.64-.2-.27-.74-1.01-1.23-1.64-1.1-1.59.37-2.54-2.5-1.33-4.01.85-1.07.98-3.78.39-8.49-.09-.72-1.54-1.24-3.41-1.22-3.07.03-3.14.11-1.31 1.5ZM1291 558.4c0 .22.68.65 1.5.97.83.32 1.5.14 1.5-.4 0-.52-.67-.96-1.5-.96-.82 0-1.5.18-1.5.4Zm-87.27 1.73c.68.69 1.49 1 1.8.69.3-.31-.25-.87-1.24-1.25-1.42-.54-1.54-.42-.56.56Zm220.27-.29c0 .46.68.84 1.5.84.83 0 1.5-.38 1.5-.84 0-.46-.67-.83-1.5-.83-.82 0-1.5.38-1.5.83Zm-2 10.17c0 .55.48 1 1.06 1 .58 0 .78-.45.44-1s-.82-1-1.06-1c-.24 0-.44.45-.44 1Zm-805.5 3c-.34.55-.14 1 .44 1 .58 0 1.06-.45 1.06-1s-.2-1-.44-1-.72.45-1.06 1Zm28.07-.05c-1.07.39-1.5.98-.96 1.31 1.04.64 4.17-.84 3.36-1.58-.26-.24-1.34-.11-2.4.27Zm12.04.23c.3.47.95.6 1.46.28 1.3-.81 1.16-1.13-.53-1.13-.8 0-1.22.39-.93.85Zm15.19 2.02c.93.93 1.47.93 2.4 0 .93-.93.67-1.2-1.2-1.2s-2.13.27-1.2 1.2Zm4.7-.2c-.34.55.11 1 1 1s1.34-.45 1-1c-.34-.55-.79-1-1-1-.21 0-.66.45-1 1Zm743.06 4.7c-.54 1.43-.42 1.55.56.57.69-.68 1-1.49.69-1.8-.31-.3-.87.25-1.25 1.24ZM569 594a1 1 0 0 0 1 1 1 1 0 0 0 1-1 1 1 0 0 0-1-1 1 1 0 0 0-1 1Zm.14 9.14c-.7 1.13-1.06 2.27-.79 2.54s1.01-.49 1.65-1.68c1.51-2.82.8-3.53-.86-.86Zm23.86.42c0 .86.46 1.28 1.02.93s.75-1.05.44-1.56c-.86-1.39-1.46-1.13-1.46.63Zm822.67 3.1c-.96.96-.82 2.34.22 2.34.49 0 1.16-.67 1.47-1.5.59-1.52-.48-2.05-1.69-.83ZM1414 619.5c0 .83.18 1.5.39 1.5.22 0 .66-.67.97-1.5.32-.83.14-1.5-.39-1.5s-.97.67-.97 1.5Zm-850 33.34c0 .55-.26 1.67-.58 2.5-.4 1.05-.02 1.42 1.25 1.24 2.06-.3 2.5-3.69.58-4.33-.69-.23-1.25.03-1.25.59Zm849 3.22c0 .58.45.78 1 .44s1-.82 1-1.06c0-.24-.45-.44-1-.44s-1 .48-1 1.06Zm-854.3 21.58c.25.67 1.28 1.16 2.27 1.09 1-.08 1.6-.7 1.34-1.37-.26-.67-1.29-1.16-2.28-1.09-1 .08-1.6.7-1.34 1.37Zm33.36 107.41c.06 3.24.13 3.3 1.03 1.03.64-1.6.62-2.77-.06-3.45-.7-.7-1.01.05-.97 2.42Zm823.61 23.62a2.74 2.74 0 0 0-.67 1.7c0 .62.47.56 1.18-.15.65-.65.95-1.42.67-1.7-.28-.29-.82-.22-1.18.15Zm-817.1 25.62c.37.99.93 1.54 1.24 1.24.3-.31 0-1.12-.69-1.8-.98-.98-1.1-.86-.56.56ZM1414 835.5c0 .83.18 1.5.39 1.5.22 0 .66-.67.97-1.5.32-.83.14-1.5-.39-1.5s-.97.67-.97 1.5Zm-844 6c0 .83.45 1.5 1 1.5s1-.67 1-1.5-.45-1.5-1-1.5-1 .67-1 1.5Zm845.5 9.5c-.34.55-.14 1 .44 1 .58 0 1.06-.45 1.06-1s-.2-1-.44-1-.72.45-1.06 1Zm.04 3.93c-.31.51-.11 1.21.44 1.56.56.35 1.02-.07 1.02-.93 0-1.76-.6-2.02-1.46-.63ZM573 926a1 1 0 0 0 1 1 1 1 0 0 0 1-1 1 1 0 0 0-1-1 1 1 0 0 0-1 1Zm-.47 42.3c-.43.98-.5 2.07-.15 2.41 1.01 1.01 1.83-.41 1.36-2.38-.41-1.75-.47-1.75-1.2-.04Zm842.12 6.93c-.32 1.23-.15 2.67.38 3.2.63.63.97-.17.97-2.23 0-3.74-.53-4.12-1.35-.97ZM572 978.47c0 1.88.43 3.68.95 4 .52.32.77-.32.56-1.42-.21-1.1.03-2.27.55-2.59 1.4-.86 1.14-2.17-.56-2.82-1.15-.44-1.5.21-1.5 2.83Zm32.3 16.25c-.08 2.46.17 3.15.78 2.19 1.12-1.77 1.18-4.63.12-5.29-.45-.27-.85 1.12-.9 3.1Zm.7 10.28c0 .55.48 1 1.06 1 .58 0 .78-.45.44-1s-.82-1-1.06-1c-.24 0-.44.45-.44 1Zm-32 4c0 .55.48 1 1.06 1 .58 0 .78-.45.44-1s-.82-1-1.06-1c-.24 0-.44.45-.44 1Zm3.45 4.09c-.37.59-.18 1.58.44 2.2.81.81 1.11.52 1.11-1.09 0-2.42-.52-2.79-1.55-1.11Zm834.55 22.85c0 .52.45 1.22 1 1.56.55.34 1-.08 1-.94s-.45-1.56-1-1.56-1 .42-1 .94Zm.63 8.86c-.28.44-.08 1.45.42 2.25.72 1.13.92.96.94-.8.01-2.31-.5-2.86-1.36-1.45Zm-1.96 8.87c-1.22 1.21-.69 2.28.83 1.69.83-.32 1.5-.98 1.5-1.47 0-1.05-1.38-1.18-2.33-.22Zm-832.6 33.91c.06 1.17.3 1.4.61.61.3-.72.26-1.59-.08-1.92-.33-.33-.56.26-.52 1.31Zm-.43 6.92c-.32.82-.14 1.5.4 1.5.52 0 .96-.68.96-1.5 0-.83-.18-1.5-.4-1.5-.2 0-.64.67-.96 1.5Zm832.97 4.08c-1.06 2.76-.7 3.74.89 2.42 1.64-1.36 2.04-4 .61-4-.49 0-1.17.71-1.5 1.58ZM609 1101.06c0 .58.45.78 1 .44s1-.82 1-1.06c0-.24-.45-.44-1-.44s-1 .48-1 1.06Zm802.62 7.48c-.96 2.51-.68 3.16.5 1.13.59-1 .85-2.03.6-2.29-.26-.26-.75.26-1.1 1.16Zm-833.6.94c-.79.95-.87 1.52-.2 1.52 1.2 0 2.62-1.9 1.92-2.59-.25-.25-1.02.23-1.72 1.07Zm831.44 6.21c.69 4.29 1.54 5.64 1.54 2.42 0-1.23.38-2 .83-1.71.46.28.84-.14.84-.94 0-.81-.63-1.46-1.4-1.46-.76 0-1.11-.45-.77-1 .34-.55.11-1-.5-1-.73 0-.92 1.28-.54 3.69Zm-799.46-.75c0 1.68 1.77 2.09 2.36.55.35-.9 0-1.49-.9-1.49-.8 0-1.46.42-1.46.94Zm799.62 13.52c-1.8 2.75-1.99 3.54-.84 3.54.43 0 1.29-1.35 1.91-3 1.38-3.65 1.07-3.8-1.07-.54Zm-.84 16.3c-.6 2.29.15 4.4 1.31 3.69 1.17-.73 1.19-4.16.02-4.88-.48-.3-1.09.23-1.33 1.19Zm-826.23 2.96c-.56 1.48-.8 1.51-1.59.25-.8-1.26-.93-1.23-.95.16 0 .9.78 1.84 1.74 2.09 1.27.34 1.79-.17 1.9-1.88.17-2.78-.2-2.98-1.1-.62Zm825.45 4.78c0 .73.69 1.22 1.53 1.1 2.16-.32 2.32-1.86.22-2.17-.96-.14-1.75.34-1.75 1.07Zm-826.74 7.74c-.13 1.76.03 1.92.77.75 1.15-1.83 1.23-2.99.18-2.99-.43 0-.86 1.01-.95 2.24Zm.35 8.17c.55 1.44.4 1.72-.6 1.1-.9-.57-1.08-.44-.55.42.55.9 1.07.94 1.85.16.79-.79.74-1.44-.17-2.34-1-1-1.11-.87-.53.66Zm823.39 12.15c0 .86.46 1.27 1.02.93.56-.35.75-1.05.44-1.56-.86-1.39-1.46-1.13-1.46.63Zm2 37.44a1 1 0 0 0 1 1 1 1 0 0 0 1-1 1 1 0 0 0-1-1 1 1 0 0 0-1 1Zm1.5 4.67c0 1.28.39 2.33.87 2.33.47 0 .61 1.01.3 2.25-.56 2.2-.54 2.21.91.26.82-1.09 1.06-2.13.53-2.31-.53-.17-.77-1.34-.54-2.59.24-1.37-.09-2.28-.83-2.28-.68 0-1.24 1.05-1.24 2.34Zm40.58 27.91c.05 1.17.28 1.4.6.61.29-.72.26-1.59-.08-1.92-.33-.33-.56.26-.52 1.31Zm-871.57 5.99c-1.68 1.26-1.76 1.65-.55 2.4 1.91 1.19 2.95.44 2.76-1.99a23.17 23.17 0 0 0-.18-1.95l-2.03 1.54Zm830.42 1.68c-.65 2.38-.57 5.75.14 5.75.51 0 .93-1.35.93-3s-.22-3-.5-3c-.27 0-.53.11-.57.25ZM577 1278.88c0 1.31 2.59 3.2 3.34 2.44 1.37-1.36.58-3.32-1.34-3.32-1.1 0-2 .4-2 .88Zm38 7.53c0 .19.67.9 1.5 1.59.87.72 1.5.82 1.5.23 0-.56-.67-1.28-1.5-1.59-.83-.32-1.5-.42-1.5-.23Zm-38.36 4.1c-.35.9 0 1.49.9 1.49 1.6 0 1.98-1.56.57-2.44-.5-.3-1.16.12-1.47.95Zm830.9 10.42c-.68 1.11.9 2.3 1.82 1.38.95-.95.77-2.31-.3-2.31-.52 0-1.2.42-1.52.93Zm-790.98 4.78c-.54 1.42-.42 1.54.56.56.69-.68 1-1.49.69-1.8-.31-.3-.87.25-1.25 1.24Zm-38.48 36.92c-.12 1.73 2.6 3.68 3.39 2.42.36-.58-.02-1.05-.83-1.05-.8 0-1.7-.56-1.98-1.25-.31-.79-.53-.83-.58-.12Zm39.62 1.41c-.6 2.32.35 3.16 2.26 1.99 1.13-.71 1.1-1.11-.2-2.4-1.4-1.41-1.6-1.37-2.06.41Zm-40.2 6.96c-.34.55.08 1 .94 1s1.56-.45 1.56-1-.42-1-.94-1-1.22.45-1.56 1Zm41 7.25c.41 8.26.5 8.86 1.3 8.37 1.01-.62 1.49-8.13.68-10.69-1.08-3.39-2.2-2.07-1.98 2.32Zm-40.75-.59c.69.28 1.25 1.44 1.25 2.59 0 2.48 1.26 1.53 1.69-1.28.22-1.48-.26-1.95-1.95-1.89-1.23.04-1.68.3-.99.58Zm-1.6 16.34c0 1.38.24 1.94.51 1.25.28-.69.28-1.81 0-2.5-.27-.69-.5-.13-.5 1.25Zm5.11 9.55c-.85.92-.9 1.55-.18 2 1.37.85 2.18-.01 1.76-1.87-.28-1.24-.54-1.26-1.58-.13Zm-3.26 17.51c0 .58.45.78 1 .44s1-.82 1-1.06c0-.24-.45-.44-1-.44s-1 .48-1 1.06Zm1.65 4.77a5.2 5.2 0 0 0-1.13 4.23c.26 1.34.57 3.68.69 5.19.12 1.51.8 2.75 1.5 2.75.71 0 1.3-.11 1.33-.25 1.07-7.08 1.02-8.03-.51-9.72-.98-1.08-1.26-2.08-.68-2.44.54-.33 1.2-.04 1.49.65.36.9.52.92.58.07.14-2.08-1.6-2.33-3.27-.48Zm861.35.05c0 .55.45 1.28 1 1.62.55.34 1 .17 1-.38s-.45-1.28-1-1.62c-.55-.34-1-.17-1 .38Zm-25.42 7.99c-.43.69-.51 1.53-.18 1.86.9.9 1.87-.42 1.39-1.87-.34-1.01-.58-1.01-1.21.01Zm-793.5 4.71c.05 1.17.28 1.4.6.61.3-.72.26-1.59-.08-1.92-.33-.33-.56.26-.52 1.31Zm1.92-.52c0 .58.45.78 1 .44s1-.82 1-1.06c0-.24-.45-.44-1-.44s-1 .48-1 1.06Zm-.99 7.78c.01.36.4 1.24.84 1.96.66 1.03 1.08.98 2.11-.25.7-.85 1.12-1.58.91-1.63-3.03-.62-3.87-.64-3.86-.08Zm-41.93 1.74c.05 1.17.28 1.4.6.61.3-.72.26-1.59-.08-1.92-.33-.33-.56.26-.52 1.31Zm44.58 12.97c.6 1.58 2.34 2 2.34.56 0-.49-.65-1.15-1.45-1.45-.97-.37-1.26-.08-.9.89Zm791.51 1.51c.43 2.97 2.6 3.69 2.45.81-.07-1.21-.72-2.4-1.45-2.65-.91-.3-1.23.29-1 1.84Zm-.4 7.38c-.26 1.34-.09 3.02.37 3.75.96 1.52 1.01 1.4 1.26-2.94.21-3.79-.95-4.37-1.63-.81Zm-790.98 10.24c.35 1.84.7 2.15 1.33 1.16 1.19-1.87 1.09-2.55-.46-3.14-.98-.38-1.21.17-.87 1.98Zm-44.54.73c.96.72 1.75 1.8 1.75 2.39 0 .6.38 1.32.86 1.61.47.29.65-.54.4-1.85a3.82 3.82 0 0 0-2.6-2.92c-1.98-.49-2.01-.43-.41.77Zm49.37 6.13c-1.02 2.67-.7 5.21.72 5.76.98.38 1.28-.41 1.13-2.93-.24-4.02-.97-5.13-1.85-2.83Zm786.04.71c.43.69.65 2.26.49 3.5-.2 1.5.23 2.25 1.28 2.25.86 0 1.57-.43 1.57-.95 0-1.73-2.3-6.05-3.22-6.05-.49 0-.55.56-.12 1.25Zm-835.65 10.38c.04 1.72 1.73 3.59 2.35 2.59.34-.55-.05-1.55-.87-2.23-.82-.68-1.48-.84-1.48-.36Zm835.99.96c0 .33.9 1.74 2 3.14 1.77 2.25 2 2.31 2 .6 0-1.06-.54-2.47-1.2-3.13-1.27-1.27-2.8-1.6-2.8-.61Zm-840 6.97c0 .86.45 1.28 1 .94.55-.34 1-1.04 1-1.56s-.45-.94-1-.94-1 .7-1 1.56Zm1.4 9.21c-.8.53-.78 1.69.09 4.23l1.2 3.5.48-3.25c.27-1.79.09-3.25-.4-3.25s-.61-.45-.27-1c.73-1.18.41-1.24-1.1-.23Zm838.6 8.17c0 .52.45 1.22 1 1.56.55.34 1-.08 1-.94s-.45-1.56-1-1.56-1 .42-1 .94Zm-835.92 1.64c.05 1.17.28 1.4.6.61.3-.72.26-1.59-.08-1.92-.33-.33-.56.26-.52 1.31Zm49.42 5.42c-.34.55-.14 1 .44 1 .58 0 1.06-.45 1.06-1s-.2-1-.44-1-.72.45-1.06 1Zm789.08 4.64c-.52 1.37-.38 1.44.9.38 1.73-1.44 1.91-2.02.63-2.02-.49 0-1.18.74-1.53 1.64Zm-790.36 12.2c-.71.45-1 1.57-.65 2.49.98 2.54 2.43 1.99 2.2-.83a46.37 46.37 0 0 0-.24-2.48c-.02 0-.6.38-1.31.82Zm-44.97 3.82c-1.74.7-1.57 2.34.25 2.34.83 0 1.5-.68 1.5-1.5s-.11-1.46-.25-1.42c-.14.04-.81.3-1.5.58Zm834.75 2.78c0 .86.45 1.56 1 1.56s1-.42 1-.94-.45-1.22-1-1.56c-.55-.34-1 .08-1 .94Zm-789.57 2.18c.7 1.51 1.29 1.85 1.8 1.05 1.3-2.04.83-3.55-1.04-3.41-1.52.11-1.64.51-.76 2.36Zm-44.43 1.32c0 .52.45 1.22 1 1.56.55.34 1-.08 1-.94s-.45-1.56-1-1.56-1 .42-1 .94Zm49.56 2.35c.38.99.94 1.54 1.25 1.24.3-.31 0-1.12-.69-1.8-.98-.98-1.1-.86-.56.56Zm782.77.17c0 .8.39 1.22.85.93.47-.29.59-.95.28-1.46-.81-1.31-1.13-1.16-1.13.53Zm-786.83.54c.34.55.82 1 1.06 1 .24 0 .44-.45.44-1s-.48-1-1.06-1c-.58 0-.78.45-.44 1Zm2.5 3a1 1 0 0 0 1 1 1 1 0 0 0 1-1 1 1 0 0 0-1-1 1 1 0 0 0-1 1Zm784.81-.32c.72.29 1.59.26 1.92-.08.33-.33-.26-.56-1.31-.52-1.17.05-1.4.28-.61.6ZM629.5 1544c.34.55.82 1 1.06 1 .24 0 .44-.45.44-1s-.48-1-1.06-1c-.58 0-.78.45-.44 1Zm-43.48.99c-1.24.77-1.2 1 .3 1.58 2.09.8 3.45-.2 2.1-1.54-.56-.57-1.52-.59-2.4-.04Zm853.62 1.51c.32.82.75 1.5.97 1.5.21 0 .39-.68.39-1.5s-.44-1.5-.97-1.5-.71.68-.39 1.5Zm-20.2.6c-.37.6.05 1.82.94 2.71.96.96 1.62 1.15 1.62.46 0-.63-.5-1.46-1.11-1.84-.77-.47-.69-.94.25-1.54.91-.57.97-.86.17-.87a2.4 2.4 0 0 0-1.87 1.08Zm20.76 9.4c.02 1.65.24 2.2.49 1.23a5.7 5.7 0 0 0-.03-3c-.28-.68-.48.12-.46 1.77Zm-22.62 4.37c-.43.69-.51 1.53-.18 1.86.9.9 1.87-.42 1.39-1.87-.34-1.01-.58-1.01-1.21.01Zm22.73.85c.17 1.23.62 2.54 1 2.92 1.06 1.06.79-1.94-.33-3.64-.78-1.19-.92-1.04-.67.72Zm-19.31 5.22c0 1.13.45 2.06 1 2.06s1-.65 1-1.44c0-.79-.45-1.72-1-2.06-.55-.34-1 .31-1 1.44Zm-3.27 1.12c.27 1.06.9 1.67 1.38 1.37 1.32-.81 1.08-2.14-.5-2.75-.97-.37-1.23.04-.88 1.38Zm2 6.06c.68.69 1.49 1 1.8.69.3-.31-.25-.87-1.24-1.25-1.42-.54-1.54-.42-.56.56Zm20.94-.45c-.93.93-.83 2.33.16 2.33.46 0 .84-.68.84-1.5 0-1.7-.08-1.76-1-.83Zm-17.97 3.72c-.41 1.04-.51 2.13-.22 2.42.91.91 1.71-.58 1.33-2.48-.35-1.74-.4-1.74-1.11.06Zm17.45 5.83c.14 2.05.8 3.93 1.47 4.19 1.51.58.96-5.23-.64-6.83-.77-.77-1-.01-.83 2.64Zm-19.55.52c-1.16 1.16-.58 3.26.9 3.26.83 0 1.5.54 1.5 1.2 0 .82.32.88 1.03.17.57-.57.76-1.75.43-2.63-.68-1.76-2.93-2.93-3.86-2ZM585.5 1598c.34.55 1.04 1 1.56 1s.94-.45.94-1-.7-1-1.56-1c-.86 0-1.28.45-.94 1Zm-21.5 3.06c0 .58.45.78 1 .44s1-.82 1-1.06c0-.24-.45-.44-1-.44s-1 .48-1 1.06Zm4 5.94c-1.09.7-1.14.97-.2.98.77.01 1.02.54.6 1.27-.4.69-.33.9.13.47.72-.65 1.66-3.75 1.13-3.7-.09 0-.83.45-1.66.98Zm916.75 7.66c.69.28 1.81.28 2.5 0s.13-.5-1.25-.5c-1.37 0-1.94.22-1.25.5ZM862 1622.39c0 .22.7.66 1.55.99.9.34 1.3.18.94-.39-.58-.95-2.49-1.41-2.49-.6Zm-98.5 1.61c-1.63.7-1.69.87-.3.93.92.04 1.96-.38 2.3-.93.71-1.15.68-1.15-2 0Zm-43.1 1.17c-.29.45.4.83 1.54.83 1.13 0 2.06-.38 2.06-.83 0-.46-.7-.84-1.54-.84-.85 0-1.78.38-2.06.84Zm331.2-.34c-.28.46.12.84.9.84s1.18-.38.9-.84c-.29-.45-.69-.83-.9-.83-.21 0-.61.38-.9.83Zm388.9.17c.34.55.82 1 1.06 1 .24 0 .44-.45.44-1s-.48-1-1.06-1c-.58 0-.78.45-.44 1Zm-198 1c.34.55 1.04 1 1.56 1s.94-.45.94-1-.7-1-1.56-1c-.86 0-1.28.45-.94 1Zm-77.42 1.58c.05 1.17.28 1.4.6.61.29-.72.26-1.59-.08-1.92-.33-.33-.56.26-.52 1.31Zm58.58-.31c-.64.42.97.68 3.57.56 2.6-.11 4.52-.42 4.26-.68-.79-.79-6.6-.7-7.83.12Zm11.34-.21c0 .58.45.78 1 .44s1-.82 1-1.06c0-.24-.45-.44-1-.44s-1 .48-1 1.06Zm-184.19.62c.72.29 1.59.26 1.92-.08.33-.33-.26-.56-1.31-.52-1.17.05-1.4.28-.61.6Zm17.69.32c-.73 1.18.25 1.18 3 0 1.93-.83 1.92-.86-.19-.93-1.21-.04-2.47.38-2.81.93Zm149.11-.17c-.61.98 3.04.85 4.04-.14.37-.38-.26-.69-1.42-.69s-2.34.37-2.62.83Zm267.67.29c-.62.62-.89 1.74-.59 2.5.6 1.58 3.31 1.89 3.31.38 0-.55-.5-1-1.11-1-.61 0-.84-.68-.53-1.5.69-1.79.42-1.88-1.08-.38Zm-803.28.27c0 .22.67.66 1.5.97.83.32 1.5.14 1.5-.39s-.67-.97-1.5-.97-1.5.18-1.5.39Zm527 .44c0 .45 1.35.63 3 .38 1.65-.24 3-.61 3-.82 0-.22-1.35-.39-3-.39s-3 .37-3 .83ZM661.5 1630c-.36.58.57.99 2.2.98 2.17-.01 2.46-.23 1.3-.98-1.92-1.24-2.73-1.24-3.5 0Zm9.25-.34c.69.28 1.81.28 2.5 0s.13-.5-1.25-.5-1.94.22-1.25.5Zm473.75.34c-.34.55-.14 1 .44 1 .58 0 1.06-.45 1.06-1s-.2-1-.44-1-.72.45-1.06 1Zm4.67-.12c-1.08.68-1.03.96.25 1.45 1 .38 1.58.07 1.58-.86 0-1.7-.06-1.72-1.83-.59Zm12.6.29c.58.58 1.65.86 2.37.62.75-.25.29-.71-1.06-1.06-1.66-.43-2.05-.3-1.31.44ZM647 1631.22c0 1.14 3.77.96 4.5-.21.35-.58-.46-.91-1.95-.79-1.4.12-2.55.57-2.55 1Zm527.27-.53a5.7 5.7 0 0 0 3-.03c.68-.28-.12-.49-1.77-.47-1.65.02-2.2.25-1.23.5Zm7.54-.01c.72.29 1.59.26 1.92-.08.33-.33-.26-.56-1.31-.52-1.17.05-1.4.28-.61.6Zm-381.8 6.96c-.02 1.63-5.15 2.75-6.04 1.31-.5-.82-.92-.84-1.39-.08-.37.59-2.04.92-3.71.73-1.68-.2-4.38.14-6 .76-2.33.87-3.14.83-3.79-.23-.64-1.04-1.3-1.08-2.95-.2a9.25 9.25 0 0 1-4.88.74 9.11 9.11 0 0 0-4.62.57c-1.26.65-1.66.62-1.23-.07.39-.63-.53-1-2.35-.95-1.64.04-2.75.46-2.46.92.63 1.03-8.41-.07-10.84-1.31-.99-.51-1.75-.52-1.75-.02 0 .48-4.57.96-10.16 1.07-5.6.11-10.61.48-11.16.82-.54.33-.7.14-.34-.44.82-1.33-4.57-1.17-5.51.17-.38.52-5.02 1.04-10.33 1.16-5.3.12-9.9.48-10.23.81-.32.32-1.1.15-1.73-.37-.74-.61-2.88-.43-6 .51-5.83 1.75-8.87 1.97-6.54.46 1.28-.83 1.25-.97-.25-.98-.96-.01-1.75.43-1.75.98 0 1.29-2.73 1.31-3.17.01-.2-.6-1.32-.47-2.86.33-1.39.72-3.07 1.13-3.75.9-.67-.22-1.22.01-1.22.51 0 1.24-10.3 1.01-11.27-.25-.49-.63-1.22-.43-2 .55-1.26 1.59-5.73 2.16-5.73.74 0-.44-.67-.79-1.5-.79s-1.5.5-1.5 1.12c0 .65-.9.88-2.2.54-1.2-.32-2.79-.08-3.52.52-.98.82-1.81.65-3.26-.66-1.28-1.16-2.55-1.5-3.73-.98-.99.43-2.17.69-2.64.58-.48-.1-1.4.26-2.07.82-.83.68-1.83.59-3.15-.31-1.85-1.27-12.13-1.42-16.93-.27-1.1.27-2.26.52-2.59.56-.32.05-.67 2.2-.76 4.78-.1 2.59-.74 5.05-1.42 5.49-.93.59-.88.78.2.79.77.01 2.25.78 3.28 1.71 1.51 1.37 1.76 1.4 1.3.18-.38-.98.28-1.91 1.87-2.63 2.58-1.18 3.4-.39 4.5 4.3.06.3.74-.04 1.5-.74.75-.71 1.13-1.91.84-2.66-.4-1.04.06-1.19 1.88-.62 1.32.41 2.73 1.25 3.13 1.87.45.67.78.33.83-.89.06-1.1.33-1.44.6-.75.73 1.79 4.01 1.54 4.75-.36.5-1.31.9-1.38 2.1-.38 1.08.9 1.49.92 1.49.08 0-.85.54-.87 1.98-.1 1.61.86 1.87.78 1.4-.47-.33-.84-.1-1.52.51-1.52s1.11.4 1.11.89c0 .48 1.35 1.08 3 1.32 1.65.25 3 .18 3-.13 0-.32 7.32-.71 16.25-.87 20.48-.36 23.97-.57 25.43-1.5.65-.41 1.48-.26 1.84.32.42.68 1.08.72 1.82.12.64-.52 4.5-1.46 8.59-2.08 6.66-1.03 7.59-.96 9 .59 1.45 1.6 1.43 1.63-.2.39-1.54-1.15-1.7-1.11-1.15.3.46 1.19 1.34 1.47 3.27 1 3.42-.82 3.89-1.28 2.29-2.27-1.02-.62-.94-.94.36-1.44 2.7-1.03 3.5-.75 3.5 1.22 0 1.45.56 1.76 2.5 1.38 2.5-.47 3.54-2.24 1.33-2.24-.64 0-.91-.25-.6-.56.3-.31 4.1-.09 8.41.49 4.33.57 13.26 1.28 19.86 1.58 14.46.64 15.57.78 22.25 2.8 2.89.87 5.25 1.4 5.25 1.19 0-.22 1.55.25 3.45 1.04 2.56 1.07 5.76 1.29 12.5.85 7.24-.48 9.05-.33 9.06.76.02 1.03.2 1.06.8.12 1.07-1.69 7.19-2.87 7.19-1.39 0 .61.48 1.12 1.06 1.12.58 0 .8-.42.48-.93-.96-1.56 2.56-2.24 18.06-3.51 1.7-.14 3.66-.61 4.36-1.03.71-.44 1.6-.26 2.01.43.54.87.93.74 1.4-.48.36-.93 1.28-1.44 2.06-1.14.78.3 3.08.08 5.12-.48 2.58-.72 4.01-.7 4.77.06 1.36 1.36 3 1.42 2.18.08-.34-.55.2-1.04 1.2-1.08.99-.05 3.15-.26 4.8-.47 6.89-.89 23.88-.45 24.56.64.5.83.87.83 1.38 0 .39-.62 1.14-.85 1.67-.52.54.33 1.64.05 2.45-.62 1.18-.98 1.84-.9 3.29.41 1 .91 2.13 1.33 2.52.94.7-.7 19.98-.47 26.63.32 6.82.81 37.51 1.13 38.5.4a5 5 0 0 1 2.5-.76c11.47-.11 25.51-2.17 30.6-4.48a11.7 11.7 0 0 1 5.13-.64c1.66.17 3.73-.28 4.59-.99.92-.77 3.37-1.18 5.88-1 3.65.27 4.34.02 4.59-1.67.27-1.88-.33-1.98-12.5-2.01-14.7-.03-29.7-1.11-32.13-2.32-.91-.46-2.78-.54-4.16-.17-1.58.42-3.4.08-4.96-.91-1.36-.86-2.15-1.06-1.76-.44 1.1 1.81-13.88 2.93-16.01 1.21-1.15-.93-1.43-.96-.9-.1.58.98-3.31 1.17-18.2.89-10.4-.2-19.47-.7-20.14-1.11-.67-.42-3.32-.77-5.88-.78-2.56-.01-5.1-.28-5.65-.6-1.56-.91-3.5-1.04-3.5-.23 0 .41-3.43.83-7.63.94-4.2.11-8.01.43-8.48.72-.47.29-1.76.04-2.87-.56-1.11-.59-2.02-.72-2.02-.28 0 .44-2.7.8-6 .8s-6-.37-6-.83c0-.45-.56-.45-1.25-.01-1.67 1.08-8.75 1.04-8.75-.05 0-.47-.66-.6-1.47-.29-.8.31-1.75.11-2.09-.44-.39-.63-1.05-.66-1.78-.07-1.37 1.1-10.39 1.41-11.03.37-.5-.81-11.04-.69-12.39.14-1.62 1-13.73.39-14.48-.73-.53-.82-.73-.81-.75.02Zm664.49.36c-.34.55-.14 1 .44 1 .58 0 1.06-.45 1.06-1s-.2-1-.44-1-.72.45-1.06 1Zm-148.9.74c-.46.45-19.21 1.26-40.36 1.73-10.59.23-19.73.71-20.29 1.06-.57.36-1.65.13-2.4-.49-.87-.72-1.59-.78-1.98-.16-.33.54-3.71.89-7.51.78-3.79-.12-6.69.14-6.42.56.52.85.23.89-10.14 1.35-3.85.17-7 .36-7 .43s-2.47.3-5.5.5c-3.02.2-8.87.68-13 1.07-11.01 1.04-20.04 1.18-20.57.31-.26-.41-2.25-.73-4.44-.7-2.18.03-3.71.47-3.39.98.33.54-1.84.72-5.27.43-3.2-.27-5.83-.55-5.83-.62 0-.79-5.19-.41-5.75.42-.55.81-.95.8-1.5-.04-.5-.76-3.11-.99-7.75-.69-8.07.54-8.48.55-18.5.53l-9.97-.01c-1.36 0-2.62-.45-2.81-1.01-.23-.69-1.33-.68-3.39.04-1.98.69-3.27.72-3.69.08-.35-.54-1.76-.87-3.14-.73-1.37.14-4.81-.32-7.64-1.03s-5.69-.95-6.35-.53c-2.06 1.26-20.4.98-21.25-.33-.56-.87-.98-.82-1.63.18-.65 1.01-1.37 1.09-2.84.31-1.52-.82-1.96-.73-1.96.39 0 .93 1.11 1.48 3.09 1.55 1.69.05 5.11.3 7.58.55 2.48.25 5.96.47 7.75.47 1.79.01 3.25.36 3.25.77 0 .41 3.04.76 6.75.77 3.71.01 10.58.38 15.25.81 4.68.43 9.4.82 10.5.85 1.1.03 2.27.45 2.6.93.32.48 2.57.89 5 .92 2.42.02 4.85.39 5.4.81.55.43 2.07 1.1 3.38 1.5 1.82.56 2.21.42 1.67-.62-.38-.75.01-.49.87.57s1.85 1.64 2.19 1.29c.35-.35 2.27.19 4.26 1.2 4.21 2.12 13.47 3.34 14.86 1.96.59-.6 1.95-.57 3.66.08 1.76.67 2.51.68 2.11.04-.36-.58.68-1 2.5-1 1.72 0 2.86.42 2.55.92-1.39 2.25 3.14 1.49 5.1-.85 2.06-2.45 2.23-2.49 4.08-.81 2.44 2.21 4.41 2.26 3.58.1-.54-1.39-.11-1.55 2.78-1.02 1.88.35 5.89.05 8.91-.66 3.03-.7 6.85-1.01 8.5-.69 1.65.33 6.15.44 10 .23 3.85-.2 11.23-.35 16.39-.33 5.16.02 10.28-.45 11.38-1.03 1.45-.78 2.18-.74 2.72.13.57.92 1.24.89 2.86-.13 1.62-1.01 2.79-1.06 5.02-.21 1.61.6 3.51.74 4.22.29.72-.44 2.01-.42 2.87.04 1.74.93 6.79.24 7.58-1.04.28-.45 1.76-.38 3.29.15 1.54.54 18.07 1.14 36.73 1.34 35.82.39 56.35 1.06 65.44 2.13 6.77.79 3.22.8 31.25-.05 13.06-.39 23.75-.33 23.75.14 0 .71 10.7.92 23.38.45 3.11-.11 3.06.4.92-9.1a20.49 20.49 0 0 1-.5-4.13c.05-1.37-.53-1.49-3.62-.77-5.16 1.2-6.43 1.12-5.55-.35.56-.93.34-.91-.86.06-1.57 1.27-12.77 1.51-12.77.27 0-.32-1.24-.61-2.75-.66-1.51-.04-5.67-.35-9.25-.69-3.57-.34-7.09-.65-7.81-.68-.72-.03-1.07-.43-.79-.89.53-.86-47.48-.61-52.9.28-5.62.92-16.99.71-19.81-.37-3.32-1.26-4.71-1.37-2.92-.23.74.47-.83.78-3.75.73-2.76-.04-5.02-.4-5.02-.81 0-.68-4.73-.7-5.4-.02Zm169.19 5.33c2.03 2.37 2.21 2.39 2.21.14 0-1.05-.8-1.84-1.93-1.93-1.82-.14-1.83-.03-.28 1.79Zm-465.98-.39c.72.29 1.59.26 1.92-.08.33-.33-.26-.56-1.31-.52-1.17.05-1.4.28-.61.6Zm40.73.25c-.68 1.11.9 2.3 1.82 1.38.95-.95.77-2.31-.3-2.31-.52 0-1.2.42-1.52.93Zm-36.54 1.63c0 .86.45 1.28 1 .94.55-.34 1-1.04 1-1.56s-.45-.94-1-.94-1 .7-1 1.56Zm462.21 2.98c-1.06 1.21-1.02 1.46.25 1.46.85 0 1.54-.68 1.54-1.5 0-1.82-.15-1.82-1.79.04Zm-22.21.46c0 .55.48 1 1.06 1 .58 0 .78-.45.44-1s-.82-1-1.06-1c-.24 0-.44.45-.44 1Zm-454.33.67c-.96.95-.82 2.33.22 2.33.49 0 1.16-.68 1.47-1.5.59-1.52-.48-2.05-1.69-.83Zm-401.03 1.83c-.32.82-.14 1.5.4 1.5.52 0 .96-.68.96-1.5s-.18-1.5-.4-1.5c-.2 0-.64.68-.96 1.5Zm-17.04 1.1c-.36.93-.42 1.91-.15 2.19.28.27.8-.26 1.15-1.19.36-.93.42-1.91.15-2.19-.28-.27-.8.26-1.15 1.19Zm895.4-.04c0 .86.45 1.28 1 .94.55-.34 1-1.04 1-1.56s-.45-.94-1-.94-1 .7-1 1.56ZM865.5 1654c-.34.55-.14 1 .44 1 .58 0 1.06-.45 1.06-1s-.2-1-.44-1-.72.45-1.06 1Zm-276.1 5.38c-.84 2.2.29 3.33 1.82 1.8.9-.9.9-1.46.01-2.35-.89-.89-1.32-.76-1.82.55Zm-7.32 2.87c.04 1.24.3 1.69.58.99a1.12 1.12 0 0 1 1.68-.55c.64.38.54-.07-.21-1-1.81-2.23-2.15-2.13-2.05.56Zm499.35 13.75c0 1.1.58 2 1.28 2 .71 0 1.29-.48 1.29-1.06 0-.58.45-.78.99-.45.57.35.73-.05.39-.94-.88-2.29-3.95-1.94-3.95.45Zm24.13-.71c.38.99.94 1.54 1.25 1.24.31-.31 0-1.12-.69-1.8-.98-.98-1.1-.86-.56.56Zm-47.56.71c0 .55.48 1 1.06 1 .58 0 .78-.45.44-1s-.82-1-1.06-1c-.24 0-.44.45-.44 1Zm15-.11c0 .49.74 1.18 1.64 1.53 1.37.52 1.44.38.38-.9-1.44-1.73-2.02-1.91-2.02-.63Zm19.03.58c-1.06 1.27-1 1.53.35 1.53.89 0 1.63-.56 1.64-1.25.01-.85.35-.77 1.07.25.86 1.22.99 1.23.67.06-.56-2.09-2.27-2.36-3.73-.59Zm7.97.03c-1.01 1.22-.97 1.5.21 1.5.8 0 1.46-.68 1.46-1.5s-.1-1.5-.21-1.5c-.12 0-.77.68-1.46 1.5Zm9 .33c0 .46.66.84 1.46.84.8 0 1.22-.38.94-.84a1.96 1.96 0 0 0-1.46-.83c-.52 0-.94.38-.94.83Zm98.68 1.29c-1 .58-3.03.81-4.5.51-1.47-.3-2.12-.31-1.43-.01.69.3 1.25 1.1 1.25 1.78 0 .88 2.15 1.22 7.4 1.17 4.07-.04 7.15-.47 6.85-.97-.3-.49.65-.66 2.11-.38 2.16.41 2.45.25 1.53-.86-1.3-1.56-8.35-1.91-7.39-.36.35.57-.49 1-1.94 1-1.41 0-2.56-.44-2.56-.97s.75-.68 1.66-.33c1.12.43 1.43.26.95-.53-.88-1.42-1.56-1.43-3.93-.05Zm14.82-.12c-.34.55-.14 1 .44 1 .58 0 1.06-.45 1.06-1s-.2-1-.44-1-.72.45-1.06 1Zm-27 .94c1.1.45 2.41.57 2.91.28.49-.29.59-.03.21.58-.37.61-1.46.87-2.4.58-1.41-.44-1.38-.32.15.66 1.48.95 2.05.91 2.73-.17 1.48-2.33 1.02-2.87-2.35-2.8-2.66.06-2.89.22-1.25.87Zm-294.82 1.44c-.3.81-1.6 1.66-2.87 1.91-2.13.4-2.1.45.33.57 2.34.12 4.74-2.31 3.5-3.55-.21-.22-.65.26-.96 1.07Zm4.04.92c-.33.85.49 1.37 2.39 1.51 1.59.12 2.89-.26 2.89-.85s-.42-.82-.93-.5c-.51.31-1.21.11-1.56-.44-.87-1.41-2.2-1.27-2.8.28Zm232.28-.3c0 .55 1.24.99 2.75.98 2.14-.01 2.42-.23 1.25-.98-1.96-1.26-4-1.26-4 0Zm-376 .88c0 .55.45 1.28 1 1.62.55.34 1 .17 1-.38s-.45-1.28-1-1.62c-.55-.34-1-.17-1 .38Zm109 .7-2.5 1.39 2.75.01c1.78.01 2.75-.51 2.75-1.48 0-.82-.11-1.46-.25-1.4-.14.05-1.38.72-2.75 1.48Zm44.6-.75c-.28.46.12.84.9.84s1.18-.38.9-.84c-.29-.45-.69-.83-.9-.83-.21 0-.61.38-.9.83Zm7.1-.2c-.85.85 1.85 3.37 3.62 3.37.8 0 1.74-.72 2.08-1.61.46-1.19.2-1.45-1.01-.98a3.2 3.2 0 0 1-2.86-.38c-.67-.56-1.49-.74-1.82-.4Zm10.53.08c-1.24.24-2 .85-1.69 1.36.9 1.44 3.18 1.1 3.82-.57.32-.82.48-1.44.36-1.36-.12.07-1.24.33-2.49.57Zm58.48 1.29c.29 1.1.7 2 .9 2 .22 0 .39-.9.39-2s-.4-2-.9-2-.68.9-.39 2Zm7.29-1c0 .55-.65 1-1.44 1-.8 0-1.67.38-1.96.84-.28.46 1.15.78 3.2.71 2.03-.07 3.59-.45 3.45-.84a6.17 6.17 0 0 1-.25-1.71c0-.55-.67-1-1.5-1s-1.5.45-1.5 1Zm145.5 0c-.34.55-.14 1 .44 1 .58 0 1.06-.45 1.06-1s-.2-1-.44-1-.72.45-1.06 1Zm2.79.38c.34 1 1.3 1.15 4.77.74.58-.06.82-.51.52-1-.81-1.3-5.73-1.07-5.29.26Zm42.46-.72c.69.28 1.81.28 2.5 0s.13-.5-1.25-.5c-1.37 0-1.94.22-1.25.5Zm-333.15 1.5c.49.79.03.98-1.44.59-1.39-.36-2.16-.1-2.16.73 0 .79 1.15 1.24 3 1.16 1.65-.06 3-.2 3-.3 0-1.13-1.43-3.34-2.17-3.34-.52 0-.63.52-.23 1.16Zm85.76.35c-.31.81-1.04 1.19-1.62.83-.66-.41-.75-.16-.24.66.65 1.05 1.02 1.01 1.9-.19.6-.82 1.66-1.3 2.35-1.06 1.8.6 1.54-.42-.29-1.13-.87-.33-1.78.05-2.1.89Zm233.14-.51c-.34.55.11 1 1 1s1.34-.45 1-1c-.34-.55-.79-1-1-1-.21 0-.66.45-1 1Zm-519.58.25c-.82 2.7-.5 3.75 1.17 3.75 1.05 0 1.91-.45 1.91-1s.48-1 1.06-1c.58 0 .84.35.57.79-.27.43.6.88 1.94.99 2.54.21 3.26-1.15 1.27-2.37-.71-.45-.88-.28-.44.43 1.05 1.7-.94 1.41-2.4-.34-1.02-1.23-4.8-2.16-5.08-1.25Zm20.3 1.31c-2.84 1.99-2.83 3.19.03 3.19 1.66 0 2.29-.62 2.4-2.37.17-2.82.34-2.76-2.43-.82Zm157.78-.73c0 .46.65.84 1.46.84.8 0 1.22-.38.94-.84a1.94 1.94 0 0 0-1.46-.83c-.52 0-.94.38-.94.83Zm26.5.17c-.34.55.08 1 .94 1s1.56-.45 1.56-1-.42-1-.94-1-1.22.45-1.56 1Zm98.23.93c-.34 1.3-.08 1.76.8 1.42 1.86-.71 2.69-3.35 1.06-3.35-.75 0-1.58.87-1.86 1.93Zm-314.73.16c0 .5-.67.91-1.5.91s-1.5.34-1.5.75-1.58.76-3.5.78c-1.92.02-3.5-.32-3.5-.75s-.79-.77-1.75-.76c-1.5.01-1.53.15-.25.98 1.32.85 1.32.97-.05.98a4.4 4.4 0 0 1-2.73-1.16c-.65-.65-1.52-.86-1.92-.45-.41.41-.08 1.16.73 1.67 1.2.76 1.1.95-.53 1.06-1.1.08-2.45.03-3-.11-1.78-.44-8.48.65-9.35 1.52-.21.22-1.02-.24-1.8-1.01-.92-.93-2.82-1.26-5.52-.98-4.1.42-6.62 1.48-3.53 1.48.99 0 1.43.55 1.1 1.39-.43 1.14.88 1.33 7.05 1.04 4.17-.2 9.48-.9 11.81-1.55s7.17-1.3 10.76-1.44c7.02-.26 14.07-1.2 14.84-1.97.26-.26-.75-.47-2.25-.47-1.6 0-2.47-.42-2.1-1.02.35-.55 1.16-.71 1.8-.34.66.38.84.29.41-.18-1.1-1.2-3.72-1.47-3.72-.37Zm194 .47c0 .86.46 1.27 1.02.93.56-.35.75-1.05.44-1.56-.86-1.39-1.46-1.13-1.46.63Zm113.57-.61c-1.7.62-1.73.78-.28 1.33.9.35 1.93.17 2.28-.39.9-1.44.24-1.75-2-.94Zm31.93.05c-.36.58.25.87 1.41.69 2.88-.43 3.85-1.69 1.32-1.69-1.16 0-2.4.45-2.73 1Zm446.5 1c0 1.1.4 2 .88 2 .49 0 1.12-.9 1.41-2 .34-1.3.03-2-.88-2-.78 0-1.41.9-1.41 2Zm-650.3-.33c-.71 1.16.96 4.01 1.84 3.13.35-.36.21-1.42-.31-2.35-.52-.94-1.21-1.29-1.53-.78Zm48.49.39a3.13 3.13 0 0 0 1.75 1.75c.75.25 1.12-.12.87-.87a3.13 3.13 0 0 0-1.75-1.75c-.75-.25-1.12.12-.87.87Zm17.81-.15c0 .5.9.67 2 .38 1.1-.29 2-.7 2-.91 0-.21-.9-.38-2-.38s-2 .41-2 .91Zm98.75-.25c.69.28 1.81.28 2.5 0s.13-.5-1.25-.5-1.94.22-1.25.5Zm29.75.34c-.34.55.28 1 1.38 1 1.1 0 2.28-.45 2.62-1 .34-.55-.28-1-1.38-1-1.1 0-2.28.45-2.62 1Zm448.5.5c0 .82.79 1.46 1.75 1.42 1.06-.05 1.25-.28.49-.58-.69-.28-1-.92-.69-1.42.31-.51.09-.92-.49-.92s-1.06.68-1.06 1.5Zm12 .03c0 1.62 1.56 1.99 2.44.57.3-.49-.12-1.15-.95-1.46-.9-.35-1.49 0-1.49.89Zm24.25 1.12c0 2.2.37 2.35 5.91 2.35 5.6 0 5.85-.11 4.84-2-1.12-2.09-1.28-2.15-7.12-2.49-3.2-.19-3.63.06-3.63 2.14Zm-807.44-.97c.72.29 1.59.26 1.92-.08.33-.33-.26-.56-1.31-.52-1.17.05-1.4.28-.6.6Zm145.19 1.38c0 1.13.43 1.79.96 1.47.52-.33.7-1.25.39-2.06-.8-2.07-1.35-1.83-1.35.59Zm27.33-.54c0 .81.9 1.48 2 1.48s1.82-.13 1.59-.28l-2-1.49c-1.28-.96-1.59-.91-1.59.29Zm8.67-.55c0 .53.67.71 1.5.39.83-.31 1.5-.75 1.5-.97 0-.21-.67-.39-1.5-.39s-1.5.44-1.5.97Zm615.72.74c.29.76.77 1.14 1.06.84.3-.29 1.07-.09 1.71.44.81.67 1.18.53 1.18-.46 0-.79-.38-1.21-.84-.93-.45.29-.83.12-.83-.37 0-.5-.63-.9-1.4-.9-.79 0-1.17.61-.88 1.38Zm-656.26.36c-1.08 1.74.15 2.11 1.52.45.79-.95.87-1.52.2-1.52-.58 0-1.36.48-1.72 1.07Z" clip-rule="evenodd"/></svg>